SplineFontDB: 3.0
FontName: NgwaLisu
FullName: NgwaLisu
FamilyName: NgwaLisu
Weight: Book
Copyright: GPL
Version: 3.00
ItalicAngle: 0
UnderlinePosition: -142
UnderlineWidth: 150
Ascent: 1638
Descent: 410
sfntRevision: 0x00030000
LayerCount: 2
Layer: 0 1 "Back"  1
Layer: 1 1 "Fore"  0
XUID: [1021 503 1621258254 11539601]
FSType: 0
OS2Version: 1
OS2_WeightWidthSlopeOnly: 0
OS2_UseTypoMetrics: 1
CreationTime: 649950890
ModificationTime: 1375141590
PfmFamily: 17
TTFWeight: 400
TTFWidth: 5
LineGap: 67
VLineGap: 0
Panose: 2 11 6 4 2 2 2 2 2 4
OS2TypoAscent: -147
OS2TypoAOffset: 1
OS2TypoDescent: -21
OS2TypoDOffset: 1
OS2TypoLinegap: 307
OS2WinAscent: -206
OS2WinAOffset: 1
OS2WinDescent: -444
OS2WinDOffset: 1
HheadAscent: -206
HheadAOffset: 1
HheadDescent: 444
HheadDOffset: 1
OS2SubXSize: 1434
OS2SubYSize: 1331
OS2SubXOff: 0
OS2SubYOff: 283
OS2SupXSize: 1434
OS2SupYSize: 1331
OS2SupXOff: 0
OS2SupYOff: 977
OS2StrikeYSize: 102
OS2StrikeYPos: 530
OS2FamilyClass: 2053
OS2Vendor: 'Mono'
OS2CodePages: 400001ff.ffff0000
OS2UnicodeRanges: 00007a87.80000000.00000008.00000000
Lookup: 1 1 0 "'isol' Isolated Forms in Arabic lookup 0"  {"'isol' Isolated Forms in Arabic lookup 0 subtable"  } ['isol' ('arab' <'MAR ' > ) ]
Lookup: 1 1 0 "'isol' Isolated Forms in Arabic lookup 1"  {"'isol' Isolated Forms in Arabic lookup 1 subtable"  } ['isol' ('arab' <'MAR ' 'dflt' > ) ]
Lookup: 1 1 0 "'init' Initial Forms in Arabic lookup 2"  {"'init' Initial Forms in Arabic lookup 2 subtable"  } ['init' ('arab' <'MAR ' 'dflt' > ) ]
Lookup: 1 1 0 "'medi' Medial Forms in Arabic lookup 3"  {"'medi' Medial Forms in Arabic lookup 3 subtable"  } ['medi' ('arab' <'MAR ' 'dflt' > ) ]
Lookup: 1 1 0 "'fina' Terminal Forms in Arabic lookup 4"  {"'fina' Terminal Forms in Arabic lookup 4 subtable"  } ['fina' ('arab' <'MAR ' > ) ]
Lookup: 1 1 0 "'fina' Terminal Forms in Arabic lookup 5"  {"'fina' Terminal Forms in Arabic lookup 5 subtable"  } ['fina' ('arab' <'dflt' > ) ]

StartChar: .notdef
Encoding: 65536 -1 0
Width: 1536
Flags: W
LayerCount: 2
Fore
SplineSet
256 0 m 1,0,-1
 256 1280 l 1,1,-1
 1280 1280 l 1,2,-1
 1280 0 l 1,3,-1
 256 0 l 1,0,-1
288 32 m 1,4,-1
 1248 32 l 1,5,-1
 1248 1248 l 1,6,-1
 288 1248 l 1,7,-1
 288 32 l 1,4,-1
EndSplineSet
Validated: 1
EndChar

StartChar: exclam
Encoding: 33 33 4
Width: 569
Flags: W
LayerCount: 2
Fore
SplineSet
231 364 m 1,0,-1
 176 1141 l 1,1,-1
 176 1466 l 1,2,-1
 399 1466 l 1,3,-1
 399 1141 l 1,4,-1
 347 364 l 1,5,-1
 231 364 l 1,0,-1
184 0 m 1,6,-1
 184 205 l 1,7,-1
 391 205 l 1,8,-1
 391 0 l 1,9,-1
 184 0 l 1,6,-1
EndSplineSet
Validated: 1
EndChar

StartChar: quotedbl
Encoding: 34 34 5
Width: 727
Flags: W
LayerCount: 2
Fore
SplineSet
144 947 m 1,0,-1
 94 1226 l 1,1,-1
 94 1466 l 1,2,-1
 299 1466 l 1,3,-1
 299 1226 l 1,4,-1
 254 947 l 1,5,-1
 144 947 l 1,0,-1
475 947 m 1,6,-1
 426 1226 l 1,7,-1
 426 1466 l 1,8,-1
 631 1466 l 1,9,-1
 631 1226 l 1,10,-1
 583 947 l 1,11,-1
 475 947 l 1,6,-1
EndSplineSet
Validated: 1
EndChar

StartChar: numbersign
Encoding: 35 35 6
Width: 1139
Flags: W
LayerCount: 2
Fore
SplineSet
103 -25 m 1,0,-1
 190 401 l 1,1,-1
 21 401 l 1,2,-1
 21 550 l 1,3,-1
 220 550 l 1,4,-1
 294 913 l 1,5,-1
 21 913 l 1,6,-1
 21 1062 l 1,7,-1
 324 1062 l 1,8,-1
 411 1491 l 1,9,-1
 561 1491 l 1,10,-1
 474 1062 l 1,11,-1
 789 1062 l 1,12,-1
 876 1491 l 1,13,-1
 1027 1491 l 1,14,-1
 940 1062 l 1,15,-1
 1113 1062 l 1,16,-1
 1113 913 l 1,17,-1
 910 913 l 1,18,-1
 835 550 l 1,19,-1
 1113 550 l 1,20,-1
 1113 401 l 1,21,-1
 805 401 l 1,22,-1
 718 -25 l 1,23,-1
 568 -25 l 1,24,-1
 654 401 l 1,25,-1
 340 401 l 1,26,-1
 253 -25 l 1,27,-1
 103 -25 l 1,0,-1
370 550 m 1,28,-1
 684 550 l 1,29,-1
 759 913 l 1,30,-1
 444 913 l 1,31,-1
 370 550 l 1,28,-1
EndSplineSet
Validated: 1
EndChar

StartChar: dollar
Encoding: 36 36 7
Width: 1139
Flags: W
LayerCount: 2
Fore
SplineSet
510 -211 m 1,0,-1
 510 -31 l 1,1,2
 375 -14 375 -14 290.5 29.5 c 128,-1,3
 206 73 206 73 144.5 170 c 128,-1,4
 83 267 83 267 73 407 c 1,5,-1
 254 441 l 1,6,7
 275 296 275 296 328 228 c 0,8,9
 404 132 404 132 510 121 c 1,10,-1
 510 694 l 1,11,12
 399 715 399 715 283 780 c 0,13,14
 197 828 197 828 150.5 913 c 128,-1,15
 104 998 104 998 104 1106 c 0,16,17
 104 1298 104 1298 240 1417 c 0,18,19
 331 1497 331 1497 510 1515 c 1,20,-1
 510 1601 l 1,21,-1
 616 1601 l 1,22,-1
 616 1515 l 1,23,24
 773 1500 773 1500 865 1423 c 0,25,26
 983 1325 983 1325 1007 1154 c 1,27,-1
 821 1126 l 1,28,29
 805 1232 805 1232 754.5 1288.5 c 128,-1,30
 704 1345 704 1345 616 1363 c 1,31,-1
 616 844 l 1,32,33
 752 810 752 810 796 791 c 0,34,35
 880 754 880 754 933 701 c 128,-1,36
 986 648 986 648 1014.5 575 c 128,-1,37
 1043 502 1043 502 1043 417 c 0,38,39
 1043 230 1043 230 924 105 c 128,-1,40
 805 -20 805 -20 616 -29 c 1,41,-1
 616 -211 l 1,42,-1
 510 -211 l 1,0,-1
510 1365 m 1,43,44
 405 1349 405 1349 344.5 1281 c 128,-1,45
 284 1213 284 1213 284 1120 c 0,46,47
 284 1028 284 1028 335.5 966 c 128,-1,48
 387 904 387 904 510 867 c 1,49,-1
 510 1365 l 1,43,44
616 121 m 1,50,51
 721 134 721 134 789.5 212 c 128,-1,52
 858 290 858 290 858 405 c 0,53,54
 858 503 858 503 809.5 562.5 c 128,-1,55
 761 622 761 622 616 669 c 1,56,-1
 616 121 l 1,50,51
EndSplineSet
Validated: 1
EndChar

StartChar: percent
Encoding: 37 37 8
Width: 1821
Flags: W
LayerCount: 2
Fore
SplineSet
119 1114 m 0,0,1
 119 1271 119 1271 198 1381 c 128,-1,2
 277 1491 277 1491 427 1491 c 0,3,4
 565 1491 565 1491 655.5 1392.5 c 128,-1,5
 746 1294 746 1294 746 1103 c 0,6,7
 746 917 746 917 654.5 816.5 c 128,-1,8
 563 716 563 716 429 716 c 0,9,10
 296 716 296 716 207.5 815 c 128,-1,11
 119 914 119 914 119 1114 c 0,0,1
432 1367 m 256,12,13
 365 1367 365 1367 320.5 1309 c 128,-1,14
 276 1251 276 1251 276 1096 c 0,15,16
 276 955 276 955 321 897.5 c 128,-1,17
 366 840 366 840 432 840 c 0,18,19
 500 840 500 840 544.5 898 c 128,-1,20
 589 956 589 956 589 1110 c 0,21,22
 589 1252 589 1252 544 1309.5 c 128,-1,23
 499 1367 499 1367 432 1367 c 256,12,13
433 -54 m 1,24,-1
 1235 1491 l 1,25,-1
 1381 1491 l 1,26,-1
 582 -54 l 1,27,-1
 433 -54 l 1,24,-1
1067 344 m 0,28,29
 1067 502 1067 502 1146 611.5 c 128,-1,30
 1225 721 1225 721 1376 721 c 0,31,32
 1514 721 1514 721 1604.5 622.5 c 128,-1,33
 1695 524 1695 524 1695 333 c 0,34,35
 1695 147 1695 147 1603.5 46.5 c 128,-1,36
 1512 -54 1512 -54 1377 -54 c 0,37,38
 1244 -54 1244 -54 1155.5 45.5 c 128,-1,39
 1067 145 1067 145 1067 344 c 0,28,29
1381 597 m 0,40,41
 1313 597 1313 597 1268.5 539 c 128,-1,42
 1224 481 1224 481 1224 326 c 0,43,44
 1224 186 1224 186 1269 128 c 128,-1,45
 1314 70 1314 70 1380 70 c 0,46,47
 1449 70 1449 70 1493.5 128 c 128,-1,48
 1538 186 1538 186 1538 340 c 0,49,50
 1538 482 1538 482 1493 539.5 c 128,-1,51
 1448 597 1448 597 1381 597 c 0,40,41
EndSplineSet
Validated: 1
EndChar

StartChar: ampersand
Encoding: 38 38 9
Width: 1366
Flags: W
LayerCount: 2
Fore
SplineSet
973 173 m 1,0,1
 884 74 884 74 779 24.5 c 128,-1,2
 674 -25 674 -25 552 -25 c 0,3,4
 327 -25 327 -25 195 127 c 0,5,6
 88 251 88 251 88 404 c 0,7,8
 88 540 88 540 175.5 649.5 c 128,-1,9
 263 759 263 759 437 842 c 1,10,11
 338 956 338 956 305 1027 c 128,-1,12
 272 1098 272 1098 272 1164 c 0,13,14
 272 1296 272 1296 375.5 1393.5 c 128,-1,15
 479 1491 479 1491 636 1491 c 0,16,17
 786 1491 786 1491 881.5 1399 c 128,-1,18
 977 1307 977 1307 977 1178 c 0,19,20
 977 969 977 969 700 821 c 1,21,-1
 963 486 l 1,22,23
 1008 574 1008 574 1033 690 c 1,24,-1
 1220 650 l 1,25,26
 1172 458 1172 458 1090 334 c 1,27,28
 1191 200 1191 200 1319 109 c 1,29,-1
 1198 -34 l 1,30,31
 1089 36 1089 36 973 173 c 1,0,1
607 937 m 1,32,33
 724 1006 724 1006 758.5 1058 c 128,-1,34
 793 1110 793 1110 793 1173 c 0,35,36
 793 1248 793 1248 745.5 1295.5 c 128,-1,37
 698 1343 698 1343 627 1343 c 0,38,39
 554 1343 554 1343 505.5 1296 c 128,-1,40
 457 1249 457 1249 457 1181 c 0,41,42
 457 1147 457 1147 474.5 1109.5 c 128,-1,43
 492 1072 492 1072 527 1030 c 2,44,-1
 607 937 l 1,32,33
860 315 m 1,45,-1
 530 724 l 1,46,47
 384 637 384 637 333 562.5 c 128,-1,48
 282 488 282 488 282 415 c 0,49,50
 282 326 282 326 353 230 c 128,-1,51
 424 134 424 134 554 134 c 0,52,53
 635 134 635 134 721.5 184.5 c 128,-1,54
 808 235 808 235 860 315 c 1,45,-1
EndSplineSet
Validated: 1
EndChar

StartChar: quotesingle
Encoding: 39 39 10
Width: 391
Flags: W
LayerCount: 2
Fore
SplineSet
136 947 m 1,0,-1
 90 1221 l 1,1,-1
 90 1466 l 1,2,-1
 295 1466 l 1,3,-1
 295 1221 l 1,4,-1
 247 947 l 1,5,-1
 136 947 l 1,0,-1
EndSplineSet
Validated: 1
EndChar

StartChar: parenleft
Encoding: 40 40 11
Width: 682
Flags: W
LayerCount: 2
Fore
SplineSet
479 -431 m 1,0,1
 330 -243 330 -243 227 9 c 128,-1,2
 124 261 124 261 124 531 c 0,3,4
 124 769 124 769 201 987 c 0,5,6
 291 1240 291 1240 479 1491 c 1,7,-1
 608 1491 l 1,8,9
 487 1283 487 1283 448 1194 c 0,10,11
 387 1056 387 1056 352 906 c 0,12,13
 309 719 309 719 309 530 c 0,14,15
 309 49 309 49 608 -431 c 1,16,-1
 479 -431 l 1,0,1
EndSplineSet
Validated: 1
EndChar

StartChar: parenright
Encoding: 41 41 12
Width: 682
Flags: W
LayerCount: 2
Fore
SplineSet
253 -431 m 1,0,-1
 124 -431 l 1,1,2
 423 49 423 49 423 530 c 0,3,4
 423 718 423 718 380 903 c 0,5,6
 346 1053 346 1053 285 1191 c 0,7,8
 246 1281 246 1281 124 1491 c 1,9,-1
 253 1491 l 1,10,11
 441 1240 441 1240 531 987 c 0,12,13
 608 769 608 769 608 531 c 0,14,15
 608 261 608 261 504.5 9 c 128,-1,16
 401 -243 401 -243 253 -431 c 1,0,-1
EndSplineSet
Validated: 1
EndChar

StartChar: asterisk
Encoding: 42 42 13
Width: 797
Flags: W
LayerCount: 2
Fore
SplineSet
64 1197 m 1,0,-1
 110 1339 l 1,1,2
 269 1283 269 1283 341 1242 c 1,3,4
 322 1423 322 1423 321 1491 c 1,5,-1
 466 1491 l 1,6,7
 463 1392 463 1392 443 1243 c 1,8,9
 546 1295 546 1295 679 1339 c 1,10,-1
 725 1197 l 1,11,12
 598 1155 598 1155 476 1141 c 1,13,14
 537 1088 537 1088 648 952 c 1,15,-1
 528 867 l 1,16,17
 470 946 470 946 391 1082 c 1,18,19
 317 941 317 941 261 867 c 1,20,-1
 143 952 l 1,21,22
 259 1095 259 1095 309 1141 c 1,23,24
 180 1166 180 1166 64 1197 c 1,0,-1
EndSplineSet
Validated: 1
EndChar

StartChar: plus
Encoding: 43 43 14
Width: 1196
Flags: W
LayerCount: 2
Fore
SplineSet
513 237 m 1,0,-1
 513 639 l 1,1,-1
 114 639 l 1,2,-1
 114 807 l 1,3,-1
 513 807 l 1,4,-1
 513 1206 l 1,5,-1
 683 1206 l 1,6,-1
 683 807 l 1,7,-1
 1082 807 l 1,8,-1
 1082 639 l 1,9,-1
 683 639 l 1,10,-1
 683 237 l 1,11,-1
 513 237 l 1,0,-1
EndSplineSet
Validated: 1
EndChar

StartChar: comma
Encoding: 44 44 15
Width: 569
Flags: W
LayerCount: 2
Fore
SplineSet
182 0 m 1,0,-1
 182 205 l 1,1,-1
 387 205 l 1,2,-1
 387 0 l 2,3,4
 387 -113 387 -113 347 -182.5 c 128,-1,5
 307 -252 307 -252 220 -290 c 1,6,-1
 170 -213 l 1,7,8
 227 -188 227 -188 254 -139.5 c 128,-1,9
 281 -91 281 -91 284 0 c 1,10,-1
 182 0 l 1,0,-1
EndSplineSet
Validated: 1
EndChar

StartChar: hyphen
Encoding: 45 45 16
AltUni2: 0000ad.ffffffff.0
Width: 682
Flags: W
LayerCount: 2
Fore
SplineSet
65 440 m 1,0,-1
 65 621 l 1,1,-1
 618 621 l 1,2,-1
 618 440 l 1,3,-1
 65 440 l 1,0,-1
EndSplineSet
Validated: 1
EndChar

StartChar: period
Encoding: 46 46 17
Width: 569
Flags: W
LayerCount: 2
Fore
SplineSet
186 0 m 1,0,-1
 186 205 l 1,1,-1
 391 205 l 1,2,-1
 391 0 l 1,3,-1
 186 0 l 1,0,-1
EndSplineSet
Validated: 1
EndChar

StartChar: slash
Encoding: 47 47 18
Width: 569
Flags: W
LayerCount: 2
Fore
SplineSet
0 -25 m 1,0,-1
 425 1491 l 1,1,-1
 569 1491 l 1,2,-1
 145 -25 l 1,3,-1
 0 -25 l 1,0,-1
EndSplineSet
Validated: 1
EndChar

StartChar: zero
Encoding: 48 48 19
Width: 1139
Flags: W
LayerCount: 2
Fore
SplineSet
85 723 m 0,0,1
 85 983 85 983 138.5 1141.5 c 128,-1,2
 192 1300 192 1300 297.5 1386 c 128,-1,3
 403 1472 403 1472 563 1472 c 0,4,5
 681 1472 681 1472 770 1424.5 c 128,-1,6
 859 1377 859 1377 917 1287.5 c 128,-1,7
 975 1198 975 1198 1008 1069.5 c 128,-1,8
 1041 941 1041 941 1041 723 c 0,9,10
 1041 465 1041 465 988 306.5 c 128,-1,11
 935 148 935 148 829.5 61.5 c 128,-1,12
 724 -25 724 -25 563 -25 c 0,13,14
 351 -25 351 -25 230 127 c 0,15,16
 85 310 85 310 85 723 c 0,0,1
270 723 m 256,17,18
 270 362 270 362 354.5 242.5 c 128,-1,19
 439 123 439 123 563 123 c 256,20,21
 687 123 687 123 771.5 243 c 128,-1,22
 856 363 856 363 856 723 c 0,23,24
 856 1085 856 1085 771.5 1204 c 128,-1,25
 687 1323 687 1323 561 1323 c 0,26,27
 437 1323 437 1323 363 1218 c 0,28,29
 270 1084 270 1084 270 723 c 256,17,18
EndSplineSet
Validated: 1
EndChar

StartChar: one
Encoding: 49 49 20
Width: 1139
Flags: W
LayerCount: 2
Fore
SplineSet
763 0 m 1,0,-1
 583 0 l 1,1,-1
 583 1147 l 1,2,3
 518 1085 518 1085 412.5 1023 c 128,-1,4
 307 961 307 961 223 930 c 1,5,-1
 223 1104 l 1,6,7
 374 1175 374 1175 487 1276 c 128,-1,8
 600 1377 600 1377 647 1472 c 1,9,-1
 763 1472 l 1,10,-1
 763 0 l 1,0,-1
EndSplineSet
Validated: 1
EndChar

StartChar: two
Encoding: 50 50 21
Width: 1139
Flags: W
LayerCount: 2
Fore
SplineSet
1031 173 m 1,0,-1
 1031 0 l 1,1,-1
 62 0 l 1,2,3
 60 65 60 65 83 125 c 0,4,5
 120 224 120 224 201.5 320 c 128,-1,6
 283 416 283 416 437 542 c 0,7,8
 676 738 676 738 760 852.5 c 128,-1,9
 844 967 844 967 844 1069 c 0,10,11
 844 1176 844 1176 767.5 1249.5 c 128,-1,12
 691 1323 691 1323 568 1323 c 0,13,14
 438 1323 438 1323 360 1245 c 128,-1,15
 282 1167 282 1167 281 1029 c 1,16,-1
 96 1048 l 1,17,18
 115 1255 115 1255 239 1363.5 c 128,-1,19
 363 1472 363 1472 572 1472 c 0,20,21
 783 1472 783 1472 906 1355 c 128,-1,22
 1029 1238 1029 1238 1029 1065 c 0,23,24
 1029 977 1029 977 993 892 c 128,-1,25
 957 807 957 807 873.5 713 c 128,-1,26
 790 619 790 619 596 455 c 0,27,28
 434 319 434 319 388 270.5 c 128,-1,29
 342 222 342 222 312 173 c 1,30,-1
 1031 173 l 1,0,-1
EndSplineSet
Validated: 33
EndChar

StartChar: three
Encoding: 51 51 22
Width: 1139
Flags: W
LayerCount: 2
Fore
SplineSet
86 387 m 1,0,-1
 266 411 l 1,1,2
 297 258 297 258 371.5 190.5 c 128,-1,3
 446 123 446 123 553 123 c 0,4,5
 680 123 680 123 767.5 211 c 128,-1,6
 855 299 855 299 855 429 c 0,7,8
 855 553 855 553 774 633.5 c 128,-1,9
 693 714 693 714 568 714 c 0,10,11
 517 714 517 714 441 694 c 1,12,-1
 461 852 l 1,13,14
 479 850 479 850 490 850 c 0,15,16
 605 850 605 850 697 910 c 128,-1,17
 789 970 789 970 789 1095 c 0,18,19
 789 1194 789 1194 722 1259 c 128,-1,20
 655 1324 655 1324 549 1324 c 0,21,22
 444 1324 444 1324 374 1258 c 128,-1,23
 304 1192 304 1192 284 1060 c 1,24,-1
 104 1092 l 1,25,26
 137 1273 137 1273 254 1372.5 c 128,-1,27
 371 1472 371 1472 545 1472 c 0,28,29
 665 1472 665 1472 766 1420.5 c 128,-1,30
 867 1369 867 1369 920.5 1280 c 128,-1,31
 974 1191 974 1191 974 1091 c 0,32,33
 974 996 974 996 923 918 c 128,-1,34
 872 840 872 840 772 794 c 1,35,36
 902 764 902 764 974 669.5 c 128,-1,37
 1046 575 1046 575 1046 433 c 0,38,39
 1046 241 1046 241 906 107.5 c 128,-1,40
 766 -26 766 -26 552 -26 c 0,41,42
 359 -26 359 -26 231.5 89 c 128,-1,43
 104 204 104 204 86 387 c 1,0,-1
EndSplineSet
Validated: 1
EndChar

StartChar: four
Encoding: 52 52 23
Width: 1139
Flags: W
LayerCount: 2
Fore
SplineSet
662 0 m 1,0,-1
 662 351 l 1,1,-1
 26 351 l 1,2,-1
 26 516 l 1,3,-1
 695 1466 l 1,4,-1
 842 1466 l 1,5,-1
 842 516 l 1,6,-1
 1040 516 l 1,7,-1
 1040 351 l 1,8,-1
 842 351 l 1,9,-1
 842 0 l 1,10,-1
 662 0 l 1,0,-1
662 516 m 1,11,-1
 662 1177 l 1,12,-1
 203 516 l 1,13,-1
 662 516 l 1,11,-1
EndSplineSet
Validated: 1
EndChar

StartChar: five
Encoding: 53 53 24
Width: 1139
Flags: W
LayerCount: 2
Fore
SplineSet
85 384 m 1,0,-1
 274 400 l 1,1,2
 295 262 295 262 371.5 192.5 c 128,-1,3
 448 123 448 123 556 123 c 0,4,5
 686 123 686 123 776 221 c 128,-1,6
 866 319 866 319 866 481 c 0,7,8
 866 635 866 635 779.5 724 c 128,-1,9
 693 813 693 813 553 813 c 0,10,11
 466 813 466 813 396 773.5 c 128,-1,12
 326 734 326 734 286 671 c 1,13,-1
 117 693 l 1,14,-1
 259 1446 l 1,15,-1
 988 1446 l 1,16,-1
 988 1274 l 1,17,-1
 403 1274 l 1,18,-1
 324 880 l 1,19,20
 456 972 456 972 601 972 c 0,21,22
 793 972 793 972 925 839 c 128,-1,23
 1057 706 1057 706 1057 497 c 0,24,25
 1057 298 1057 298 941 153 c 0,26,27
 800 -25 800 -25 556 -25 c 0,28,29
 356 -25 356 -25 229.5 87 c 128,-1,30
 103 199 103 199 85 384 c 1,0,-1
EndSplineSet
Validated: 1
EndChar

StartChar: six
Encoding: 54 54 25
Width: 1139
Flags: W
LayerCount: 2
Fore
SplineSet
1019 1107 m 1,0,-1
 840 1093 l 1,1,2
 816 1199 816 1199 772 1247 c 1,3,4
 699 1324 699 1324 592 1324 c 0,5,6
 506 1324 506 1324 441 1276 c 0,7,8
 356 1214 356 1214 307 1095 c 128,-1,9
 258 976 258 976 256 756 c 1,10,11
 321 855 321 855 415 903 c 128,-1,12
 509 951 509 951 612 951 c 0,13,14
 792 951 792 951 918.5 818.5 c 128,-1,15
 1045 686 1045 686 1045 476 c 0,16,17
 1045 338 1045 338 985.5 219.5 c 128,-1,18
 926 101 926 101 822 38 c 128,-1,19
 718 -25 718 -25 586 -25 c 0,20,21
 361 -25 361 -25 219 140.5 c 128,-1,22
 77 306 77 306 77 686 c 0,23,24
 77 1111 77 1111 234 1304 c 0,25,26
 371 1472 371 1472 603 1472 c 0,27,28
 776 1472 776 1472 886.5 1375 c 128,-1,29
 997 1278 997 1278 1019 1107 c 1,0,-1
284 475 m 0,30,31
 284 382 284 382 323.5 297 c 128,-1,32
 363 212 363 212 434 167.5 c 128,-1,33
 505 123 505 123 583 123 c 0,34,35
 697 123 697 123 779 215 c 128,-1,36
 861 307 861 307 861 465 c 0,37,38
 861 617 861 617 780 704.5 c 128,-1,39
 699 792 699 792 576 792 c 0,40,41
 454 792 454 792 369 704.5 c 128,-1,42
 284 617 284 617 284 475 c 0,30,31
EndSplineSet
Validated: 1
EndChar

StartChar: seven
Encoding: 55 55 26
Width: 1139
Flags: W
LayerCount: 2
Fore
SplineSet
97 1274 m 1,0,-1
 97 1447 l 1,1,-1
 1046 1447 l 1,2,-1
 1046 1307 l 1,3,4
 906 1158 906 1158 768.5 911 c 128,-1,5
 631 664 631 664 556 403 c 1,6,7
 502 219 502 219 487 0 c 1,8,-1
 302 0 l 1,9,10
 305 173 305 173 370 418 c 128,-1,11
 435 663 435 663 556.5 890.5 c 128,-1,12
 678 1118 678 1118 815 1274 c 1,13,-1
 97 1274 l 1,0,-1
EndSplineSet
Validated: 1
EndChar

StartChar: eight
Encoding: 56 56 27
Width: 1139
Flags: W
LayerCount: 2
Fore
SplineSet
362 795 m 1,0,1
 250 836 250 836 196 912 c 128,-1,2
 142 988 142 988 142 1094 c 0,3,4
 142 1254 142 1254 257 1363 c 128,-1,5
 372 1472 372 1472 563 1472 c 0,6,7
 755 1472 755 1472 872 1360.5 c 128,-1,8
 989 1249 989 1249 989 1089 c 0,9,10
 989 987 989 987 935.5 911.5 c 128,-1,11
 882 836 882 836 773 795 c 1,12,13
 908 751 908 751 978.5 653 c 128,-1,14
 1049 555 1049 555 1049 419 c 0,15,16
 1049 231 1049 231 916 103 c 128,-1,17
 783 -25 783 -25 566 -25 c 256,18,19
 349 -25 349 -25 216 103.5 c 128,-1,20
 83 232 83 232 83 424 c 0,21,22
 83 567 83 567 155.5 663.5 c 128,-1,23
 228 760 228 760 362 795 c 1,0,1
326 1100 m 0,24,25
 326 996 326 996 393 930 c 128,-1,26
 460 864 460 864 567 864 c 0,27,28
 671 864 671 864 737.5 929.5 c 128,-1,29
 804 995 804 995 804 1090 c 0,30,31
 804 1189 804 1189 735.5 1256.5 c 128,-1,32
 667 1324 667 1324 565 1324 c 0,33,34
 462 1324 462 1324 394 1258 c 128,-1,35
 326 1192 326 1192 326 1100 c 0,24,25
268 423 m 0,36,37
 268 346 268 346 304.5 274 c 128,-1,38
 341 202 341 202 413 162.5 c 128,-1,39
 485 123 485 123 568 123 c 0,40,41
 697 123 697 123 781 206 c 128,-1,42
 865 289 865 289 865 417 c 0,43,44
 865 547 865 547 778.5 632 c 128,-1,45
 692 717 692 717 562 717 c 0,46,47
 435 717 435 717 351.5 633 c 128,-1,48
 268 549 268 549 268 423 c 0,36,37
EndSplineSet
Validated: 1
EndChar

StartChar: nine
Encoding: 57 57 28
Width: 1139
Flags: W
LayerCount: 2
Fore
SplineSet
112 339 m 1,0,-1
 285 355 l 1,1,2
 307 233 307 233 369 178 c 128,-1,3
 431 123 431 123 528 123 c 0,4,5
 611 123 611 123 673.5 161 c 128,-1,6
 736 199 736 199 776 262.5 c 128,-1,7
 816 326 816 326 843 434 c 128,-1,8
 870 542 870 542 870 654 c 0,9,10
 870 666 870 666 869 690 c 1,11,12
 815 604 815 604 721.5 550.5 c 128,-1,13
 628 497 628 497 519 497 c 0,14,15
 337 497 337 497 211 629 c 128,-1,16
 85 761 85 761 85 977 c 0,17,18
 85 1200 85 1200 216.5 1336 c 128,-1,19
 348 1472 348 1472 546 1472 c 0,20,21
 689 1472 689 1472 807.5 1395 c 128,-1,22
 926 1318 926 1318 987.5 1175.5 c 128,-1,23
 1049 1033 1049 1033 1049 763 c 0,24,25
 1049 482 1049 482 988 315.5 c 128,-1,26
 927 149 927 149 806.5 62 c 128,-1,27
 686 -25 686 -25 524 -25 c 0,28,29
 352 -25 352 -25 243 70.5 c 128,-1,30
 134 166 134 166 112 339 c 1,0,-1
849 986 m 256,31,32
 849 1141 849 1141 766.5 1232 c 128,-1,33
 684 1323 684 1323 568 1323 c 0,34,35
 448 1323 448 1323 359 1225 c 128,-1,36
 270 1127 270 1127 270 971 c 0,37,38
 270 831 270 831 354.5 743.5 c 128,-1,39
 439 656 439 656 563 656 c 0,40,41
 688 656 688 656 768.5 743.5 c 128,-1,42
 849 831 849 831 849 986 c 256,31,32
EndSplineSet
Validated: 1
EndChar

StartChar: colon
Encoding: 58 58 29
Width: 569
Flags: W
LayerCount: 2
Fore
SplineSet
185 857 m 1,0,-1
 185 1062 l 1,1,-1
 390 1062 l 1,2,-1
 390 857 l 1,3,-1
 185 857 l 1,0,-1
185 0 m 1,4,-1
 185 205 l 1,5,-1
 390 205 l 1,6,-1
 390 0 l 1,7,-1
 185 0 l 1,4,-1
EndSplineSet
Validated: 1
EndChar

StartChar: semicolon
Encoding: 59 59 30
AltUni2: 00037e.ffffffff.0
Width: 569
Flags: W
LayerCount: 2
Fore
SplineSet
182 857 m 1,0,-1
 182 1062 l 1,1,-1
 387 1062 l 1,2,-1
 387 857 l 1,3,-1
 182 857 l 1,0,-1
182 0 m 1,4,-1
 182 205 l 1,5,-1
 387 205 l 1,6,-1
 387 0 l 2,7,8
 387 -113 387 -113 347 -182.5 c 128,-1,9
 307 -252 307 -252 220 -290 c 1,10,-1
 170 -213 l 1,11,12
 227 -188 227 -188 254 -139.5 c 128,-1,13
 281 -91 281 -91 284 0 c 1,14,-1
 182 0 l 1,4,-1
EndSplineSet
Validated: 1
EndChar

StartChar: less
Encoding: 60 60 31
Width: 1196
Flags: W
LayerCount: 2
Fore
SplineSet
112 641 m 1,0,-1
 112 809 l 1,1,-1
 1083 1219 l 1,2,-1
 1083 1040 l 1,3,-1
 313 724 l 1,4,-1
 1083 405 l 1,5,-1
 1083 226 l 1,6,-1
 112 641 l 1,0,-1
EndSplineSet
Validated: 1
EndChar

StartChar: equal
Encoding: 61 61 32
Width: 1196
Flags: W
LayerCount: 2
Fore
SplineSet
1082 862 m 1,0,-1
 114 862 l 1,1,-1
 114 1030 l 1,2,-1
 1082 1030 l 1,3,-1
 1082 862 l 1,0,-1
1082 417 m 1,4,-1
 114 417 l 1,5,-1
 114 585 l 1,6,-1
 1082 585 l 1,7,-1
 1082 417 l 1,4,-1
EndSplineSet
Validated: 1
EndChar

StartChar: greater
Encoding: 62 62 33
Width: 1196
Flags: W
LayerCount: 2
Fore
SplineSet
1083 641 m 1,0,-1
 112 226 l 1,1,-1
 112 405 l 1,2,-1
 881 724 l 1,3,-1
 112 1040 l 1,4,-1
 112 1219 l 1,5,-1
 1083 809 l 1,6,-1
 1083 641 l 1,0,-1
EndSplineSet
Validated: 1
EndChar

StartChar: question
Encoding: 63 63 34
Width: 1139
Flags: W
LayerCount: 2
Fore
SplineSet
472 361 m 1,0,1
 471 397 471 397 471 415 c 0,2,3
 471 521 471 521 501 598 c 0,4,5
 523 656 523 656 572 715 c 0,6,7
 608 758 608 758 701.5 840.5 c 128,-1,8
 795 923 795 923 823 972 c 128,-1,9
 851 1021 851 1021 851 1079 c 0,10,11
 851 1184 851 1184 769 1263.5 c 128,-1,12
 687 1343 687 1343 568 1343 c 0,13,14
 453 1343 453 1343 376 1271 c 128,-1,15
 299 1199 299 1199 275 1046 c 1,16,-1
 90 1068 l 1,17,18
 115 1273 115 1273 238.5 1382 c 128,-1,19
 362 1491 362 1491 565 1491 c 0,20,21
 780 1491 780 1491 908 1374 c 128,-1,22
 1036 1257 1036 1257 1036 1091 c 0,23,24
 1036 995 1036 995 991 914 c 128,-1,25
 946 833 946 833 815 717 c 0,26,27
 727 639 727 639 700 602 c 128,-1,28
 673 565 673 565 660 517 c 128,-1,29
 647 469 647 469 645 361 c 1,30,-1
 472 361 l 1,0,1
461 0 m 1,31,-1
 461 205 l 1,32,-1
 666 205 l 1,33,-1
 666 0 l 1,34,-1
 461 0 l 1,31,-1
EndSplineSet
Validated: 1
EndChar

StartChar: at
Encoding: 64 64 35
Width: 2079
Flags: W
LayerCount: 2
Fore
SplineSet
1161 163 m 1,0,1
 1096 88 1096 88 1015.5 42.5 c 128,-1,2
 935 -3 935 -3 854 -3 c 0,3,4
 765 -3 765 -3 681 49 c 128,-1,5
 597 101 597 101 544.5 209 c 128,-1,6
 492 317 492 317 492 446 c 0,7,8
 492 605 492 605 573.5 764.5 c 128,-1,9
 655 924 655 924 776 1004 c 128,-1,10
 897 1084 897 1084 1011 1084 c 0,11,12
 1098 1084 1098 1084 1177 1038.5 c 128,-1,13
 1256 993 1256 993 1313 900 c 1,14,-1
 1347 1055 l 1,15,-1
 1526 1055 l 1,16,-1
 1382 384 l 2,17,18
 1352 244 1352 244 1352 229 c 0,19,20
 1352 202 1352 202 1372.5 182.5 c 128,-1,21
 1393 163 1393 163 1422 163 c 0,22,23
 1475 163 1475 163 1561 224 c 0,24,25
 1675 304 1675 304 1741.5 438.5 c 128,-1,26
 1808 573 1808 573 1808 716 c 0,27,28
 1808 883 1808 883 1722.5 1028 c 128,-1,29
 1637 1173 1637 1173 1467.5 1260 c 128,-1,30
 1298 1347 1298 1347 1093 1347 c 0,31,32
 859 1347 859 1347 665.5 1237.5 c 128,-1,33
 472 1128 472 1128 365.5 923.5 c 128,-1,34
 259 719 259 719 259 485 c 0,35,36
 259 240 259 240 365.5 63 c 128,-1,37
 472 -114 472 -114 673.5 -198.5 c 128,-1,38
 875 -283 875 -283 1120 -283 c 0,39,40
 1382 -283 1382 -283 1559 -195 c 128,-1,41
 1736 -107 1736 -107 1824 19 c 1,42,-1
 2005 19 l 1,43,44
 1954 -86 1954 -86 1830 -195 c 128,-1,45
 1706 -304 1706 -304 1535 -367.5 c 128,-1,46
 1364 -431 1364 -431 1123 -431 c 0,47,48
 901 -431 901 -431 713.5 -374 c 128,-1,49
 526 -317 526 -317 394 -202.5 c 128,-1,50
 262 -88 262 -88 195 61 c 0,51,52
 111 250 111 250 111 469 c 0,53,54
 111 713 111 713 211 934 c 0,55,56
 333 1205 333 1205 557.5 1349 c 128,-1,57
 782 1493 782 1493 1102 1493 c 0,58,59
 1350 1493 1350 1493 1547.5 1391.5 c 128,-1,60
 1745 1290 1745 1290 1859 1089 c 0,61,62
 1956 916 1956 916 1956 713 c 0,63,64
 1956 423 1956 423 1752 198 c 0,65,66
 1570 -4 1570 -4 1354 -4 c 0,67,68
 1285 -4 1285 -4 1242.5 17 c 128,-1,69
 1200 38 1200 38 1180 77 c 0,70,71
 1167 102 1167 102 1161 163 c 1,0,1
677 434 m 0,72,73
 677 297 677 297 742 221 c 128,-1,74
 807 145 807 145 891 145 c 0,75,76
 947 145 947 145 1009 178.5 c 128,-1,77
 1071 212 1071 212 1127.5 278 c 128,-1,78
 1184 344 1184 344 1220 445.5 c 128,-1,79
 1256 547 1256 547 1256 649 c 0,80,81
 1256 785 1256 785 1188.5 860 c 128,-1,82
 1121 935 1121 935 1024 935 c 0,83,84
 960 935 960 935 903.5 902.5 c 128,-1,85
 847 870 847 870 794 798 c 128,-1,86
 741 726 741 726 709 623 c 128,-1,87
 677 520 677 520 677 434 c 0,72,73
EndSplineSet
Validated: 1
EndChar

StartChar: glyph36
Encoding: 65 65 36
Width: 1366
Flags: W
LayerCount: 2
Fore
SplineSet
-3 0 m 1,0,-1
 560 1466 l 1,1,-1
 769 1466 l 1,2,-1
 1369 0 l 1,3,-1
 1148 0 l 1,4,-1
 977 444 l 1,5,-1
 364 444 l 1,6,-1
 203 0 l 1,7,-1
 -3 0 l 1,0,-1
420 602 m 1,8,-1
 917 602 l 1,9,-1
 764 1008 l 2,10,11
 694 1193 694 1193 660 1312 c 1,12,13
 632 1171 632 1171 581 1032 c 2,14,-1
 420 602 l 1,8,-1
EndSplineSet
Validated: 1
EndChar

StartChar: B
Encoding: 66 66 37
Width: 1366
Flags: W
LayerCount: 2
Fore
SplineSet
150 0 m 1,0,-1
 150 1466 l 1,1,-1
 700 1466 l 2,2,3
 868 1466 868 1466 969.5 1421.5 c 128,-1,4
 1071 1377 1071 1377 1128.5 1284.5 c 128,-1,5
 1186 1192 1186 1192 1186 1091 c 0,6,7
 1186 997 1186 997 1135 914 c 128,-1,8
 1084 831 1084 831 981 780 c 1,9,10
 1114 741 1114 741 1185.5 647 c 128,-1,11
 1257 553 1257 553 1257 425 c 0,12,13
 1257 322 1257 322 1213.5 233.5 c 128,-1,14
 1170 145 1170 145 1106 97 c 128,-1,15
 1042 49 1042 49 945.5 24.5 c 128,-1,16
 849 0 849 0 709 0 c 2,17,-1
 150 0 l 1,0,-1
344 850 m 1,18,-1
 661 850 l 2,19,20
 790 850 790 850 846 867 c 0,21,22
 920 889 920 889 957.5 940 c 128,-1,23
 995 991 995 991 995 1068 c 0,24,25
 995 1141 995 1141 960 1196.5 c 128,-1,26
 925 1252 925 1252 860 1272.5 c 128,-1,27
 795 1293 795 1293 637 1293 c 2,28,-1
 344 1293 l 1,29,-1
 344 850 l 1,18,-1
344 173 m 1,30,-1
 709 173 l 2,31,32
 803 173 803 173 841 180 c 0,33,34
 908 192 908 192 953 220 c 128,-1,35
 998 248 998 248 1027 301.5 c 128,-1,36
 1056 355 1056 355 1056 425 c 0,37,38
 1056 507 1056 507 1014 567.5 c 128,-1,39
 972 628 972 628 897.5 652.5 c 128,-1,40
 823 677 823 677 683 677 c 2,41,-1
 344 677 l 1,42,-1
 344 173 l 1,30,-1
EndSplineSet
Validated: 1
EndChar

StartChar: C
Encoding: 67 67 38
Width: 1479
Flags: W
LayerCount: 2
Fore
SplineSet
1204 514 m 1,0,-1
 1398 465 l 1,1,2
 1337 226 1337 226 1178.5 100.5 c 128,-1,3
 1020 -25 1020 -25 791 -25 c 0,4,5
 554 -25 554 -25 405.5 71.5 c 128,-1,6
 257 168 257 168 179.5 351 c 128,-1,7
 102 534 102 534 102 744 c 0,8,9
 102 973 102 973 189.5 1143.5 c 128,-1,10
 277 1314 277 1314 438.5 1402.5 c 128,-1,11
 600 1491 600 1491 794 1491 c 0,12,13
 1014 1491 1014 1491 1164 1379 c 128,-1,14
 1314 1267 1314 1267 1373 1064 c 1,15,-1
 1182 1019 l 1,16,17
 1131 1179 1131 1179 1034 1252 c 128,-1,18
 937 1325 937 1325 790 1325 c 0,19,20
 621 1325 621 1325 507.5 1244 c 128,-1,21
 394 1163 394 1163 348 1026.5 c 128,-1,22
 302 890 302 890 302 745 c 0,23,24
 302 558 302 558 356.5 418.5 c 128,-1,25
 411 279 411 279 526 210 c 128,-1,26
 641 141 641 141 775 141 c 0,27,28
 938 141 938 141 1051 235 c 128,-1,29
 1164 329 1164 329 1204 514 c 1,0,-1
EndSplineSet
Validated: 1
EndChar

StartChar: D
Encoding: 68 68 39
Width: 1479
Flags: W
LayerCount: 2
Fore
SplineSet
158 0 m 1,0,-1
 158 1466 l 1,1,-1
 663 1466 l 2,2,3
 834 1466 834 1466 924 1445 c 0,4,5
 1050 1416 1050 1416 1139 1340 c 0,6,7
 1255 1242 1255 1242 1312.5 1089.5 c 128,-1,8
 1370 937 1370 937 1370 741 c 0,9,10
 1370 574 1370 574 1331 445 c 128,-1,11
 1292 316 1292 316 1231 231.5 c 128,-1,12
 1170 147 1170 147 1097.5 98.5 c 128,-1,13
 1025 50 1025 50 922.5 25 c 128,-1,14
 820 0 820 0 687 0 c 2,15,-1
 158 0 l 1,0,-1
352 173 m 1,16,-1
 665 173 l 2,17,18
 810 173 810 173 892.5 200 c 128,-1,19
 975 227 975 227 1024 276 c 0,20,21
 1093 345 1093 345 1131.5 461.5 c 128,-1,22
 1170 578 1170 578 1170 744 c 0,23,24
 1170 974 1170 974 1094.5 1097.5 c 128,-1,25
 1019 1221 1019 1221 911 1263 c 0,26,27
 833 1293 833 1293 660 1293 c 2,28,-1
 352 1293 l 1,29,-1
 352 173 l 1,16,-1
EndSplineSet
Validated: 1
EndChar

StartChar: glyph40
Encoding: 69 69 40
Width: 1366
Flags: W
LayerCount: 2
Fore
SplineSet
162 0 m 1,0,-1
 162 1466 l 1,1,-1
 1222 1466 l 1,2,-1
 1222 1293 l 1,3,-1
 356 1293 l 1,4,-1
 356 844 l 1,5,-1
 1167 844 l 1,6,-1
 1167 672 l 1,7,-1
 356 672 l 1,8,-1
 356 173 l 1,9,-1
 1256 173 l 1,10,-1
 1256 0 l 1,11,-1
 162 0 l 1,0,-1
EndSplineSet
Validated: 1
EndChar

StartChar: F
Encoding: 70 70 41
Width: 1251
Flags: W
LayerCount: 2
Fore
SplineSet
168 0 m 1,0,-1
 168 1466 l 1,1,-1
 1157 1466 l 1,2,-1
 1157 1293 l 1,3,-1
 362 1293 l 1,4,-1
 362 839 l 1,5,-1
 1050 839 l 1,6,-1
 1050 666 l 1,7,-1
 362 666 l 1,8,-1
 362 0 l 1,9,-1
 168 0 l 1,0,-1
EndSplineSet
Validated: 1
EndChar

StartChar: G
Encoding: 71 71 42
Width: 1593
Flags: W
LayerCount: 2
Fore
SplineSet
844 575 m 1,0,-1
 844 747 l 1,1,-1
 1465 748 l 1,2,-1
 1465 204 l 1,3,4
 1322 90 1322 90 1170 32.5 c 128,-1,5
 1018 -25 1018 -25 858 -25 c 0,6,7
 642 -25 642 -25 465.5 67.5 c 128,-1,8
 289 160 289 160 199 335 c 128,-1,9
 109 510 109 510 109 726 c 0,10,11
 109 940 109 940 198.5 1125.5 c 128,-1,12
 288 1311 288 1311 456 1401 c 128,-1,13
 624 1491 624 1491 843 1491 c 0,14,15
 1002 1491 1002 1491 1130.5 1439.5 c 128,-1,16
 1259 1388 1259 1388 1332 1296 c 128,-1,17
 1405 1204 1405 1204 1443 1056 c 1,18,-1
 1268 1008 l 1,19,20
 1235 1120 1235 1120 1186 1184 c 128,-1,21
 1137 1248 1137 1248 1046 1286.5 c 128,-1,22
 955 1325 955 1325 844 1325 c 0,23,24
 711 1325 711 1325 614 1284.5 c 128,-1,25
 517 1244 517 1244 457.5 1178 c 128,-1,26
 398 1112 398 1112 365 1033 c 0,27,28
 309 897 309 897 309 738 c 0,29,30
 309 542 309 542 376.5 410 c 128,-1,31
 444 278 444 278 573 214 c 128,-1,32
 702 150 702 150 847 150 c 0,33,34
 973 150 973 150 1093 198.5 c 128,-1,35
 1213 247 1213 247 1275 302 c 1,36,-1
 1275 575 l 1,37,-1
 844 575 l 1,0,-1
EndSplineSet
Validated: 1
EndChar

StartChar: H
Encoding: 72 72 43
Width: 1479
Flags: W
LayerCount: 2
Fore
SplineSet
164 0 m 1,0,-1
 164 1466 l 1,1,-1
 358 1466 l 1,2,-1
 358 864 l 1,3,-1
 1120 864 l 1,4,-1
 1120 1466 l 1,5,-1
 1314 1466 l 1,6,-1
 1314 0 l 1,7,-1
 1120 0 l 1,8,-1
 1120 691 l 1,9,-1
 358 691 l 1,10,-1
 358 0 l 1,11,-1
 164 0 l 1,0,-1
EndSplineSet
Validated: 1
EndChar

StartChar: glyph44
Encoding: 73 73 44
Width: 569
Flags: W
LayerCount: 2
Fore
SplineSet
191 0 m 1,0,-1
 191 1466 l 1,1,-1
 385 1466 l 1,2,-1
 385 0 l 1,3,-1
 191 0 l 1,0,-1
EndSplineSet
Validated: 1
EndChar

StartChar: J
Encoding: 74 74 45
Width: 1024
Flags: W
LayerCount: 2
Fore
SplineSet
59 416 m 1,0,-1
 234 440 l 1,1,2
 241 272 241 272 297 210 c 128,-1,3
 353 148 353 148 452 148 c 0,4,5
 525 148 525 148 578 181.5 c 128,-1,6
 631 215 631 215 651 272.5 c 128,-1,7
 671 330 671 330 671 456 c 2,8,-1
 671 1466 l 1,9,-1
 865 1466 l 1,10,-1
 865 467 l 2,11,12
 865 283 865 283 820.5 182 c 128,-1,13
 776 81 776 81 679.5 28 c 128,-1,14
 583 -25 583 -25 453 -25 c 0,15,16
 260 -25 260 -25 157.5 86 c 128,-1,17
 55 197 55 197 59 416 c 1,0,-1
EndSplineSet
Validated: 33
EndChar

StartChar: K
Encoding: 75 75 46
Width: 1366
Flags: W
LayerCount: 2
Fore
SplineSet
150 0 m 1,0,-1
 150 1466 l 1,1,-1
 344 1466 l 1,2,-1
 344 739 l 1,3,-1
 1072 1466 l 1,4,-1
 1335 1466 l 1,5,-1
 720 872 l 1,6,-1
 1362 0 l 1,7,-1
 1106 0 l 1,8,-1
 584 742 l 1,9,-1
 344 508 l 1,10,-1
 344 0 l 1,11,-1
 150 0 l 1,0,-1
EndSplineSet
Validated: 1
EndChar

StartChar: L
Encoding: 76 76 47
Width: 1139
Flags: W
LayerCount: 2
Fore
SplineSet
150 0 m 1,0,-1
 150 1466 l 1,1,-1
 344 1466 l 1,2,-1
 344 173 l 1,3,-1
 1066 173 l 1,4,-1
 1066 0 l 1,5,-1
 150 0 l 1,0,-1
EndSplineSet
Validated: 1
EndChar

StartChar: M
Encoding: 77 77 48
Width: 1706
Flags: W
LayerCount: 2
Fore
SplineSet
152 0 m 1,0,-1
 152 1466 l 1,1,-1
 444 1466 l 1,2,-1
 791 428 l 2,3,4
 839 283 839 283 861 211 c 1,5,6
 886 291 886 291 939 446 c 2,7,-1
 1290 1466 l 1,8,-1
 1551 1466 l 1,9,-1
 1551 0 l 1,10,-1
 1364 0 l 1,11,-1
 1364 1227 l 1,12,-1
 938 0 l 1,13,-1
 763 0 l 1,14,-1
 339 1248 l 1,15,-1
 339 0 l 1,16,-1
 152 0 l 1,0,-1
EndSplineSet
Validated: 1
EndChar

StartChar: N
Encoding: 78 78 49
Width: 1479
Flags: W
LayerCount: 2
Fore
SplineSet
156 0 m 1,0,-1
 156 1466 l 1,1,-1
 355 1466 l 1,2,-1
 1125 315 l 1,3,-1
 1125 1466 l 1,4,-1
 1311 1466 l 1,5,-1
 1311 0 l 1,6,-1
 1112 0 l 1,7,-1
 342 1152 l 1,8,-1
 342 0 l 1,9,-1
 156 0 l 1,0,-1
EndSplineSet
Validated: 1
EndChar

StartChar: glyph50
Encoding: 79 79 50
Width: 1593
Flags: W
LayerCount: 2
Fore
SplineSet
99 714 m 0,0,1
 99 1079 99 1079 295 1285.5 c 128,-1,2
 491 1492 491 1492 801 1492 c 0,3,4
 1004 1492 1004 1492 1167 1395 c 128,-1,5
 1330 1298 1330 1298 1415.5 1124.5 c 128,-1,6
 1501 951 1501 951 1501 731 c 0,7,8
 1501 508 1501 508 1411 332 c 128,-1,9
 1321 156 1321 156 1156 65.5 c 128,-1,10
 991 -25 991 -25 800 -25 c 0,11,12
 593 -25 593 -25 430 75 c 128,-1,13
 267 175 267 175 183 348 c 128,-1,14
 99 521 99 521 99 714 c 0,0,1
299 711 m 0,15,16
 299 446 299 446 441.5 293.5 c 128,-1,17
 584 141 584 141 799 141 c 0,18,19
 1018 141 1018 141 1159.5 295 c 128,-1,20
 1301 449 1301 449 1301 732 c 0,21,22
 1301 911 1301 911 1240.5 1044.5 c 128,-1,23
 1180 1178 1180 1178 1063.5 1251.5 c 128,-1,24
 947 1325 947 1325 802 1325 c 0,25,26
 596 1325 596 1325 447.5 1183.5 c 128,-1,27
 299 1042 299 1042 299 711 c 0,15,16
EndSplineSet
Validated: 1
EndChar

StartChar: P
Encoding: 80 80 51
Width: 1366
Flags: W
LayerCount: 2
Fore
SplineSet
158 0 m 1,0,-1
 158 1466 l 1,1,-1
 711 1466 l 2,2,3
 857 1466 857 1466 934 1452 c 1,4,5
 1042 1434 1042 1434 1115 1383.5 c 128,-1,6
 1188 1333 1188 1333 1232.5 1242 c 128,-1,7
 1277 1151 1277 1151 1277 1042 c 0,8,9
 1277 855 1277 855 1158 725.5 c 128,-1,10
 1039 596 1039 596 728 596 c 2,11,-1
 352 596 l 1,12,-1
 352 0 l 1,13,-1
 158 0 l 1,0,-1
352 769 m 1,14,-1
 731 769 l 2,15,16
 919 769 919 769 998 839 c 128,-1,17
 1077 909 1077 909 1077 1036 c 0,18,19
 1077 1128 1077 1128 1030.5 1193.5 c 128,-1,20
 984 1259 984 1259 908 1280 c 0,21,22
 859 1293 859 1293 727 1293 c 2,23,-1
 352 1293 l 1,24,-1
 352 769 l 1,14,-1
EndSplineSet
Validated: 1
EndChar

StartChar: Q
Encoding: 81 81 52
Width: 1593
Flags: W
LayerCount: 2
Fore
SplineSet
1269 157 m 1,0,1
 1404 64 1404 64 1518 21 c 1,2,-1
 1461 -114 l 1,3,4
 1303 -57 1303 -57 1146 66 c 1,5,6
 983 -25 983 -25 786 -25 c 0,7,8
 587 -25 587 -25 425 71 c 128,-1,9
 263 167 263 167 175.5 341 c 128,-1,10
 88 515 88 515 88 733 c 0,11,12
 88 950 88 950 176 1128 c 128,-1,13
 264 1306 264 1306 426.5 1399 c 128,-1,14
 589 1492 589 1492 790 1492 c 0,15,16
 993 1492 993 1492 1156 1395.5 c 128,-1,17
 1319 1299 1319 1299 1404.5 1125.5 c 128,-1,18
 1490 952 1490 952 1490 734 c 0,19,20
 1490 553 1490 553 1435 408.5 c 128,-1,21
 1380 264 1380 264 1269 157 c 1,0,1
842 405 m 1,22,23
 1010 358 1010 358 1119 265 c 1,24,25
 1290 421 1290 421 1290 734 c 0,26,27
 1290 912 1290 912 1229.5 1045 c 128,-1,28
 1169 1178 1169 1178 1052.5 1251.5 c 128,-1,29
 936 1325 936 1325 791 1325 c 0,30,31
 574 1325 574 1325 431 1176.5 c 128,-1,32
 288 1028 288 1028 288 733 c 0,33,34
 288 447 288 447 429.5 294 c 128,-1,35
 571 141 571 141 791 141 c 0,36,37
 895 141 895 141 987 180 c 1,38,39
 896 239 896 239 795 264 c 1,40,-1
 842 405 l 1,22,23
EndSplineSet
Validated: 1
EndChar

StartChar: R
Encoding: 82 82 53
Width: 1479
Flags: W
LayerCount: 2
Fore
SplineSet
161 0 m 1,0,-1
 161 1466 l 1,1,-1
 811 1466 l 2,2,3
 1007 1466 1007 1466 1109 1426.5 c 128,-1,4
 1211 1387 1211 1387 1272 1287 c 128,-1,5
 1333 1187 1333 1187 1333 1066 c 0,6,7
 1333 910 1333 910 1232 803 c 128,-1,8
 1131 696 1131 696 920 667 c 1,9,10
 997 630 997 630 1037 594 c 0,11,12
 1122 516 1122 516 1198 399 c 1,13,-1
 1453 0 l 1,14,-1
 1209 0 l 1,15,-1
 1015 305 l 2,16,17
 930 437 930 437 875 507 c 128,-1,18
 820 577 820 577 776.5 605 c 128,-1,19
 733 633 733 633 688 644 c 1,20,21
 655 651 655 651 580 651 c 2,22,-1
 355 651 l 1,23,-1
 355 0 l 1,24,-1
 161 0 l 1,0,-1
355 819 m 1,25,-1
 772 819 l 2,26,27
 905 819 905 819 980 846.5 c 128,-1,28
 1055 874 1055 874 1094 934.5 c 128,-1,29
 1133 995 1133 995 1133 1066 c 0,30,31
 1133 1170 1133 1170 1057.5 1237 c 128,-1,32
 982 1304 982 1304 819 1304 c 2,33,-1
 355 1304 l 1,34,-1
 355 819 l 1,25,-1
EndSplineSet
Validated: 1
EndChar

StartChar: S
Encoding: 83 83 54
Width: 1366
Flags: W
LayerCount: 2
Fore
SplineSet
92 471 m 1,0,-1
 275 487 l 1,1,2
 288 377 288 377 335.5 306.5 c 128,-1,3
 383 236 383 236 483 192.5 c 128,-1,4
 583 149 583 149 708 149 c 0,5,6
 819 149 819 149 904 182 c 128,-1,7
 989 215 989 215 1030.5 272.5 c 128,-1,8
 1072 330 1072 330 1072 398 c 0,9,10
 1072 467 1072 467 1032 518.5 c 128,-1,11
 992 570 992 570 900 605 c 0,12,13
 841 628 841 628 639 676.5 c 128,-1,14
 437 725 437 725 356 768 c 0,15,16
 251 823 251 823 199.5 904.5 c 128,-1,17
 148 986 148 986 148 1087 c 0,18,19
 148 1198 148 1198 211 1294.5 c 128,-1,20
 274 1391 274 1391 395 1441 c 128,-1,21
 516 1491 516 1491 664 1491 c 0,22,23
 827 1491 827 1491 951.5 1438.5 c 128,-1,24
 1076 1386 1076 1386 1143 1284 c 128,-1,25
 1210 1182 1210 1182 1215 1053 c 1,26,-1
 1029 1039 l 1,27,28
 1014 1178 1014 1178 927.5 1249 c 128,-1,29
 841 1320 841 1320 672 1320 c 0,30,31
 496 1320 496 1320 415.5 1255.5 c 128,-1,32
 335 1191 335 1191 335 1100 c 0,33,34
 335 1021 335 1021 392 970 c 0,35,36
 448 919 448 919 684.5 865.5 c 128,-1,37
 921 812 921 812 1009 772 c 0,38,39
 1137 713 1137 713 1198 622.5 c 128,-1,40
 1259 532 1259 532 1259 414 c 0,41,42
 1259 297 1259 297 1192 193.5 c 128,-1,43
 1125 90 1125 90 999.5 32.5 c 128,-1,44
 874 -25 874 -25 717 -25 c 0,45,46
 518 -25 518 -25 383.5 33 c 128,-1,47
 249 91 249 91 172.5 207.5 c 128,-1,48
 96 324 96 324 92 471 c 1,0,-1
EndSplineSet
Validated: 1
EndChar

StartChar: T
Encoding: 84 84 55
Width: 1251
Flags: W
LayerCount: 2
Fore
SplineSet
531 0 m 1,0,-1
 531 1293 l 1,1,-1
 48 1293 l 1,2,-1
 48 1466 l 1,3,-1
 1210 1466 l 1,4,-1
 1210 1293 l 1,5,-1
 725 1293 l 1,6,-1
 725 0 l 1,7,-1
 531 0 l 1,0,-1
EndSplineSet
Validated: 1
EndChar

StartChar: glyph56
Encoding: 85 85 56
Width: 1479
Flags: W
LayerCount: 2
Fore
SplineSet
1120 1466 m 1,0,-1
 1314 1466 l 1,1,-1
 1314 619 l 2,2,3
 1314 398 1314 398 1264 268 c 128,-1,4
 1214 138 1214 138 1083.5 56.5 c 128,-1,5
 953 -25 953 -25 741 -25 c 0,6,7
 535 -25 535 -25 404 46 c 128,-1,8
 273 117 273 117 217 251.5 c 128,-1,9
 161 386 161 386 161 619 c 2,10,-1
 161 1466 l 1,11,-1
 355 1466 l 1,12,-1
 355 620 l 2,13,14
 355 429 355 429 390.5 338.5 c 128,-1,15
 426 248 426 248 512.5 199 c 128,-1,16
 599 150 599 150 724 150 c 0,17,18
 938 150 938 150 1029 247 c 128,-1,19
 1120 344 1120 344 1120 620 c 2,20,-1
 1120 1466 l 1,0,-1
EndSplineSet
Validated: 1
EndChar

StartChar: V
Encoding: 86 86 57
Width: 1366
Flags: W
LayerCount: 2
Fore
SplineSet
577 0 m 1,0,-1
 9 1466 l 1,1,-1
 219 1466 l 1,2,-1
 600 401 l 2,3,4
 646 273 646 273 677 161 c 1,5,6
 711 281 711 281 756 401 c 2,7,-1
 1152 1466 l 1,8,-1
 1350 1466 l 1,9,-1
 776 0 l 1,10,-1
 577 0 l 1,0,-1
EndSplineSet
Validated: 1
EndChar

StartChar: W
Encoding: 87 87 58
Width: 1933
Flags: W
LayerCount: 2
Fore
SplineSet
414 0 m 1,0,-1
 25 1466 l 1,1,-1
 224 1466 l 1,2,-1
 447 505 l 2,3,4
 483 354 483 354 509 205 c 1,5,6
 565 440 565 440 575 476 c 2,7,-1
 854 1466 l 1,8,-1
 1088 1466 l 1,9,-1
 1298 724 l 2,10,11
 1377 448 1377 448 1412 205 c 1,12,13
 1440 344 1440 344 1485 524 c 1,14,-1
 1715 1466 l 1,15,-1
 1910 1466 l 1,16,-1
 1508 0 l 1,17,-1
 1321 0 l 1,18,-1
 1012 1117 l 2,19,20
 973 1257 973 1257 966 1289 c 1,21,22
 943 1188 943 1188 923 1117 c 2,23,-1
 612 0 l 1,24,-1
 414 0 l 1,0,-1
EndSplineSet
Validated: 1
EndChar

StartChar: X
Encoding: 88 88 59
Width: 1366
Flags: W
LayerCount: 2
Fore
SplineSet
9 0 m 1,0,-1
 576 764 l 1,1,-1
 76 1466 l 1,2,-1
 307 1466 l 1,3,-1
 573 1090 l 2,4,5
 656 973 656 973 691 910 c 1,6,7
 740 990 740 990 807 1077 c 2,8,-1
 1102 1466 l 1,9,-1
 1313 1466 l 1,10,-1
 798 775 l 1,11,-1
 1353 0 l 1,12,-1
 1113 0 l 1,13,-1
 744 523 l 2,14,15
 713 568 713 568 680 621 c 1,16,17
 631 541 631 541 610 511 c 2,18,-1
 242 0 l 1,19,-1
 9 0 l 1,0,-1
EndSplineSet
Validated: 1
EndChar

StartChar: Y
Encoding: 89 89 60
Width: 1366
Flags: W
LayerCount: 2
Fore
SplineSet
571 0 m 1,0,-1
 571 621 l 1,1,-1
 6 1466 l 1,2,-1
 242 1466 l 1,3,-1
 531 1024 l 2,4,5
 611 900 611 900 680 776 c 1,6,7
 746 891 746 891 840 1035 c 2,8,-1
 1124 1466 l 1,9,-1
 1350 1466 l 1,10,-1
 765 621 l 1,11,-1
 765 0 l 1,12,-1
 571 0 l 1,0,-1
EndSplineSet
Validated: 1
EndChar

StartChar: Z
Encoding: 90 90 61
Width: 1251
Flags: W
LayerCount: 2
Fore
SplineSet
41 0 m 1,0,-1
 41 180 l 1,1,-1
 792 1119 l 2,2,3
 872 1219 872 1219 944 1293 c 1,4,-1
 126 1293 l 1,5,-1
 126 1466 l 1,6,-1
 1176 1466 l 1,7,-1
 1176 1293 l 1,8,-1
 353 276 l 1,9,-1
 264 173 l 1,10,-1
 1200 173 l 1,11,-1
 1200 0 l 1,12,-1
 41 0 l 1,0,-1
EndSplineSet
Validated: 1
EndChar

StartChar: bracketleft
Encoding: 91 91 62
Width: 569
Flags: W
LayerCount: 2
Fore
SplineSet
139 -407 m 1,0,-1
 139 1466 l 1,1,-1
 536 1466 l 1,2,-1
 536 1317 l 1,3,-1
 319 1317 l 1,4,-1
 319 -258 l 1,5,-1
 536 -258 l 1,6,-1
 536 -407 l 1,7,-1
 139 -407 l 1,0,-1
EndSplineSet
Validated: 1
EndChar

StartChar: backslash
Encoding: 92 92 63
Width: 569
Flags: W
LayerCount: 2
Fore
SplineSet
425 -25 m 1,0,-1
 0 1491 l 1,1,-1
 145 1491 l 1,2,-1
 569 -25 l 1,3,-1
 425 -25 l 1,0,-1
EndSplineSet
Validated: 1
EndChar

StartChar: bracketright
Encoding: 93 93 64
Width: 569
Flags: W
LayerCount: 2
Fore
SplineSet
436 -407 m 1,0,-1
 39 -407 l 1,1,-1
 39 -258 l 1,2,-1
 256 -258 l 1,3,-1
 256 1317 l 1,4,-1
 39 1317 l 1,5,-1
 39 1466 l 1,6,-1
 436 1466 l 1,7,-1
 436 -407 l 1,0,-1
EndSplineSet
Validated: 1
EndChar

StartChar: asciicircum
Encoding: 94 94 65
Width: 961
Flags: W
LayerCount: 2
Fore
SplineSet
239 690 m 1,0,-1
 54 690 l 1,1,-1
 407 1491 l 1,2,-1
 552 1491 l 1,3,-1
 907 690 l 1,4,-1
 726 690 l 1,5,-1
 479 1287 l 1,6,-1
 239 690 l 1,0,-1
EndSplineSet
Validated: 1
EndChar

StartChar: underscore
Encoding: 95 95 66
Width: 1139
Flags: W
LayerCount: 2
Fore
SplineSet
-31 -407 m 1,0,-1
 -31 -277 l 1,1,-1
 1162 -277 l 1,2,-1
 1162 -407 l 1,3,-1
 -31 -407 l 1,0,-1
EndSplineSet
Validated: 1
EndChar

StartChar: grave
Encoding: 96 96 67
Width: 682
Flags: W
LayerCount: 2
Fore
SplineSet
465 1194 m 1,0,-1
 320 1194 l 1,1,-1
 89 1474 l 1,2,-1
 330 1474 l 1,3,-1
 465 1194 l 1,0,-1
EndSplineSet
Validated: 1
EndChar

StartChar: a
Encoding: 97 97 68
Width: 1139
Flags: W
LayerCount: 2
Fore
SplineSet
828 131 m 1,0,1
 728 46 728 46 635.5 11 c 128,-1,2
 543 -24 543 -24 437 -24 c 0,3,4
 262 -24 262 -24 168 61.5 c 128,-1,5
 74 147 74 147 74 280 c 0,6,7
 74 358 74 358 109.5 422.5 c 128,-1,8
 145 487 145 487 202.5 526 c 128,-1,9
 260 565 260 565 332 585 c 0,10,11
 385 599 385 599 492 612 c 0,12,13
 710 638 710 638 813 674 c 1,14,15
 814 711 814 711 814 721 c 0,16,17
 814 831 814 831 763 876 c 0,18,19
 694 937 694 937 558 937 c 0,20,21
 431 937 431 937 370.5 892.5 c 128,-1,22
 310 848 310 848 281 735 c 1,23,-1
 105 759 l 1,24,25
 129 872 129 872 184 941.5 c 128,-1,26
 239 1011 239 1011 343 1048.5 c 128,-1,27
 447 1086 447 1086 584 1086 c 0,28,29
 720 1086 720 1086 805 1054 c 128,-1,30
 890 1022 890 1022 930 973.5 c 128,-1,31
 970 925 970 925 986 851 c 0,32,33
 995 805 995 805 995 685 c 2,34,-1
 995 445 l 2,35,36
 995 194 995 194 1006.5 127.5 c 128,-1,37
 1018 61 1018 61 1052 0 c 1,38,-1
 864 0 l 1,39,40
 836 56 836 56 828 131 c 1,0,1
813 533 m 1,41,42
 715 493 715 493 519 465 c 0,43,44
 408 449 408 449 362 429 c 128,-1,45
 316 409 316 409 291 370.5 c 128,-1,46
 266 332 266 332 266 285 c 0,47,48
 266 213 266 213 320.5 165 c 128,-1,49
 375 117 375 117 480 117 c 0,50,51
 584 117 584 117 665 162.5 c 128,-1,52
 746 208 746 208 784 287 c 0,53,54
 813 348 813 348 813 467 c 2,55,-1
 813 533 l 1,41,42
EndSplineSet
Validated: 1
EndChar

StartChar: b
Encoding: 98 98 69
Width: 1139
Flags: W
LayerCount: 2
Fore
SplineSet
301 0 m 1,0,-1
 134 0 l 1,1,-1
 134 1466 l 1,2,-1
 314 1466 l 1,3,-1
 314 943 l 1,4,5
 428 1086 428 1086 605 1086 c 0,6,7
 703 1086 703 1086 790.5 1046.5 c 128,-1,8
 878 1007 878 1007 934.5 935.5 c 128,-1,9
 991 864 991 864 1023 763 c 128,-1,10
 1055 662 1055 662 1055 547 c 0,11,12
 1055 274 1055 274 920 125 c 128,-1,13
 785 -24 785 -24 596 -24 c 0,14,15
 408 -24 408 -24 301 133 c 1,16,-1
 301 0 l 1,0,-1
299 539 m 0,17,18
 299 348 299 348 351 263 c 0,19,20
 436 124 436 124 581 124 c 0,21,22
 699 124 699 124 785 226.5 c 128,-1,23
 871 329 871 329 871 532 c 0,24,25
 871 740 871 740 788.5 839 c 128,-1,26
 706 938 706 938 589 938 c 0,27,28
 471 938 471 938 385 835.5 c 128,-1,29
 299 733 299 733 299 539 c 0,17,18
EndSplineSet
Validated: 1
EndChar

StartChar: c
Encoding: 99 99 70
Width: 1024
Flags: W
LayerCount: 2
Fore
SplineSet
828 389 m 1,0,-1
 1005 366 l 1,1,2
 976 183 976 183 856.5 79.5 c 128,-1,3
 737 -24 737 -24 563 -24 c 0,4,5
 345 -24 345 -24 212.5 118.5 c 128,-1,6
 80 261 80 261 80 527 c 0,7,8
 80 699 80 699 137 828 c 128,-1,9
 194 957 194 957 310.5 1021.5 c 128,-1,10
 427 1086 427 1086 564 1086 c 0,11,12
 737 1086 737 1086 847 998.5 c 128,-1,13
 957 911 957 911 988 750 c 1,14,-1
 813 723 l 1,15,16
 788 830 788 830 724.5 884 c 128,-1,17
 661 938 661 938 571 938 c 0,18,19
 435 938 435 938 350 840.5 c 128,-1,20
 265 743 265 743 265 532 c 0,21,22
 265 318 265 318 347 221 c 128,-1,23
 429 124 429 124 561 124 c 0,24,25
 667 124 667 124 738 189 c 128,-1,26
 809 254 809 254 828 389 c 1,0,-1
EndSplineSet
Validated: 1
EndChar

StartChar: d
Encoding: 100 100 71
Width: 1139
Flags: W
LayerCount: 2
Fore
SplineSet
824 0 m 1,0,-1
 824 134 l 1,1,2
 723 -24 723 -24 527 -24 c 0,3,4
 400 -24 400 -24 293.5 46 c 128,-1,5
 187 116 187 116 128.5 241.5 c 128,-1,6
 70 367 70 367 70 530 c 0,7,8
 70 689 70 689 123 818.5 c 128,-1,9
 176 948 176 948 282 1017 c 128,-1,10
 388 1086 388 1086 519 1086 c 0,11,12
 615 1086 615 1086 690 1045.5 c 128,-1,13
 765 1005 765 1005 812 940 c 1,14,-1
 812 1466 l 1,15,-1
 991 1466 l 1,16,-1
 991 0 l 1,17,-1
 824 0 l 1,0,-1
255 530 m 0,18,19
 255 326 255 326 341 225 c 128,-1,20
 427 124 427 124 544 124 c 0,21,22
 662 124 662 124 744.5 220.5 c 128,-1,23
 827 317 827 317 827 515 c 0,24,25
 827 733 827 733 743 835 c 128,-1,26
 659 937 659 937 536 937 c 0,27,28
 416 937 416 937 335.5 839 c 128,-1,29
 255 741 255 741 255 530 c 0,18,19
EndSplineSet
Validated: 1
EndChar

StartChar: e
Encoding: 101 101 72
Width: 1139
Flags: W
LayerCount: 2
Fore
SplineSet
862 342 m 1,0,-1
 1048 319 l 1,1,2
 1004 156 1004 156 885 66 c 128,-1,3
 766 -24 766 -24 581 -24 c 0,4,5
 348 -24 348 -24 211.5 119.5 c 128,-1,6
 75 263 75 263 75 522 c 0,7,8
 75 790 75 790 213 938 c 128,-1,9
 351 1086 351 1086 571 1086 c 0,10,11
 784 1086 784 1086 919 941 c 128,-1,12
 1054 796 1054 796 1054 533 c 0,13,14
 1054 517 1054 517 1053 485 c 1,15,-1
 261 485 l 1,16,17
 271 310 271 310 360 217 c 128,-1,18
 449 124 449 124 582 124 c 0,19,20
 681 124 681 124 751 176 c 128,-1,21
 821 228 821 228 862 342 c 1,0,-1
271 633 m 1,22,-1
 864 633 l 1,23,24
 852 767 852 767 796 834 c 0,25,26
 710 938 710 938 573 938 c 0,27,28
 449 938 449 938 364.5 855 c 128,-1,29
 280 772 280 772 271 633 c 1,22,-1
EndSplineSet
Validated: 1
EndChar

StartChar: f
Encoding: 102 102 73
Width: 569
Flags: W
LayerCount: 2
Fore
SplineSet
178 0 m 1,0,-1
 178 922 l 1,1,-1
 19 922 l 1,2,-1
 19 1062 l 1,3,-1
 178 1062 l 1,4,-1
 178 1175 l 2,5,6
 178 1282 178 1282 197 1334 c 0,7,8
 223 1404 223 1404 288.5 1447.5 c 128,-1,9
 354 1491 354 1491 472 1491 c 0,10,11
 548 1491 548 1491 640 1473 c 1,12,-1
 613 1316 l 1,13,14
 557 1326 557 1326 507 1326 c 0,15,16
 425 1326 425 1326 391 1291 c 128,-1,17
 357 1256 357 1256 357 1160 c 2,18,-1
 357 1062 l 1,19,-1
 564 1062 l 1,20,-1
 564 922 l 1,21,-1
 357 922 l 1,22,-1
 357 0 l 1,23,-1
 178 0 l 1,0,-1
EndSplineSet
Validated: 1
EndChar

StartChar: g
Encoding: 103 103 74
Width: 1139
Flags: W
LayerCount: 2
Fore
SplineSet
102 -88 m 1,0,-1
 277 -114 l 1,1,2
 288 -195 288 -195 338 -232 c 0,3,4
 405 -282 405 -282 521 -282 c 0,5,6
 646 -282 646 -282 714 -232 c 128,-1,7
 782 -182 782 -182 806 -92 c 0,8,9
 820 -37 820 -37 819 139 c 1,10,11
 701 0 701 0 525 0 c 0,12,13
 306 0 306 0 186 158 c 128,-1,14
 66 316 66 316 66 537 c 0,15,16
 66 689 66 689 121 817.5 c 128,-1,17
 176 946 176 946 280.5 1016 c 128,-1,18
 385 1086 385 1086 526 1086 c 0,19,20
 714 1086 714 1086 836 934 c 1,21,-1
 836 1062 l 1,22,-1
 1002 1062 l 1,23,-1
 1002 144 l 2,24,25
 1002 -104 1002 -104 951.5 -207.5 c 128,-1,26
 901 -311 901 -311 791.5 -371 c 128,-1,27
 682 -431 682 -431 522 -431 c 0,28,29
 332 -431 332 -431 215 -345.5 c 128,-1,30
 98 -260 98 -260 102 -88 c 1,0,-1
251 550 m 0,31,32
 251 341 251 341 334 245 c 128,-1,33
 417 149 417 149 542 149 c 0,34,35
 666 149 666 149 750 244.5 c 128,-1,36
 834 340 834 340 834 544 c 0,37,38
 834 739 834 739 747.5 838 c 128,-1,39
 661 937 661 937 539 937 c 0,40,41
 419 937 419 937 335 839.5 c 128,-1,42
 251 742 251 742 251 550 c 0,31,32
EndSplineSet
Validated: 33
EndChar

StartChar: h
Encoding: 104 104 75
Width: 1139
Flags: W
LayerCount: 2
Fore
SplineSet
135 0 m 1,0,-1
 135 1466 l 1,1,-1
 315 1466 l 1,2,-1
 315 940 l 1,3,4
 441 1086 441 1086 633 1086 c 0,5,6
 751 1086 751 1086 838 1039.5 c 128,-1,7
 925 993 925 993 962.5 911 c 128,-1,8
 1000 829 1000 829 1000 673 c 2,9,-1
 1000 0 l 1,10,-1
 820 0 l 1,11,-1
 820 673 l 2,12,13
 820 808 820 808 761.5 869.5 c 128,-1,14
 703 931 703 931 596 931 c 0,15,16
 516 931 516 931 445.5 889.5 c 128,-1,17
 375 848 375 848 345 777 c 128,-1,18
 315 706 315 706 315 581 c 2,19,-1
 315 0 l 1,20,-1
 135 0 l 1,0,-1
EndSplineSet
Validated: 1
EndChar

StartChar: i
Encoding: 105 105 76
Width: 455
Flags: W
LayerCount: 2
Fore
SplineSet
136 1259 m 1,0,-1
 136 1466 l 1,1,-1
 316 1466 l 1,2,-1
 316 1259 l 1,3,-1
 136 1259 l 1,0,-1
136 0 m 1,4,-1
 136 1062 l 1,5,-1
 316 1062 l 1,6,-1
 316 0 l 1,7,-1
 136 0 l 1,4,-1
EndSplineSet
Validated: 1
EndChar

StartChar: j
Encoding: 106 106 77
Width: 455
Flags: W
LayerCount: 2
Fore
SplineSet
134 1257 m 1,0,-1
 134 1466 l 1,1,-1
 314 1466 l 1,2,-1
 314 1257 l 1,3,-1
 134 1257 l 1,0,-1
-94 -412 m 1,4,-1
 -60 -259 l 1,5,6
 -6 -273 -6 -273 25 -273 c 0,7,8
 80 -273 80 -273 107 -236.5 c 128,-1,9
 134 -200 134 -200 134 -54 c 2,10,-1
 134 1062 l 1,11,-1
 314 1062 l 1,12,-1
 314 -58 l 2,13,14
 314 -254 314 -254 263 -331 c 0,15,16
 198 -431 198 -431 47 -431 c 0,17,18
 -26 -431 -26 -431 -94 -412 c 1,4,-1
EndSplineSet
Validated: 1
EndChar

StartChar: k
Encoding: 107 107 78
Width: 1024
Flags: W
LayerCount: 2
Fore
SplineSet
136 0 m 1,0,-1
 136 1466 l 1,1,-1
 316 1466 l 1,2,-1
 316 630 l 1,3,-1
 742 1062 l 1,4,-1
 975 1062 l 1,5,-1
 569 668 l 1,6,-1
 1016 0 l 1,7,-1
 794 0 l 1,8,-1
 443 543 l 1,9,-1
 316 421 l 1,10,-1
 316 0 l 1,11,-1
 136 0 l 1,0,-1
EndSplineSet
Validated: 1
EndChar

StartChar: l
Encoding: 108 108 79
Width: 455
Flags: W
LayerCount: 2
Fore
SplineSet
131 0 m 1,0,-1
 131 1466 l 1,1,-1
 311 1466 l 1,2,-1
 311 0 l 1,3,-1
 131 0 l 1,0,-1
EndSplineSet
Validated: 1
EndChar

StartChar: m
Encoding: 109 109 80
Width: 1706
Flags: W
LayerCount: 2
Fore
SplineSet
135 0 m 1,0,-1
 135 1062 l 1,1,-1
 296 1062 l 1,2,-1
 296 913 l 1,3,4
 346 991 346 991 429 1038.5 c 128,-1,5
 512 1086 512 1086 618 1086 c 0,6,7
 736 1086 736 1086 811.5 1037 c 128,-1,8
 887 988 887 988 918 900 c 1,9,10
 1044 1086 1044 1086 1246 1086 c 0,11,12
 1404 1086 1404 1086 1489 998.5 c 128,-1,13
 1574 911 1574 911 1574 729 c 2,14,-1
 1574 0 l 1,15,-1
 1395 0 l 1,16,-1
 1395 669 l 2,17,18
 1395 777 1395 777 1377.5 824.5 c 128,-1,19
 1360 872 1360 872 1314 901 c 128,-1,20
 1268 930 1268 930 1206 930 c 0,21,22
 1094 930 1094 930 1020 855.5 c 128,-1,23
 946 781 946 781 946 617 c 2,24,-1
 946 0 l 1,25,-1
 766 0 l 1,26,-1
 766 690 l 2,27,28
 766 810 766 810 722 870 c 128,-1,29
 678 930 678 930 578 930 c 0,30,31
 502 930 502 930 437.5 890 c 128,-1,32
 373 850 373 850 344 773 c 128,-1,33
 315 696 315 696 315 551 c 2,34,-1
 315 0 l 1,35,-1
 135 0 l 1,0,-1
EndSplineSet
Validated: 1
EndChar

StartChar: n
Encoding: 110 110 81
Width: 1139
Flags: W
LayerCount: 2
Fore
SplineSet
135 0 m 1,0,-1
 135 1062 l 1,1,-1
 297 1062 l 1,2,-1
 297 911 l 1,3,4
 414 1086 414 1086 635 1086 c 0,5,6
 731 1086 731 1086 811.5 1051.5 c 128,-1,7
 892 1017 892 1017 932 961 c 128,-1,8
 972 905 972 905 988 828 c 0,9,10
 998 778 998 778 998 653 c 2,11,-1
 998 0 l 1,12,-1
 818 0 l 1,13,-1
 818 646 l 2,14,15
 818 756 818 756 797 810.5 c 128,-1,16
 776 865 776 865 722.5 897.5 c 128,-1,17
 669 930 669 930 597 930 c 0,18,19
 482 930 482 930 398.5 857 c 128,-1,20
 315 784 315 784 315 580 c 2,21,-1
 315 0 l 1,22,-1
 135 0 l 1,0,-1
EndSplineSet
Validated: 1
EndChar

StartChar: o
Encoding: 111 111 82
Width: 1139
Flags: W
LayerCount: 2
Fore
SplineSet
68 531 m 0,0,1
 68 826 68 826 232 968 c 0,2,3
 369 1086 369 1086 566 1086 c 0,4,5
 785 1086 785 1086 924 942.5 c 128,-1,6
 1063 799 1063 799 1063 546 c 0,7,8
 1063 341 1063 341 1001.5 223.5 c 128,-1,9
 940 106 940 106 822.5 41 c 128,-1,10
 705 -24 705 -24 566 -24 c 0,11,12
 343 -24 343 -24 205.5 119 c 128,-1,13
 68 262 68 262 68 531 c 0,0,1
253 531 m 256,14,15
 253 327 253 327 342 225.5 c 128,-1,16
 431 124 431 124 566 124 c 0,17,18
 700 124 700 124 789 226 c 128,-1,19
 878 328 878 328 878 537 c 0,20,21
 878 734 878 734 788.5 835.5 c 128,-1,22
 699 937 699 937 566 937 c 0,23,24
 431 937 431 937 342 836 c 128,-1,25
 253 735 253 735 253 531 c 256,14,15
EndSplineSet
Validated: 1
EndChar

StartChar: p
Encoding: 112 112 83
Width: 1139
Flags: W
LayerCount: 2
Fore
SplineSet
135 -407 m 1,0,-1
 135 1062 l 1,1,-1
 299 1062 l 1,2,-1
 299 924 l 1,3,4
 357 1005 357 1005 430 1045.5 c 128,-1,5
 503 1086 503 1086 607 1086 c 0,6,7
 743 1086 743 1086 847 1016 c 128,-1,8
 951 946 951 946 1004 818.5 c 128,-1,9
 1057 691 1057 691 1057 539 c 0,10,11
 1057 376 1057 376 998.5 245.5 c 128,-1,12
 940 115 940 115 828.5 45.5 c 128,-1,13
 717 -24 717 -24 594 -24 c 0,14,15
 504 -24 504 -24 432.5 14 c 128,-1,16
 361 52 361 52 315 110 c 1,17,-1
 315 -407 l 1,18,-1
 135 -407 l 1,0,-1
298 525 m 256,19,20
 298 320 298 320 381 222 c 128,-1,21
 464 124 464 124 582 124 c 0,22,23
 702 124 702 124 787.5 225.5 c 128,-1,24
 873 327 873 327 873 540 c 0,25,26
 873 743 873 743 789.5 844 c 128,-1,27
 706 945 706 945 590 945 c 0,28,29
 475 945 475 945 386.5 837.5 c 128,-1,30
 298 730 298 730 298 525 c 256,19,20
EndSplineSet
Validated: 1
EndChar

StartChar: q
Encoding: 113 113 84
Width: 1139
Flags: W
LayerCount: 2
Fore
SplineSet
812 -407 m 1,0,-1
 812 113 l 1,1,2
 770 54 770 54 694.5 15 c 128,-1,3
 619 -24 619 -24 534 -24 c 0,4,5
 345 -24 345 -24 208.5 127 c 128,-1,6
 72 278 72 278 72 541 c 0,7,8
 72 701 72 701 127.5 828 c 128,-1,9
 183 955 183 955 288.5 1020.5 c 128,-1,10
 394 1086 394 1086 520 1086 c 0,11,12
 717 1086 717 1086 830 920 c 1,13,-1
 830 1062 l 1,14,-1
 992 1062 l 1,15,-1
 992 -407 l 1,16,-1
 812 -407 l 1,0,-1
257 534 m 0,17,18
 257 329 257 329 343 226.5 c 128,-1,19
 429 124 429 124 549 124 c 0,20,21
 664 124 664 124 747 221.5 c 128,-1,22
 830 319 830 319 830 518 c 0,23,24
 830 730 830 730 742.5 837 c 128,-1,25
 655 944 655 944 537 944 c 0,26,27
 420 944 420 944 338.5 844.5 c 128,-1,28
 257 745 257 745 257 534 c 0,17,18
EndSplineSet
Validated: 1
EndChar

StartChar: r
Encoding: 114 114 85
Width: 682
Flags: W
LayerCount: 2
Fore
SplineSet
133 0 m 1,0,-1
 133 1062 l 1,1,-1
 295 1062 l 1,2,-1
 295 901 l 1,3,4
 357 1014 357 1014 409.5 1050 c 128,-1,5
 462 1086 462 1086 525 1086 c 0,6,7
 616 1086 616 1086 710 1028 c 1,8,-1
 648 861 l 1,9,10
 582 900 582 900 516 900 c 0,11,12
 457 900 457 900 410 864.5 c 128,-1,13
 363 829 363 829 343 766 c 0,14,15
 313 670 313 670 313 556 c 2,16,-1
 313 0 l 1,17,-1
 133 0 l 1,0,-1
EndSplineSet
Validated: 1
EndChar

StartChar: s
Encoding: 115 115 86
Width: 1024
Flags: W
LayerCount: 2
Fore
SplineSet
63 317 m 1,0,-1
 241 345 l 1,1,2
 256 238 256 238 324.5 181 c 128,-1,3
 393 124 393 124 516 124 c 0,4,5
 640 124 640 124 700 174.5 c 128,-1,6
 760 225 760 225 760 293 c 0,7,8
 760 354 760 354 707 389 c 0,9,10
 670 413 670 413 523 450 c 0,11,12
 325 500 325 500 248.5 536.5 c 128,-1,13
 172 573 172 573 132.5 637.5 c 128,-1,14
 93 702 93 702 93 780 c 0,15,16
 93 851 93 851 125.5 911.5 c 128,-1,17
 158 972 158 972 214 1012 c 0,18,19
 256 1043 256 1043 328.5 1064.5 c 128,-1,20
 401 1086 401 1086 484 1086 c 0,21,22
 609 1086 609 1086 703.5 1050 c 128,-1,23
 798 1014 798 1014 843 952.5 c 128,-1,24
 888 891 888 891 905 788 c 1,25,-1
 729 764 l 1,26,27
 717 846 717 846 659.5 892 c 128,-1,28
 602 938 602 938 497 938 c 0,29,30
 373 938 373 938 320 897 c 128,-1,31
 267 856 267 856 267 801 c 0,32,33
 267 766 267 766 289 738 c 0,34,35
 311 709 311 709 358 690 c 0,36,37
 385 680 385 680 517 644 c 0,38,39
 708 593 708 593 783.5 560.5 c 128,-1,40
 859 528 859 528 902 466 c 128,-1,41
 945 404 945 404 945 312 c 0,42,43
 945 222 945 222 892.5 142.5 c 128,-1,44
 840 63 840 63 741 19.5 c 128,-1,45
 642 -24 642 -24 517 -24 c 0,46,47
 310 -24 310 -24 201.5 62 c 128,-1,48
 93 148 93 148 63 317 c 1,0,-1
EndSplineSet
Validated: 1
EndChar

StartChar: t
Encoding: 116 116 87
Width: 569
Flags: W
LayerCount: 2
Fore
SplineSet
528 161 m 1,0,-1
 554 2 l 1,1,2
 478 -14 478 -14 418 -14 c 0,3,4
 320 -14 320 -14 266 17 c 128,-1,5
 212 48 212 48 190 98.5 c 128,-1,6
 168 149 168 149 168 311 c 2,7,-1
 168 922 l 1,8,-1
 36 922 l 1,9,-1
 36 1062 l 1,10,-1
 168 1062 l 1,11,-1
 168 1325 l 1,12,-1
 347 1433 l 1,13,-1
 347 1062 l 1,14,-1
 528 1062 l 1,15,-1
 528 922 l 1,16,-1
 347 922 l 1,17,-1
 347 301 l 2,18,19
 347 224 347 224 356.5 202 c 128,-1,20
 366 180 366 180 387.5 167 c 128,-1,21
 409 154 409 154 449 154 c 0,22,23
 479 154 479 154 528 161 c 1,0,-1
EndSplineSet
Validated: 1
EndChar

StartChar: u
Encoding: 117 117 88
Width: 1139
Flags: W
LayerCount: 2
Fore
SplineSet
831 0 m 1,0,-1
 831 156 l 1,1,2
 707 -24 707 -24 494 -24 c 0,3,4
 400 -24 400 -24 318.5 12 c 128,-1,5
 237 48 237 48 197.5 102.5 c 128,-1,6
 158 157 158 157 142 236 c 0,7,8
 131 289 131 289 131 404 c 2,9,-1
 131 1062 l 1,10,-1
 311 1062 l 1,11,-1
 311 473 l 2,12,13
 311 332 311 332 322 283 c 0,14,15
 339 212 339 212 394 171.5 c 128,-1,16
 449 131 449 131 530 131 c 256,17,18
 611 131 611 131 682 172.5 c 128,-1,19
 753 214 753 214 782.5 285.5 c 128,-1,20
 812 357 812 357 812 493 c 2,21,-1
 812 1062 l 1,22,-1
 992 1062 l 1,23,-1
 992 0 l 1,24,-1
 831 0 l 1,0,-1
EndSplineSet
Validated: 1
EndChar

StartChar: v
Encoding: 118 118 89
Width: 1024
Flags: W
LayerCount: 2
Fore
SplineSet
430 0 m 1,0,-1
 26 1062 l 1,1,-1
 216 1062 l 1,2,-1
 444 426 l 2,3,4
 481 323 481 323 512 212 c 1,5,6
 536 296 536 296 579 414 c 2,7,-1
 815 1062 l 1,8,-1
 1000 1062 l 1,9,-1
 598 0 l 1,10,-1
 430 0 l 1,0,-1
EndSplineSet
Validated: 1
EndChar

StartChar: w
Encoding: 119 119 90
Width: 1479
Flags: W
LayerCount: 2
Fore
SplineSet
331 0 m 1,0,-1
 6 1062 l 1,1,-1
 192 1062 l 1,2,-1
 361 449 l 1,3,-1
 424 221 l 1,4,5
 428 238 428 238 479 440 c 1,6,-1
 648 1062 l 1,7,-1
 833 1062 l 1,8,-1
 992 446 l 1,9,-1
 1045 243 l 1,10,-1
 1106 448 l 1,11,-1
 1288 1062 l 1,12,-1
 1463 1062 l 1,13,-1
 1131 0 l 1,14,-1
 944 0 l 1,15,-1
 775 636 l 1,16,-1
 734 817 l 1,17,-1
 519 0 l 1,18,-1
 331 0 l 1,0,-1
EndSplineSet
Validated: 1
EndChar

StartChar: x
Encoding: 120 120 91
Width: 1024
Flags: W
LayerCount: 2
Fore
SplineSet
15 0 m 1,0,-1
 403 552 l 1,1,-1
 44 1062 l 1,2,-1
 269 1062 l 1,3,-1
 432 813 l 2,4,5
 478 742 478 742 506 694 c 1,6,7
 550 760 550 760 587 811 c 2,8,-1
 766 1062 l 1,9,-1
 981 1062 l 1,10,-1
 614 562 l 1,11,-1
 1009 0 l 1,12,-1
 788 0 l 1,13,-1
 570 330 l 1,14,-1
 512 419 l 1,15,-1
 233 0 l 1,16,-1
 15 0 l 1,0,-1
EndSplineSet
Validated: 1
EndChar

StartChar: y
Encoding: 121 121 92
Width: 1024
Flags: W
LayerCount: 2
Fore
SplineSet
127 -409 m 1,0,-1
 107 -240 l 1,1,2
 166 -256 166 -256 210 -256 c 0,3,4
 270 -256 270 -256 306 -236 c 128,-1,5
 342 -216 342 -216 365 -180 c 0,6,7
 382 -153 382 -153 420 -46 c 0,8,9
 425 -31 425 -31 436 -2 c 1,10,-1
 33 1062 l 1,11,-1
 227 1062 l 1,12,-1
 448 447 l 2,13,14
 491 330 491 330 525 201 c 1,15,16
 556 325 556 325 599 443 c 2,17,-1
 826 1062 l 1,18,-1
 1006 1062 l 1,19,-1
 602 -18 l 2,20,21
 537 -193 537 -193 501 -259 c 0,22,23
 453 -348 453 -348 391 -389.5 c 128,-1,24
 329 -431 329 -431 243 -431 c 0,25,26
 191 -431 191 -431 127 -409 c 1,0,-1
EndSplineSet
Validated: 1
EndChar

StartChar: z
Encoding: 122 122 93
Width: 1024
Flags: W
LayerCount: 2
Fore
SplineSet
40 0 m 1,0,-1
 40 146 l 1,1,-1
 716 922 l 1,2,3
 601 916 601 916 513 916 c 2,4,-1
 80 916 l 1,5,-1
 80 1062 l 1,6,-1
 948 1062 l 1,7,-1
 948 943 l 1,8,-1
 373 269 l 1,9,-1
 262 146 l 1,10,11
 383 155 383 155 489 155 c 2,12,-1
 980 155 l 1,13,-1
 980 0 l 1,14,-1
 40 0 l 1,0,-1
EndSplineSet
Validated: 1
EndChar

StartChar: braceleft
Encoding: 123 123 94
Width: 684
Flags: W
LayerCount: 2
Fore
SplineSet
57 612 m 1,0,1
 134 614 134 614 182.5 653.5 c 128,-1,2
 231 693 231 693 247 762 c 128,-1,3
 263 831 263 831 264 998 c 128,-1,4
 265 1165 265 1165 270 1218 c 0,5,6
 279 1302 279 1302 303.5 1353 c 128,-1,7
 328 1404 328 1404 364 1434.5 c 128,-1,8
 400 1465 400 1465 456 1481 c 0,9,10
 494 1491 494 1491 580 1491 c 2,11,-1
 636 1491 l 1,12,-1
 636 1334 l 1,13,-1
 605 1334 l 2,14,15
 501 1334 501 1334 467 1296.5 c 128,-1,16
 433 1259 433 1259 433 1129 c 0,17,18
 433 867 433 867 422 798 c 0,19,20
 404 691 404 691 360.5 633 c 128,-1,21
 317 575 317 575 224 530 c 1,22,23
 334 484 334 484 383.5 389.5 c 128,-1,24
 433 295 433 295 433 80 c 0,25,26
 433 -115 433 -115 437 -152 c 0,27,28
 445 -220 445 -220 477.5 -247 c 128,-1,29
 510 -274 510 -274 605 -274 c 2,30,-1
 636 -274 l 1,31,-1
 636 -431 l 1,32,-1
 580 -431 l 2,33,34
 482 -431 482 -431 438 -415 c 0,35,36
 374 -392 374 -392 332 -340.5 c 128,-1,37
 290 -289 290 -289 277.5 -210 c 128,-1,38
 265 -131 265 -131 264 49 c 128,-1,39
 263 229 263 229 247 298 c 128,-1,40
 231 367 231 367 182.5 407 c 128,-1,41
 134 447 134 447 57 449 c 1,42,-1
 57 612 l 1,0,1
EndSplineSet
Validated: 1
EndChar

StartChar: bar
Encoding: 124 124 95
Width: 532
Flags: W
LayerCount: 2
Fore
SplineSet
188 -431 m 1,0,-1
 188 1491 l 1,1,-1
 345 1491 l 1,2,-1
 345 -431 l 1,3,-1
 188 -431 l 1,0,-1
EndSplineSet
Validated: 1
EndChar

StartChar: braceright
Encoding: 125 125 96
Width: 684
Flags: W
LayerCount: 2
Fore
SplineSet
626 612 m 1,0,-1
 626 449 l 1,1,2
 549 447 549 447 500.5 407 c 128,-1,3
 452 367 452 367 436 298.5 c 128,-1,4
 420 230 420 230 419 63 c 128,-1,5
 418 -104 418 -104 413 -157 c 0,6,7
 404 -242 404 -242 379.5 -292.5 c 128,-1,8
 355 -343 355 -343 319 -373.5 c 128,-1,9
 283 -404 283 -404 227 -420 c 0,10,11
 189 -431 189 -431 103 -431 c 2,12,-1
 47 -431 l 1,13,-1
 47 -274 l 1,14,-1
 78 -274 l 2,15,16
 182 -274 182 -274 216 -236.5 c 128,-1,17
 250 -199 250 -199 250 -68 c 0,18,19
 250 182 250 182 259 249 c 0,20,21
 275 360 275 360 323 426.5 c 128,-1,22
 371 493 371 493 459 530 c 1,23,24
 344 585 344 585 297 675.5 c 128,-1,25
 250 766 250 766 250 981 c 0,26,27
 250 1176 250 1176 245 1214 c 1,28,29
 238 1281 238 1281 205.5 1307.5 c 128,-1,30
 173 1334 173 1334 78 1334 c 2,31,-1
 47 1334 l 1,32,-1
 47 1491 l 1,33,-1
 103 1491 l 2,34,35
 201 1491 201 1491 245 1475 c 0,36,37
 309 1453 309 1453 351 1401 c 128,-1,38
 393 1349 393 1349 405.5 1270 c 128,-1,39
 418 1191 418 1191 419 1011 c 128,-1,40
 420 831 420 831 436 762.5 c 128,-1,41
 452 694 452 694 500.5 654 c 128,-1,42
 549 614 549 614 626 612 c 1,0,-1
EndSplineSet
Validated: 1
EndChar

StartChar: asciitilde
Encoding: 126 126 97
Width: 1196
Flags: W
LayerCount: 2
Fore
SplineSet
87 557 m 1,0,-1
 87 762 l 1,1,2
 193 882 193 882 365 882 c 0,3,4
 425 882 425 882 491 864.5 c 128,-1,5
 557 847 557 847 679 795 c 0,6,7
 748 766 748 766 782.5 757 c 128,-1,8
 817 748 817 748 852 748 c 0,9,10
 917 748 917 748 986.5 787 c 128,-1,11
 1056 826 1056 826 1110 885 c 1,12,-1
 1110 673 l 1,13,14
 1046 613 1046 613 980.5 586 c 128,-1,15
 915 559 915 559 833 559 c 0,16,17
 773 559 773 559 718.5 573 c 128,-1,18
 664 587 664 587 545.5 640 c 128,-1,19
 427 693 427 693 348 693 c 0,20,21
 284 693 284 693 227.5 665.5 c 128,-1,22
 171 638 171 638 87 557 c 1,0,-1
EndSplineSet
Validated: 1
EndChar

StartChar: dagger
Encoding: 8224 8224 130
Width: 1139
Flags: W
LayerCount: 2
Fore
SplineSet
472 -346 m 1,0,-1
 472 866 l 1,1,-1
 73 866 l 1,2,-1
 73 1026 l 1,3,-1
 472 1026 l 1,4,-1
 472 1432 l 1,5,-1
 652 1432 l 1,6,-1
 652 1026 l 1,7,-1
 1054 1026 l 1,8,-1
 1054 866 l 1,9,-1
 652 866 l 1,10,-1
 652 -346 l 1,11,-1
 472 -346 l 1,0,-1
EndSplineSet
Validated: 1
EndChar

StartChar: degree
Encoding: 176 176 131
Width: 819
Flags: W
LayerCount: 2
Fore
SplineSet
128 1214 m 0,0,1
 128 1329 128 1329 209.5 1410 c 128,-1,2
 291 1491 291 1491 405 1491 c 0,3,4
 521 1491 521 1491 602 1410 c 128,-1,5
 683 1329 683 1329 683 1214 c 256,6,7
 683 1099 683 1099 601.5 1017.5 c 128,-1,8
 520 936 520 936 405 936 c 0,9,10
 291 936 291 936 209.5 1017 c 128,-1,11
 128 1098 128 1098 128 1214 c 0,0,1
237 1214 m 256,12,13
 237 1144 237 1144 286.5 1094.5 c 128,-1,14
 336 1045 336 1045 406 1045 c 0,15,16
 475 1045 475 1045 524.5 1094.5 c 128,-1,17
 574 1144 574 1144 574 1214 c 256,18,19
 574 1284 574 1284 524.5 1333.5 c 128,-1,20
 475 1383 475 1383 406 1383 c 0,21,22
 336 1383 336 1383 286.5 1333.5 c 128,-1,23
 237 1284 237 1284 237 1214 c 256,12,13
EndSplineSet
Validated: 1
EndChar

StartChar: cent
Encoding: 162 162 132
Width: 1139
Flags: W
LayerCount: 2
Fore
SplineSet
744 894 m 1,0,-1
 522 128 l 1,1,2
 555 119 555 119 583 119 c 0,3,4
 687 119 687 119 762.5 190 c 128,-1,5
 838 261 838 261 855 389 c 1,6,-1
 1034 369 l 1,7,8
 1001 184 1001 184 877.5 78 c 128,-1,9
 754 -28 754 -28 586 -28 c 0,10,11
 537 -28 537 -28 483 -14 c 1,12,-1
 365 -409 l 1,13,-1
 253 -377 l 1,14,-1
 368 21 l 1,15,16
 253 76 253 76 180 204.5 c 128,-1,17
 107 333 107 333 107 526 c 0,18,19
 107 704 107 704 165.5 831.5 c 128,-1,20
 224 959 224 959 340.5 1023 c 128,-1,21
 457 1087 457 1087 578 1087 c 0,22,23
 614 1087 614 1087 678 1079 c 1,24,-1
 791 1466 l 1,25,-1
 901 1434 l 1,26,-1
 789 1047 l 1,27,28
 888 1004 888 1004 941 931.5 c 128,-1,29
 994 859 994 859 1015 750 c 1,30,-1
 840 723 l 1,31,32
 814 835 814 835 744 894 c 1,0,-1
638 940 m 1,33,34
 606 943 606 943 588 943 c 0,35,36
 506 943 506 943 434.5 897.5 c 128,-1,37
 363 852 363 852 327.5 756.5 c 128,-1,38
 292 661 292 661 292 535 c 0,39,40
 292 403 292 403 324 312 c 128,-1,41
 356 221 356 221 415 177 c 1,42,-1
 638 940 l 1,33,34
EndSplineSet
Validated: 1
EndChar

StartChar: sterling
Encoding: 163 163 133
Width: 1139
Flags: W
LayerCount: 2
Fore
SplineSet
396 809 m 1,0,-1
 711 809 l 1,1,-1
 711 661 l 1,2,-1
 427 661 l 1,3,4
 446 617 446 617 446 573 c 0,5,6
 446 486 446 486 404.5 389 c 128,-1,7
 363 292 363 292 268 191 c 1,8,9
 347 213 347 213 412 213 c 0,10,11
 495 213 495 213 599 188 c 0,12,13
 771 147 771 147 832 147 c 0,14,15
 906 147 906 147 1024 203 c 1,16,-1
 1082 38 l 1,17,18
 990 -1 990 -1 939.5 -13 c 128,-1,19
 889 -25 889 -25 839 -25 c 0,20,21
 797 -25 797 -25 754 -17 c 0,22,23
 727 -12 727 -12 624.5 19.5 c 128,-1,24
 522 51 522 51 492 57 c 0,25,26
 445 65 445 65 398 65 c 0,27,28
 326 65 326 65 244.5 40 c 128,-1,29
 163 15 163 15 96 -28 c 1,30,-1
 27 145 l 1,31,32
 123 198 123 198 190 296.5 c 128,-1,33
 257 395 257 395 257 537 c 0,34,35
 257 598 257 598 240 661 c 1,36,-1
 44 661 l 1,37,-1
 44 809 l 1,38,-1
 198 809 l 1,39,40
 165 921 165 921 156 972.5 c 128,-1,41
 147 1024 147 1024 147 1073 c 0,42,43
 147 1281 147 1281 301 1398 c 0,44,45
 425 1491 425 1491 601 1491 c 0,46,47
 782 1491 782 1491 899.5 1391.5 c 128,-1,48
 1017 1292 1017 1292 1044 1112 c 1,49,-1
 865 1085 l 1,50,51
 850 1205 850 1205 775.5 1274 c 128,-1,52
 701 1343 701 1343 597 1343 c 0,53,54
 486 1343 486 1343 412.5 1271.5 c 128,-1,55
 339 1200 339 1200 339 1099 c 0,56,57
 339 988 339 988 396 809 c 1,0,-1
EndSplineSet
Validated: 1
EndChar

StartChar: section
Encoding: 167 167 134
Width: 1139
Flags: W
LayerCount: 2
Fore
SplineSet
143 -70 m 1,0,-1
 324 -44 l 1,1,2
 352 -174 352 -174 413 -226.5 c 128,-1,3
 474 -279 474 -279 579 -279 c 0,4,5
 681 -279 681 -279 738.5 -227 c 128,-1,6
 796 -175 796 -175 796 -105 c 0,7,8
 796 -54 796 -54 760 -11 c 0,9,10
 698 64 698 64 420 234 c 0,11,12
 272 325 272 325 213.5 376.5 c 128,-1,13
 155 428 155 428 118 498 c 128,-1,14
 81 568 81 568 81 644 c 0,15,16
 81 740 81 740 141 818 c 128,-1,17
 201 896 201 896 306 927 c 1,18,19
 235 995 235 995 206 1052.5 c 128,-1,20
 177 1110 177 1110 177 1175 c 0,21,22
 177 1303 177 1303 277 1397 c 128,-1,23
 377 1491 377 1491 542 1491 c 0,24,25
 729 1491 729 1491 834 1402 c 128,-1,26
 939 1313 939 1313 960 1144 c 1,27,-1
 773 1125 l 1,28,29
 752 1247 752 1247 699.5 1295 c 128,-1,30
 647 1343 647 1343 558 1343 c 0,31,32
 466 1343 466 1343 409.5 1293.5 c 128,-1,33
 353 1244 353 1244 353 1184 c 0,34,35
 353 1132 353 1132 389 1088 c 0,36,37
 445 1020 445 1020 695 868 c 0,38,39
 852 772 852 772 907 727 c 1,40,41
 978 667 978 667 1011.5 603 c 128,-1,42
 1045 539 1045 539 1045 464 c 0,43,44
 1045 351 1045 351 972 271 c 0,45,46
 930 225 930 225 818 178 c 1,47,48
 898 117 898 117 937.5 47 c 128,-1,49
 977 -23 977 -23 977 -103 c 0,50,51
 977 -191 977 -191 927 -269.5 c 128,-1,52
 877 -348 877 -348 783 -389.5 c 128,-1,53
 689 -431 689 -431 580 -431 c 0,54,55
 389 -431 389 -431 277 -335.5 c 128,-1,56
 165 -240 165 -240 143 -70 c 1,0,-1
728 244 m 1,57,58
 802 282 802 282 838.5 332.5 c 128,-1,59
 875 383 875 383 875 431 c 0,60,61
 875 488 875 488 823 551 c 0,62,63
 770 614 770 614 598 720 c 0,64,65
 461 804 461 804 394 858 c 1,66,67
 313 812 313 812 278.5 766 c 128,-1,68
 244 720 244 720 244 664 c 0,69,70
 244 601 244 601 290 544 c 256,71,72
 336 487 336 487 497 392 c 0,73,74
 631 313 631 313 728 244 c 1,57,58
EndSplineSet
Validated: 1
EndChar

StartChar: bullet
Encoding: 8226 8226 135
Width: 717
Flags: W
LayerCount: 2
Fore
SplineSet
109 718 m 256,0,1
 109 823 109 823 183.5 897 c 128,-1,2
 258 971 258 971 362 971 c 0,3,4
 467 971 467 971 541.5 897 c 128,-1,5
 616 823 616 823 616 718 c 256,6,7
 616 613 616 613 541.5 538.5 c 128,-1,8
 467 464 467 464 362 464 c 0,9,10
 258 464 258 464 183.5 538.5 c 128,-1,11
 109 613 109 613 109 718 c 256,0,1
EndSplineSet
Validated: 1
EndChar

StartChar: paragraph
Encoding: 182 182 136
Width: 1100
Flags: W
LayerCount: 2
Fore
SplineSet
405 -407 m 1,0,-1
 405 638 l 1,1,2
 218 648 218 648 109.5 759.5 c 128,-1,3
 1 871 1 871 1 1044 c 0,4,5
 1 1237 1 1237 121.5 1351.5 c 128,-1,6
 242 1466 242 1466 474 1466 c 2,7,-1
 1107 1466 l 1,8,-1
 1107 1293 l 1,9,-1
 963 1293 l 1,10,-1
 963 -407 l 1,11,-1
 793 -407 l 1,12,-1
 793 1293 l 1,13,-1
 570 1293 l 1,14,-1
 570 -407 l 1,15,-1
 405 -407 l 1,0,-1
EndSplineSet
Validated: 1
EndChar

StartChar: germandbls
Encoding: 223 223 137
Width: 1251
Flags: W
LayerCount: 2
Fore
SplineSet
153 0 m 1,0,-1
 153 999 l 2,1,2
 153 1182 153 1182 197.5 1280.5 c 128,-1,3
 242 1379 242 1379 346 1435 c 128,-1,4
 450 1491 450 1491 580 1491 c 0,5,6
 753 1491 753 1491 852 1404.5 c 128,-1,7
 951 1318 951 1318 951 1204 c 0,8,9
 951 1153 951 1153 933 1099 c 128,-1,10
 915 1045 915 1045 869 964.5 c 128,-1,11
 823 884 823 884 811 852.5 c 128,-1,12
 799 821 799 821 799 797 c 0,13,14
 799 765 799 765 821 734 c 1,15,16
 842 702 842 702 942 637 c 0,17,18
 1078 548 1078 548 1123 494 c 0,19,20
 1187 417 1187 417 1187 312 c 0,21,22
 1187 173 1187 173 1084.5 74 c 128,-1,23
 982 -25 982 -25 822 -25 c 0,24,25
 696 -25 696 -25 601 42.5 c 128,-1,26
 506 110 506 110 459 216 c 1,27,-1
 614 288 l 1,28,29
 664 195 664 195 714 159 c 128,-1,30
 764 123 764 123 819 123 c 0,31,32
 895 123 895 123 949 175 c 128,-1,33
 1003 227 1003 227 1003 297 c 0,34,35
 1003 353 1003 353 971 393 c 0,36,37
 950 419 950 419 859 481 c 0,38,39
 693 595 693 595 654 652 c 0,40,41
 614 709 614 709 614 769 c 0,42,43
 614 808 614 808 627.5 848 c 128,-1,44
 641 888 641 888 692.5 976 c 128,-1,45
 744 1064 744 1064 760 1108 c 128,-1,46
 776 1152 776 1152 776 1186 c 0,47,48
 776 1248 776 1248 721.5 1295.5 c 128,-1,49
 667 1343 667 1343 576 1343 c 0,50,51
 469 1343 469 1343 401 1277 c 128,-1,52
 333 1211 333 1211 333 991 c 2,53,-1
 333 0 l 1,54,-1
 153 0 l 1,0,-1
EndSplineSet
Validated: 1
EndChar

StartChar: registered
Encoding: 174 174 138
Width: 1509
Flags: W
LayerCount: 2
Fore
SplineSet
758 1491 m 256,0,1
 948 1491 948 1491 1129 1393.5 c 128,-1,2
 1310 1296 1310 1296 1411 1114.5 c 128,-1,3
 1512 933 1512 933 1512 736 c 0,4,5
 1512 541 1512 541 1412.5 361 c 128,-1,6
 1313 181 1313 181 1133.5 81.5 c 128,-1,7
 954 -18 954 -18 758 -18 c 256,8,9
 562 -18 562 -18 382.5 81.5 c 128,-1,10
 203 181 203 181 103 361 c 128,-1,11
 3 541 3 541 3 736 c 0,12,13
 3 933 3 933 104.5 1114.5 c 128,-1,14
 206 1296 206 1296 387 1393.5 c 128,-1,15
 568 1491 568 1491 758 1491 c 256,0,1
758 1366 m 0,16,17
 599 1366 599 1366 448.5 1284.5 c 128,-1,18
 298 1203 298 1203 213 1051.5 c 128,-1,19
 128 900 128 900 128 736 c 0,20,21
 128 573 128 573 211.5 423.5 c 128,-1,22
 295 274 295 274 445 190.5 c 128,-1,23
 595 107 595 107 758 107 c 256,24,25
 921 107 921 107 1071 190.5 c 128,-1,26
 1221 274 1221 274 1304 423.5 c 128,-1,27
 1387 573 1387 573 1387 736 c 0,28,29
 1387 900 1387 900 1302.5 1051.5 c 128,-1,30
 1218 1203 1218 1203 1067 1284.5 c 128,-1,31
 916 1366 916 1366 758 1366 c 0,16,17
427 319 m 1,32,-1
 427 1131 l 1,33,-1
 706 1131 l 2,34,35
 849 1131 849 1131 913 1108.5 c 128,-1,36
 977 1086 977 1086 1015 1030 c 128,-1,37
 1053 974 1053 974 1053 911 c 0,38,39
 1053 822 1053 822 989.5 756 c 128,-1,40
 926 690 926 690 821 682 c 1,41,42
 864 664 864 664 890 639 c 0,43,44
 939 591 939 591 1010 478 c 2,45,-1
 1109 319 l 1,46,-1
 949 319 l 1,47,-1
 877 447 l 2,48,49
 792 598 792 598 740 636 c 1,50,51
 704 664 704 664 635 664 c 2,52,-1
 558 664 l 1,53,-1
 558 319 l 1,54,-1
 427 319 l 1,32,-1
558 776 m 1,55,-1
 717 776 l 2,56,57
 831 776 831 776 872.5 810 c 128,-1,58
 914 844 914 844 914 900 c 0,59,60
 914 936 914 936 894 964.5 c 128,-1,61
 874 993 874 993 838.5 1007 c 128,-1,62
 803 1021 803 1021 707 1021 c 2,63,-1
 558 1021 l 1,64,-1
 558 776 l 1,55,-1
EndSplineSet
Validated: 1
EndChar

StartChar: copyright
Encoding: 169 169 139
Width: 1509
Flags: W
LayerCount: 2
Fore
SplineSet
758 1491 m 256,0,1
 948 1491 948 1491 1129 1393.5 c 128,-1,2
 1310 1296 1310 1296 1411 1114.5 c 128,-1,3
 1512 933 1512 933 1512 736 c 0,4,5
 1512 541 1512 541 1412.5 361 c 128,-1,6
 1313 181 1313 181 1133.5 81.5 c 128,-1,7
 954 -18 954 -18 758 -18 c 256,8,9
 562 -18 562 -18 382.5 81.5 c 128,-1,10
 203 181 203 181 103 361 c 128,-1,11
 3 541 3 541 3 736 c 0,12,13
 3 933 3 933 104.5 1114.5 c 128,-1,14
 206 1296 206 1296 387 1393.5 c 128,-1,15
 568 1491 568 1491 758 1491 c 256,0,1
758 1366 m 0,16,17
 599 1366 599 1366 448.5 1284.5 c 128,-1,18
 298 1203 298 1203 213 1051.5 c 128,-1,19
 128 900 128 900 128 736 c 0,20,21
 128 573 128 573 211.5 423.5 c 128,-1,22
 295 274 295 274 445 190.5 c 128,-1,23
 595 107 595 107 758 107 c 256,24,25
 921 107 921 107 1071 190.5 c 128,-1,26
 1221 274 1221 274 1304 423.5 c 128,-1,27
 1387 573 1387 573 1387 736 c 0,28,29
 1387 900 1387 900 1302.5 1051.5 c 128,-1,30
 1218 1203 1218 1203 1067 1284.5 c 128,-1,31
 916 1366 916 1366 758 1366 c 0,16,17
1000 614 m 1,32,-1
 1123 578 l 1,33,34
 1093 453 1093 453 995.5 378.5 c 128,-1,35
 898 304 898 304 759 304 c 0,36,37
 583 304 583 304 473 418 c 128,-1,38
 363 532 363 532 363 734 c 0,39,40
 363 866 363 866 413 963.5 c 128,-1,41
 463 1061 463 1061 555.5 1110.5 c 128,-1,42
 648 1160 648 1160 767 1160 c 0,43,44
 900 1160 900 1160 988 1096.5 c 128,-1,45
 1076 1033 1076 1033 1108 924 c 1,46,-1
 989 895 l 1,47,48
 959 969 959 969 900.5 1008.5 c 128,-1,49
 842 1048 842 1048 763 1048 c 0,50,51
 648 1048 648 1048 573.5 966 c 128,-1,52
 499 884 499 884 499 731 c 256,53,54
 499 578 499 578 569.5 499.5 c 128,-1,55
 640 421 640 421 752 421 c 0,56,57
 842 421 842 421 910 473 c 128,-1,58
 978 525 978 525 1000 614 c 1,32,-1
EndSplineSet
Validated: 1
EndChar

StartChar: trademark
Encoding: 8482 8482 140
Width: 2048
Flags: W
LayerCount: 2
Fore
SplineSet
489 651 m 1,0,-1
 489 1345 l 1,1,-1
 225 1345 l 1,2,-1
 225 1466 l 1,3,-1
 891 1466 l 1,4,-1
 891 1345 l 1,5,-1
 625 1345 l 1,6,-1
 625 651 l 1,7,-1
 489 651 l 1,0,-1
982 651 m 1,8,-1
 982 1466 l 1,9,-1
 1182 1466 l 1,10,-1
 1388 815 l 1,11,-1
 1587 1466 l 1,12,-1
 1783 1466 l 1,13,-1
 1783 651 l 1,14,-1
 1659 651 l 1,15,-1
 1659 1335 l 1,16,-1
 1449 651 l 1,17,-1
 1326 651 l 1,18,-1
 1107 1345 l 1,19,-1
 1107 651 l 1,20,-1
 982 651 l 1,8,-1
EndSplineSet
Validated: 1
EndChar

StartChar: acute
Encoding: 180 180 141
Width: 682
Flags: W
LayerCount: 2
Fore
SplineSet
222 1194 m 1,0,-1
 355 1474 l 1,1,-1
 591 1474 l 1,2,-1
 371 1194 l 1,3,-1
 222 1194 l 1,0,-1
EndSplineSet
Validated: 1
EndChar

StartChar: dieresis
Encoding: 168 168 142
Width: 682
Flags: W
LayerCount: 2
Fore
SplineSet
61 1270 m 1,0,-1
 61 1475 l 1,1,-1
 249 1475 l 1,2,-1
 249 1270 l 1,3,-1
 61 1270 l 1,0,-1
434 1270 m 1,4,-1
 434 1475 l 1,5,-1
 622 1475 l 1,6,-1
 622 1270 l 1,7,-1
 434 1270 l 1,4,-1
EndSplineSet
Validated: 1
EndChar

StartChar: notequal
Encoding: 8800 8800 143
Width: 1124
Flags: W
LayerCount: 2
Fore
SplineSet
495 417 m 1,0,-1
 301 -28 l 1,1,-1
 165 -28 l 1,2,-1
 360 417 l 1,3,-1
 78 417 l 1,4,-1
 78 585 l 1,5,-1
 434 585 l 1,6,-1
 556 862 l 1,7,-1
 78 862 l 1,8,-1
 78 1030 l 1,9,-1
 629 1030 l 1,10,-1
 825 1474 l 1,11,-1
 959 1474 l 1,12,-1
 764 1030 l 1,13,-1
 1046 1030 l 1,14,-1
 1046 862 l 1,15,-1
 690 862 l 1,16,-1
 569 585 l 1,17,-1
 1046 585 l 1,18,-1
 1046 417 l 1,19,-1
 495 417 l 1,0,-1
EndSplineSet
Validated: 1
EndChar

StartChar: AE
Encoding: 198 198 144
Width: 2048
Flags: W
LayerCount: 2
Fore
SplineSet
1 0 m 1,0,-1
 706 1466 l 1,1,-1
 1909 1466 l 1,2,-1
 1909 1293 l 1,3,-1
 1172 1293 l 1,4,-1
 1172 842 l 1,5,-1
 1857 842 l 1,6,-1
 1857 670 l 1,7,-1
 1172 670 l 1,8,-1
 1172 173 l 1,9,-1
 1936 173 l 1,10,-1
 1936 0 l 1,11,-1
 977 0 l 1,12,-1
 977 423 l 1,13,-1
 411 423 l 1,14,-1
 211 0 l 1,15,-1
 1 0 l 1,0,-1
493 595 m 1,16,-1
 977 595 l 1,17,-1
 977 1293 l 1,18,-1
 832 1293 l 1,19,-1
 493 595 l 1,16,-1
EndSplineSet
Validated: 1
EndChar

StartChar: Oslash
Encoding: 216 216 145
Width: 1593
Flags: W
LayerCount: 2
Fore
SplineSet
1250 1332 m 1,0,-1
 1418 1520 l 1,1,-1
 1517 1436 l 1,2,-1
 1341 1238 l 1,3,4
 1427 1110 1427 1110 1457 1014 c 0,5,6
 1497 888 1497 888 1497 732 c 0,7,8
 1497 507 1497 507 1406 331 c 128,-1,9
 1315 155 1315 155 1150.5 65 c 128,-1,10
 986 -25 986 -25 801 -25 c 0,11,12
 663 -25 663 -25 551 14 c 0,13,14
 465 44 465 44 350 129 c 1,15,-1
 182 -59 l 1,16,-1
 83 25 l 1,17,-1
 259 222 l 1,18,19
 161 371 161 371 128 476.5 c 128,-1,20
 95 582 95 582 95 730 c 0,21,22
 95 956 95 956 185 1132.5 c 128,-1,23
 275 1309 275 1309 437.5 1400 c 128,-1,24
 600 1491 600 1491 799 1491 c 0,25,26
 933 1491 933 1491 1033.5 1455.5 c 128,-1,27
 1134 1420 1134 1420 1250 1332 c 1,0,-1
1130 1197 m 1,28,29
 1036 1271 1036 1271 965.5 1298 c 128,-1,30
 895 1325 895 1325 800 1325 c 0,31,32
 581 1325 581 1325 438 1176.5 c 128,-1,33
 295 1028 295 1028 295 733 c 0,34,35
 295 617 295 617 317 527 c 0,36,37
 333 460 333 460 384 362 c 1,38,-1
 1130 1197 l 1,28,29
1212 1094 m 1,39,-1
 469 262 l 1,40,41
 546 199 546 199 611 174 c 0,42,43
 696 141 696 141 795 141 c 0,44,45
 1013 141 1013 141 1155 295 c 128,-1,46
 1297 449 1297 449 1297 727 c 0,47,48
 1297 935 1297 935 1212 1094 c 1,39,-1
EndSplineSet
Validated: 1
EndChar

StartChar: infinity
Encoding: 8734 8734 146
Width: 1460
Flags: W
LayerCount: 2
Fore
SplineSet
689 812 m 1,0,1
 794 944 794 944 853 986 c 0,2,3
 933 1044 933 1044 1022 1044 c 0,4,5
 1127 1044 1127 1044 1218.5 968 c 128,-1,6
 1310 892 1310 892 1310 723 c 0,7,8
 1310 605 1310 605 1276 537.5 c 128,-1,9
 1242 470 1242 470 1170 429 c 128,-1,10
 1098 388 1098 388 1022 388 c 0,11,12
 933 388 933 388 853 445 c 0,13,14
 794 488 794 488 689 620 c 1,15,16
 553 449 553 449 400 449 c 0,17,18
 299 449 299 449 226.5 525.5 c 128,-1,19
 154 602 154 602 154 716 c 0,20,21
 154 829 154 829 226.5 906 c 128,-1,22
 299 983 299 983 400 983 c 0,23,24
 553 983 553 983 689 812 c 1,0,1
758 717 m 1,25,26
 845 582 845 582 917 532 c 0,27,28
 963 499 963 499 1020 499 c 0,29,30
 1096 499 1096 499 1147.5 555 c 128,-1,31
 1199 611 1199 611 1199 713 c 0,32,33
 1199 819 1199 819 1146.5 875 c 128,-1,34
 1094 931 1094 931 1016 931 c 0,35,36
 967 931 967 931 924 903 c 0,37,38
 866 864 866 864 758 717 c 1,25,26
620 716 m 1,39,40
 540 816 540 816 492 844.5 c 128,-1,41
 444 873 444 873 400 873 c 0,42,43
 342 873 342 873 303.5 832 c 128,-1,44
 265 791 265 791 265 719 c 0,45,46
 265 648 265 648 305 605.5 c 128,-1,47
 345 563 345 563 402 563 c 0,48,49
 503 563 503 563 620 716 c 1,39,40
EndSplineSet
Validated: 1
EndChar

StartChar: plusminus
Encoding: 177 177 147
Width: 1124
Flags: W
LayerCount: 2
Fore
SplineSet
477 260 m 1,0,-1
 477 663 l 1,1,-1
 78 663 l 1,2,-1
 78 830 l 1,3,-1
 477 830 l 1,4,-1
 477 1229 l 1,5,-1
 647 1229 l 1,6,-1
 647 830 l 1,7,-1
 1046 830 l 1,8,-1
 1046 663 l 1,9,-1
 647 663 l 1,10,-1
 647 260 l 1,11,-1
 477 260 l 1,0,-1
1046 0 m 1,12,-1
 78 0 l 1,13,-1
 78 168 l 1,14,-1
 1046 168 l 1,15,-1
 1046 0 l 1,12,-1
EndSplineSet
Validated: 1
EndChar

StartChar: lessequal
Encoding: 8804 8804 148
Width: 1124
Flags: W
LayerCount: 2
Fore
SplineSet
77 762 m 1,0,-1
 77 930 l 1,1,-1
 1048 1340 l 1,2,-1
 1048 1160 l 1,3,-1
 278 845 l 1,4,-1
 1048 526 l 1,5,-1
 1048 347 l 1,6,-1
 77 762 l 1,0,-1
1046 106 m 1,7,-1
 78 106 l 1,8,-1
 78 273 l 1,9,-1
 1046 273 l 1,10,-1
 1046 106 l 1,7,-1
EndSplineSet
Validated: 1
EndChar

StartChar: greaterequal
Encoding: 8805 8805 149
Width: 1124
Flags: W
LayerCount: 2
Fore
SplineSet
1048 762 m 1,0,-1
 77 347 l 1,1,-1
 77 526 l 1,2,-1
 846 845 l 1,3,-1
 77 1160 l 1,4,-1
 77 1340 l 1,5,-1
 1048 930 l 1,6,-1
 1048 762 l 1,0,-1
1046 106 m 1,7,-1
 78 106 l 1,8,-1
 78 273 l 1,9,-1
 1046 273 l 1,10,-1
 1046 106 l 1,7,-1
EndSplineSet
Validated: 1
EndChar

StartChar: yen
Encoding: 165 165 150
Width: 1139
Flags: W
LayerCount: 2
Fore
SplineSet
477 0 m 1,0,-1
 477 325 l 1,1,-1
 62 325 l 1,2,-1
 62 464 l 1,3,-1
 477 464 l 1,4,-1
 477 607 l 1,5,-1
 62 607 l 1,6,-1
 62 755 l 1,7,-1
 403 755 l 1,8,-1
 -3 1466 l 1,9,-1
 197 1466 l 1,10,-1
 487 950 l 2,11,12
 536 862 536 862 563 796 c 1,13,14
 586 849 586 849 645 959 c 2,15,-1
 919 1466 l 1,16,-1
 1133 1466 l 1,17,-1
 728 755 l 1,18,-1
 1069 755 l 1,19,-1
 1069 607 l 1,20,-1
 657 607 l 1,21,-1
 657 464 l 1,22,-1
 1069 464 l 1,23,-1
 1069 325 l 1,24,-1
 657 325 l 1,25,-1
 657 0 l 1,26,-1
 477 0 l 1,0,-1
EndSplineSet
Validated: 1
EndChar

StartChar: mu1
Encoding: 181 181 151
Width: 1180
Flags: W
LayerCount: 2
Fore
SplineSet
1018 1062 m 1,0,-1
 1018 0 l 1,1,-1
 857 0 l 1,2,-1
 857 126 l 1,3,4
 805 46 805 46 754 16 c 0,5,6
 684 -25 684 -25 591 -25 c 0,7,8
 508 -25 508 -25 444 8 c 0,9,10
 396 33 396 33 338 107 c 1,11,-1
 338 -407 l 1,12,-1
 160 -407 l 1,13,-1
 160 1062 l 1,14,-1
 338 1062 l 1,15,-1
 338 612 l 2,16,17
 338 367 338 367 364 294.5 c 128,-1,18
 390 222 390 222 448.5 180 c 128,-1,19
 507 138 507 138 583 138 c 0,20,21
 663 138 663 138 726 182 c 128,-1,22
 789 226 789 226 815 295.5 c 128,-1,23
 841 365 841 365 841 609 c 2,24,-1
 841 1062 l 1,25,-1
 1018 1062 l 1,0,-1
EndSplineSet
Validated: 1
EndChar

StartChar: partialdiff
Encoding: 8706 8706 152
Width: 1012
Flags: W
LayerCount: 2
Fore
SplineSet
426 1138 m 1,0,-1
 291 1198 l 1,1,2
 361 1355 361 1355 459 1423 c 128,-1,3
 557 1491 557 1491 651 1491 c 0,4,5
 727 1491 727 1491 788.5 1451.5 c 128,-1,6
 850 1412 850 1412 881 1361 c 0,7,8
 928 1282 928 1282 950.5 1174 c 128,-1,9
 973 1066 973 1066 973 926 c 0,10,11
 973 638 973 638 886.5 413.5 c 128,-1,12
 800 189 800 189 653 82 c 128,-1,13
 506 -25 506 -25 364 -25 c 0,14,15
 227 -25 227 -25 141.5 66 c 128,-1,16
 56 157 56 157 56 322 c 0,17,18
 56 548 56 548 209 709 c 0,19,20
 406 916 406 916 858 924 c 1,21,22
 854 1092 854 1092 834 1180 c 128,-1,23
 814 1268 814 1268 766 1315.5 c 128,-1,24
 718 1363 718 1363 653 1363 c 0,25,26
 591 1363 591 1363 532 1313.5 c 128,-1,27
 473 1264 473 1264 426 1138 c 1,0,-1
854 796 m 1,28,29
 610 782 610 782 496.5 728 c 128,-1,30
 383 674 383 674 309.5 551.5 c 128,-1,31
 236 429 236 429 236 303 c 0,32,33
 236 220 236 220 287 166 c 128,-1,34
 338 112 338 112 406 112 c 0,35,36
 481 112 481 112 566 167 c 0,37,38
 683 243 683 243 756.5 401.5 c 128,-1,39
 830 560 830 560 854 796 c 1,28,29
EndSplineSet
Validated: 1
EndChar

StartChar: summation
Encoding: 8721 8721 153
Width: 1460
Flags: W
LayerCount: 2
Fore
SplineSet
139 1491 m 1,0,-1
 1376 1491 l 1,1,-1
 1376 1327 l 1,2,-1
 388 1327 l 1,3,-1
 995 552 l 1,4,-1
 346 -270 l 1,5,-1
 1386 -270 l 1,6,-1
 1386 -431 l 1,7,-1
 122 -431 l 1,8,-1
 122 -244 l 1,9,-1
 742 544 l 1,10,-1
 139 1316 l 1,11,-1
 139 1491 l 1,0,-1
EndSplineSet
Validated: 1
EndChar

StartChar: product
Encoding: 8719 8719 154
Width: 1686
Flags: W
LayerCount: 2
Fore
SplineSet
161 1491 m 1,0,-1
 1523 1491 l 1,1,-1
 1523 -431 l 1,2,-1
 1332 -431 l 1,3,-1
 1332 1317 l 1,4,-1
 354 1317 l 1,5,-1
 354 -431 l 1,6,-1
 161 -431 l 1,7,-1
 161 1491 l 1,0,-1
EndSplineSet
Validated: 1
EndChar

StartChar: pi1
Encoding: 65539 -1 155
Width: 1124
Flags: W
LayerCount: 2
Fore
SplineSet
0 1063 m 1,0,-1
 1124 1063 l 1,1,-1
 1124 905 l 1,2,-1
 962 905 l 1,3,-1
 962 0 l 1,4,-1
 773 0 l 1,5,-1
 773 905 l 1,6,-1
 347 905 l 1,7,-1
 347 0 l 1,8,-1
 159 0 l 1,9,-1
 159 905 l 1,10,-1
 0 905 l 1,11,-1
 0 1063 l 1,0,-1
EndSplineSet
Validated: 1
EndChar

StartChar: integral
Encoding: 8747 8747 156
Width: 561
Flags: W
LayerCount: 2
Fore
SplineSet
201 948 m 1,0,-1
 218 1479 l 1,1,2
 227 1632 227 1632 268 1733 c 0,3,4
 295 1798 295 1798 342.5 1830.5 c 128,-1,5
 390 1863 390 1863 435 1863 c 0,6,7
 485 1863 485 1863 522.5 1829.5 c 128,-1,8
 560 1796 560 1796 560 1756 c 0,9,10
 560 1709 560 1709 533.5 1680.5 c 128,-1,11
 507 1652 507 1652 468 1652 c 0,12,13
 433 1652 433 1652 392 1688 c 0,14,15
 369 1708 369 1708 352 1708 c 256,16,17
 335 1708 335 1708 323.5 1693.5 c 128,-1,18
 312 1679 312 1679 312 1644 c 0,19,20
 312 1602 312 1602 321 1499 c 0,21,22
 358 1089 358 1089 358 834 c 0,23,24
 358 767 358 767 342 246 c 1,25,26
 334 -49 334 -49 252 -153 c 0,27,28
 198 -220 198 -220 118 -220 c 0,29,30
 66 -220 66 -220 33 -186 c 128,-1,31
 0 -152 0 -152 0 -99 c 0,32,33
 0 -54 0 -54 25.5 -27 c 128,-1,34
 51 0 51 0 90 0 c 0,35,36
 130 0 130 0 159 -32 c 128,-1,37
 188 -64 188 -64 208 -64 c 0,38,39
 225 -64 225 -64 236 -50 c 128,-1,40
 247 -36 247 -36 247 -3 c 0,41,42
 247 39 247 39 238 117 c 0,43,44
 201 432 201 432 201 948 c 1,0,-1
EndSplineSet
Validated: 1
EndChar

StartChar: ordfeminine
Encoding: 170 170 157
Width: 758
Flags: W
LayerCount: 2
Fore
SplineSet
548 853 m 1,0,1
 426 746 426 746 292 746 c 0,2,3
 179 746 179 746 113 807.5 c 128,-1,4
 47 869 47 869 47 965 c 0,5,6
 47 1013 47 1013 63 1049 c 128,-1,7
 79 1085 79 1085 110.5 1113 c 128,-1,8
 142 1141 142 1141 192 1158 c 0,9,10
 227 1169 227 1169 291 1179 c 2,11,-1
 438 1201 l 1,12,13
 510 1215 510 1215 534 1221 c 1,14,15
 533 1291 533 1291 520 1315 c 128,-1,16
 507 1339 507 1339 471.5 1356.5 c 128,-1,17
 436 1374 436 1374 377 1374 c 0,18,19
 298 1374 298 1374 259 1341.5 c 128,-1,20
 220 1309 220 1309 211 1249 c 1,21,-1
 74 1283 l 1,22,23
 86 1372 86 1372 162 1431.5 c 128,-1,24
 238 1491 238 1491 379 1491 c 0,25,26
 543 1491 543 1491 611 1430 c 1,27,28
 678 1368 678 1368 678 1249 c 2,29,-1
 678 1009 l 1,30,-1
 677 948 l 1,31,32
 677 814 677 814 718 764 c 1,33,-1
 570 764 l 1,34,35
 550 804 550 804 548 853 c 1,0,1
533 1104 m 1,36,37
 480 1090 480 1090 341 1068 c 0,38,39
 251 1054 251 1054 224 1029 c 0,40,41
 196 1003 196 1003 196 965 c 0,42,43
 196 924 196 924 230 895 c 128,-1,44
 264 866 264 866 326 866 c 0,45,46
 399 866 399 866 453 905 c 128,-1,47
 507 944 507 944 525 1001 c 0,48,49
 532 1021 532 1021 533 1104 c 1,36,37
EndSplineSet
Validated: 1
EndChar

StartChar: ordmasculine
Encoding: 186 186 158
Width: 748
Flags: W
LayerCount: 2
Fore
SplineSet
373 1491 m 256,0,1
 518 1491 518 1491 609.5 1391 c 128,-1,2
 701 1291 701 1291 701 1115 c 0,3,4
 701 940 701 940 609 840 c 128,-1,5
 517 740 517 740 374 740 c 0,6,7
 229 740 229 740 137 838 c 128,-1,8
 45 936 45 936 45 1111 c 0,9,10
 45 1291 45 1291 136.5 1391 c 128,-1,11
 228 1491 228 1491 373 1491 c 256,0,1
373 1358 m 0,12,13
 292 1358 292 1358 242.5 1301 c 128,-1,14
 193 1244 193 1244 193 1115 c 0,15,16
 193 989 193 989 243.5 930.5 c 128,-1,17
 294 872 294 872 373 872 c 0,18,19
 453 872 453 872 503 930.5 c 128,-1,20
 553 989 553 989 553 1120 c 0,21,22
 553 1242 553 1242 502.5 1300 c 128,-1,23
 452 1358 452 1358 373 1358 c 0,12,13
EndSplineSet
Validated: 1
EndChar

StartChar: Ohm
Encoding: 8486 8486 159
Width: 1573
Flags: W
LayerCount: 2
Fore
SplineSet
496 160 m 1,0,1
 388 227 388 227 331 290 c 0,2,3
 244 386 244 386 197 515.5 c 128,-1,4
 150 645 150 645 150 802 c 0,5,6
 150 998 150 998 229.5 1162.5 c 128,-1,7
 309 1327 309 1327 460.5 1415 c 128,-1,8
 612 1503 612 1503 808 1503 c 0,9,10
 1144 1503 1144 1503 1324 1249 c 0,11,12
 1455 1063 1455 1063 1455 801 c 0,13,14
 1455 633 1455 633 1401 503.5 c 128,-1,15
 1347 374 1347 374 1260 281 c 0,16,17
 1207 223 1207 223 1111 160 c 1,18,-1
 1475 166 l 1,19,-1
 1475 0 l 1,20,-1
 900 0 l 1,21,-1
 900 177 l 1,22,23
 980 217 980 217 1024 255 c 0,24,25
 1096 316 1096 316 1146 400 c 128,-1,26
 1196 484 1196 484 1221.5 579 c 128,-1,27
 1247 674 1247 674 1247 777 c 0,28,29
 1247 915 1247 915 1197.5 1054.5 c 128,-1,30
 1148 1194 1148 1194 1047.5 1267 c 128,-1,31
 947 1340 947 1340 804 1340 c 0,32,33
 613 1340 613 1340 508 1220 c 1,34,35
 362 1051 362 1051 362 780 c 0,36,37
 362 563 362 563 453 407.5 c 128,-1,38
 544 252 544 252 704 180 c 1,39,-1
 704 0 l 1,40,-1
 127 0 l 1,41,-1
 127 168 l 1,42,-1
 496 160 l 1,0,1
EndSplineSet
Validated: 1
EndChar

StartChar: ae
Encoding: 230 230 160
Width: 1821
Flags: W
LayerCount: 2
Fore
SplineSet
1734 325 m 1,0,1
 1684 158 1684 158 1564 67 c 128,-1,2
 1444 -24 1444 -24 1266 -24 c 0,3,4
 1139 -24 1139 -24 1043.5 24 c 128,-1,5
 948 72 948 72 871 174 c 1,6,7
 767 72 767 72 660.5 24 c 128,-1,8
 554 -24 554 -24 431 -24 c 0,9,10
 259 -24 259 -24 163.5 64.5 c 128,-1,11
 68 153 68 153 68 280 c 0,12,13
 68 366 68 366 117.5 441.5 c 128,-1,14
 167 517 167 517 255.5 556 c 128,-1,15
 344 595 344 595 538 620 c 0,16,17
 688 640 688 640 790 669 c 1,18,19
 791 694 791 694 791 710 c 0,20,21
 791 836 791 836 738.5 886.5 c 128,-1,22
 686 937 686 937 555 937 c 0,23,24
 468 937 468 937 408 916 c 128,-1,25
 348 895 348 895 319.5 856.5 c 128,-1,26
 291 818 291 818 272 733 c 1,27,-1
 97 754 l 1,28,29
 125 871 125 871 177.5 939.5 c 128,-1,30
 230 1008 230 1008 328 1047 c 128,-1,31
 426 1086 426 1086 557 1086 c 0,32,33
 724 1086 724 1086 826 1036 c 0,34,35
 885 1007 885 1007 925 943 c 1,36,37
 989 1013 989 1013 1070 1049.5 c 128,-1,38
 1151 1086 1151 1086 1266 1086 c 0,39,40
 1428 1086 1428 1086 1534 1007.5 c 128,-1,41
 1640 929 1640 929 1689 800 c 128,-1,42
 1738 671 1738 671 1738 546 c 0,43,44
 1738 527 1738 527 1736 485 c 1,45,-1
 969 485 l 1,46,47
 971 341 971 341 1004.5 276 c 128,-1,48
 1038 211 1038 211 1111.5 167.5 c 128,-1,49
 1185 124 1185 124 1273 124 c 0,50,51
 1376 124 1376 124 1447.5 183 c 128,-1,52
 1519 242 1519 242 1546 349 c 1,53,-1
 1734 325 l 1,0,1
969 633 m 1,54,-1
 1553 633 l 1,55,56
 1539 791 1539 791 1463 864 c 128,-1,57
 1387 937 1387 937 1265 937 c 0,58,59
 1139 937 1139 937 1058.5 857 c 128,-1,60
 978 777 978 777 969 633 c 1,54,-1
793 533 m 1,61,62
 714 499 714 499 471 460 c 0,63,64
 362 443 362 443 318 409 c 0,65,66
 259 362 259 362 259 286 c 0,67,68
 259 215 259 215 312 166.5 c 128,-1,69
 365 118 365 118 466 118 c 0,70,71
 581 118 581 118 666.5 175 c 128,-1,72
 752 232 752 232 778 317 c 0,73,74
 793 369 793 369 793 533 c 1,61,62
EndSplineSet
Validated: 1
EndChar

StartChar: oslash
Encoding: 248 248 161
Width: 1251
Flags: W
LayerCount: 2
Fore
SplineSet
919 999 m 1,0,-1
 1018 1127 l 1,1,-1
 1114 1057 l 1,2,-1
 1007 919 l 1,3,4
 1070 833 1070 833 1093 763 c 1,5,6
 1124 663 1124 663 1124 530 c 0,7,8
 1124 230 1124 230 955 89 c 0,9,10
 818 -24 818 -24 625 -24 c 0,11,12
 466 -24 466 -24 344 56 c 1,13,-1
 239 -79 l 1,14,-1
 145 -8 l 1,15,-1
 253 133 l 1,16,17
 194 201 194 201 169 269 c 0,18,19
 129 378 129 378 129 516 c 0,20,21
 129 817 129 817 276 951.5 c 128,-1,22
 423 1086 423 1086 621 1086 c 0,23,24
 703 1086 703 1086 772 1065 c 128,-1,25
 841 1044 841 1044 919 999 c 1,0,-1
818 867 m 1,26,27
 727 937 727 937 627 937 c 0,28,29
 494 937 494 937 404 835 c 128,-1,30
 314 733 314 733 314 531 c 0,31,32
 314 381 314 381 366 280 c 1,33,-1
 818 867 l 1,26,27
893 770 m 1,34,-1
 444 187 l 1,35,36
 522 124 522 124 620 124 c 0,37,38
 759 124 759 124 849.5 226 c 128,-1,39
 940 328 940 328 940 532 c 0,40,41
 940 608 940 608 928 665 c 0,42,43
 920 707 920 707 893 770 c 1,34,-1
EndSplineSet
Validated: 1
EndChar

StartChar: questiondown
Encoding: 191 191 162
Width: 1251
Flags: W
LayerCount: 2
Fore
SplineSet
733 1062 m 1,0,-1
 733 857 l 1,1,-1
 528 857 l 1,2,-1
 528 1062 l 1,3,-1
 733 1062 l 1,0,-1
721 701 m 1,4,5
 722 667 722 667 722 650 c 0,6,7
 722 540 722 540 692 463 c 0,8,9
 670 405 670 405 621 346 c 0,10,11
 585 303 585 303 491.5 221 c 128,-1,12
 398 139 398 139 370.5 90 c 128,-1,13
 343 41 343 41 343 -17 c 0,14,15
 343 -123 343 -123 425 -202 c 128,-1,16
 507 -281 507 -281 626 -281 c 0,17,18
 740 -281 740 -281 817.5 -209 c 128,-1,19
 895 -137 895 -137 919 15 c 1,20,-1
 1103 -6 l 1,21,22
 1078 -209 1078 -209 954.5 -319 c 128,-1,23
 831 -429 831 -429 629 -429 c 0,24,25
 413 -429 413 -429 285.5 -312 c 128,-1,26
 158 -195 158 -195 158 -29 c 0,27,28
 158 68 158 68 202.5 148 c 128,-1,29
 247 228 247 228 378 344 c 0,30,31
 467 423 467 423 494 460 c 128,-1,32
 521 497 521 497 533.5 545 c 128,-1,33
 546 593 546 593 548 701 c 1,34,-1
 721 701 l 1,4,5
EndSplineSet
Validated: 1
EndChar

StartChar: exclamdown
Encoding: 161 161 163
Width: 682
Flags: W
LayerCount: 2
Fore
SplineSet
447 1062 m 1,0,-1
 447 857 l 1,1,-1
 240 857 l 1,2,-1
 240 1062 l 1,3,-1
 447 1062 l 1,0,-1
400 697 m 1,4,-1
 455 -79 l 1,5,-1
 455 -404 l 1,6,-1
 232 -404 l 1,7,-1
 232 -79 l 1,8,-1
 284 697 l 1,9,-1
 400 697 l 1,4,-1
EndSplineSet
Validated: 1
EndChar

StartChar: logicalnot
Encoding: 172 172 164
Width: 1196
Flags: W
LayerCount: 2
Fore
SplineSet
1082 424 m 1,0,-1
 912 424 l 1,1,-1
 912 862 l 1,2,-1
 114 862 l 1,3,-1
 114 1030 l 1,4,-1
 1082 1030 l 1,5,-1
 1082 424 l 1,0,-1
EndSplineSet
Validated: 1
EndChar

StartChar: radical
Encoding: 8730 8730 165
Width: 1124
Flags: W
LayerCount: 2
Fore
SplineSet
1050 1869 m 1,0,-1
 1124 1869 l 1,1,-1
 812 -78 l 1,2,-1
 316 943 l 1,3,-1
 118 852 l 1,4,-1
 84 916 l 1,5,-1
 385 1067 l 1,6,-1
 790 244 l 1,7,-1
 1050 1869 l 1,0,-1
EndSplineSet
Validated: 1
EndChar

StartChar: florin
Encoding: 402 402 166
Width: 1139
Flags: W
LayerCount: 2
Fore
SplineSet
46 -405 m 1,0,-1
 81 -250 l 1,1,2
 182 -272 182 -272 233 -272 c 0,3,4
 287 -272 287 -272 316 -244 c 128,-1,5
 345 -216 345 -216 361 -120 c 2,6,-1
 538 922 l 1,7,-1
 337 922 l 1,8,-1
 361 1062 l 1,9,-1
 562 1062 l 1,10,-1
 586 1195 l 2,11,12
 608 1315 608 1315 631 1360 c 0,13,14
 662 1422 662 1422 719.5 1457 c 128,-1,15
 777 1492 777 1492 870 1492 c 0,16,17
 950 1492 950 1492 1085 1454 c 1,18,-1
 1050 1301 l 1,19,20
 947 1325 947 1325 896 1325 c 0,21,22
 840 1325 840 1325 812 1297.5 c 128,-1,23
 784 1270 784 1270 765 1165 c 2,24,-1
 746 1062 l 1,25,-1
 950 1062 l 1,26,-1
 925 922 l 1,27,-1
 721 922 l 1,28,-1
 530 -170 l 2,29,30
 504 -318 504 -318 443 -374.5 c 128,-1,31
 382 -431 382 -431 270 -431 c 0,32,33
 176 -431 176 -431 46 -405 c 1,0,-1
EndSplineSet
Validated: 1
EndChar

StartChar: approxequal
Encoding: 8776 8776 167
Width: 1124
Flags: W
LayerCount: 2
Fore
SplineSet
51 738 m 1,0,-1
 51 943 l 1,1,2
 157 1063 157 1063 329 1063 c 0,3,4
 389 1063 389 1063 454.5 1046 c 128,-1,5
 520 1029 520 1029 643 976 c 0,6,7
 712 946 712 946 746.5 937.5 c 128,-1,8
 781 929 781 929 816 929 c 0,9,10
 881 929 881 929 950.5 968 c 128,-1,11
 1020 1007 1020 1007 1074 1066 c 1,12,-1
 1074 854 l 1,13,14
 1010 794 1010 794 944.5 767 c 128,-1,15
 879 740 879 740 797 740 c 0,16,17
 737 740 737 740 683 753.5 c 128,-1,18
 629 767 629 767 510 820.5 c 128,-1,19
 391 874 391 874 312 874 c 0,20,21
 248 874 248 874 191.5 846.5 c 128,-1,22
 135 819 135 819 51 738 c 1,0,-1
51 376 m 1,23,-1
 51 581 l 1,24,25
 157 701 157 701 329 701 c 0,26,27
 389 701 389 701 454.5 684 c 128,-1,28
 520 667 520 667 643 614 c 0,29,30
 712 585 712 585 746.5 576 c 128,-1,31
 781 567 781 567 816 567 c 0,32,33
 881 567 881 567 950.5 606 c 128,-1,34
 1020 645 1020 645 1074 704 c 1,35,-1
 1074 492 l 1,36,37
 1010 432 1010 432 944.5 405 c 128,-1,38
 879 378 879 378 797 378 c 0,39,40
 737 378 737 378 683 392 c 128,-1,41
 629 406 629 406 510 459 c 128,-1,42
 391 512 391 512 312 512 c 0,43,44
 248 512 248 512 191.5 484.5 c 128,-1,45
 135 457 135 457 51 376 c 1,23,-1
EndSplineSet
Validated: 1
EndChar

StartChar: uni2206
Encoding: 8710 8710 168
Width: 1253
Flags: W
LayerCount: 2
Fore
SplineSet
1226 0 m 1,0,-1
 26 0 l 1,1,-1
 654 1387 l 1,2,-1
 1226 0 l 1,0,-1
990 82 m 1,3,-1
 591 1049 l 1,4,-1
 151 82 l 1,5,-1
 990 82 l 1,3,-1
EndSplineSet
Validated: 1
EndChar

StartChar: guillemotleft
Encoding: 171 171 169
Width: 1139
Flags: W
LayerCount: 2
Fore
SplineSet
340 528 m 1,0,-1
 599 72 l 1,1,-1
 453 72 l 1,2,-1
 134 528 l 1,3,-1
 453 984 l 1,4,-1
 601 984 l 1,5,-1
 340 528 l 1,0,-1
727 528 m 1,6,-1
 991 72 l 1,7,-1
 839 72 l 1,8,-1
 526 528 l 1,9,-1
 839 984 l 1,10,-1
 991 984 l 1,11,-1
 727 528 l 1,6,-1
EndSplineSet
Validated: 1
EndChar

StartChar: guillemotright
Encoding: 187 187 170
Width: 1139
Flags: W
LayerCount: 2
Fore
SplineSet
791 528 m 1,0,-1
 530 984 l 1,1,-1
 678 984 l 1,2,-1
 997 528 l 1,3,-1
 678 72 l 1,4,-1
 531 72 l 1,5,-1
 791 528 l 1,0,-1
404 528 m 1,6,-1
 140 984 l 1,7,-1
 291 984 l 1,8,-1
 605 528 l 1,9,-1
 291 72 l 1,10,-1
 140 72 l 1,11,-1
 404 528 l 1,6,-1
EndSplineSet
Validated: 1
EndChar

StartChar: ellipsis
Encoding: 8230 8230 171
Width: 2048
Flags: W
LayerCount: 2
Fore
SplineSet
239 0 m 1,0,-1
 239 205 l 1,1,-1
 444 205 l 1,2,-1
 444 0 l 1,3,-1
 239 0 l 1,0,-1
922 0 m 1,4,-1
 922 205 l 1,5,-1
 1127 205 l 1,6,-1
 1127 0 l 1,7,-1
 922 0 l 1,4,-1
1604 0 m 1,8,-1
 1604 205 l 1,9,-1
 1810 205 l 1,10,-1
 1810 0 l 1,11,-1
 1604 0 l 1,8,-1
EndSplineSet
Validated: 1
EndChar

StartChar: OE
Encoding: 338 338 175
Width: 2048
Flags: W
LayerCount: 2
Fore
SplineSet
1983 173 m 1,0,-1
 1983 0 l 1,1,-1
 1121 0 l 1,2,-1
 1121 212 l 1,3,4
 986 -25 986 -25 721 -25 c 0,5,6
 420 -25 420 -25 265 207 c 0,7,8
 129 412 129 412 129 735 c 0,9,10
 129 1057 129 1057 271 1274 c 128,-1,11
 413 1491 413 1491 721 1491 c 0,12,13
 985 1491 985 1491 1121 1268 c 1,14,-1
 1121 1466 l 1,15,-1
 1952 1466 l 1,16,-1
 1952 1293 l 1,17,-1
 1302 1293 l 1,18,-1
 1302 845 l 1,19,-1
 1901 845 l 1,20,-1
 1901 673 l 1,21,-1
 1302 673 l 1,22,-1
 1302 173 l 1,23,-1
 1983 173 l 1,0,-1
720 1334 m 0,24,25
 619 1334 619 1334 523 1269 c 128,-1,26
 427 1204 427 1204 378 1071.5 c 128,-1,27
 329 939 329 939 329 720 c 0,28,29
 329 417 329 417 444.5 274 c 128,-1,30
 560 131 560 131 720 131 c 0,31,32
 881 131 881 131 995.5 273.5 c 128,-1,33
 1110 416 1110 416 1110 745 c 0,34,35
 1110 1051 1110 1051 994.5 1192.5 c 128,-1,36
 879 1334 879 1334 720 1334 c 0,24,25
EndSplineSet
Validated: 1
EndChar

StartChar: oe
Encoding: 339 339 176
Width: 1933
Flags: W
LayerCount: 2
Fore
SplineSet
978 175 m 1,0,1
 902 76 902 76 803 26 c 128,-1,2
 704 -24 704 -24 582 -24 c 0,3,4
 357 -24 357 -24 219.5 119 c 128,-1,5
 82 262 82 262 82 518 c 0,6,7
 82 687 82 687 140.5 820.5 c 128,-1,8
 199 954 199 954 318.5 1020 c 128,-1,9
 438 1086 438 1086 584 1086 c 0,10,11
 722 1086 722 1086 824.5 1028.5 c 128,-1,12
 927 971 927 971 978 883 c 1,13,14
 1042 976 1042 976 1142.5 1031 c 128,-1,15
 1243 1086 1243 1086 1367 1086 c 0,16,17
 1587 1086 1587 1086 1723 935 c 128,-1,18
 1859 784 1859 784 1857 483 c 1,19,-1
 1073 483 l 1,20,21
 1076 317 1076 317 1165.5 220.5 c 128,-1,22
 1255 124 1255 124 1389 124 c 0,23,24
 1488 124 1488 124 1559.5 179.5 c 128,-1,25
 1631 235 1631 235 1663 346 c 1,26,-1
 1843 320 l 1,27,28
 1800 155 1800 155 1682.5 65.5 c 128,-1,29
 1565 -24 1565 -24 1386 -24 c 0,30,31
 1252 -24 1252 -24 1146 28.5 c 128,-1,32
 1040 81 1040 81 978 175 c 1,0,1
267 533 m 0,33,34
 267 347 267 347 338 250 c 0,35,36
 430 124 430 124 577 124 c 0,37,38
 706 124 706 124 798 230 c 128,-1,39
 890 336 890 336 890 535 c 0,40,41
 890 733 890 733 799.5 835.5 c 128,-1,42
 709 938 709 938 577 938 c 0,43,44
 490 938 490 938 417 889 c 128,-1,45
 344 840 344 840 305.5 744 c 128,-1,46
 267 648 267 648 267 533 c 0,33,34
1080 631 m 1,47,-1
 1667 631 l 1,48,49
 1655 782 1655 782 1575.5 860 c 128,-1,50
 1496 938 1496 938 1378 938 c 0,51,52
 1258 938 1258 938 1174.5 856 c 128,-1,53
 1091 774 1091 774 1080 631 c 1,47,-1
EndSplineSet
Validated: 33
EndChar

StartChar: endash
Encoding: 8211 8211 177
Width: 1139
Flags: W
LayerCount: 2
Fore
SplineSet
-4 458 m 1,0,-1
 -4 603 l 1,1,-1
 1135 603 l 1,2,-1
 1135 458 l 1,3,-1
 -4 458 l 1,0,-1
EndSplineSet
Validated: 1
EndChar

StartChar: emdash
Encoding: 8212 8212 178
Width: 2048
Flags: W
LayerCount: 2
Fore
SplineSet
0 458 m 1,0,-1
 0 603 l 1,1,-1
 2048 603 l 1,2,-1
 2048 458 l 1,3,-1
 0 458 l 1,0,-1
EndSplineSet
Validated: 1
EndChar

StartChar: quotedblleft
Encoding: 8220 8220 179
Width: 682
Flags: W
LayerCount: 2
Fore
SplineSet
276 1220 m 1,0,-1
 276 1011 l 1,1,-1
 83 1011 l 1,2,-1
 83 1176 l 2,3,4
 83 1310 83 1310 115 1370 c 0,5,6
 157 1450 157 1450 248 1491 c 1,7,-1
 292 1421 l 1,8,9
 237 1398 237 1398 211 1352.5 c 128,-1,10
 185 1307 185 1307 182 1220 c 1,11,-1
 276 1220 l 1,0,-1
586 1220 m 1,12,-1
 586 1011 l 1,13,-1
 393 1011 l 1,14,-1
 393 1176 l 2,15,16
 393 1310 393 1310 425 1370 c 0,17,18
 467 1450 467 1450 558 1491 c 1,19,-1
 602 1421 l 1,20,21
 547 1398 547 1398 521 1352.5 c 128,-1,22
 495 1307 495 1307 492 1220 c 1,23,-1
 586 1220 l 1,12,-1
EndSplineSet
Validated: 1
EndChar

StartChar: quotedblright
Encoding: 8221 8221 180
Width: 682
Flags: W
LayerCount: 2
Fore
SplineSet
87 1272 m 1,0,-1
 87 1481 l 1,1,-1
 280 1481 l 1,2,-1
 280 1316 l 2,3,4
 280 1182 280 1182 249 1123 c 0,5,6
 206 1042 206 1042 115 1001 c 1,7,-1
 71 1072 l 1,8,9
 125 1094 125 1094 151.5 1141.5 c 128,-1,10
 178 1189 178 1189 181 1272 c 1,11,-1
 87 1272 l 1,0,-1
397 1272 m 1,12,-1
 397 1481 l 1,13,-1
 590 1481 l 1,14,-1
 590 1316 l 2,15,16
 590 1182 590 1182 559 1123 c 0,17,18
 516 1042 516 1042 425 1001 c 1,19,-1
 381 1072 l 1,20,21
 435 1094 435 1094 461.5 1141.5 c 128,-1,22
 488 1189 488 1189 491 1272 c 1,23,-1
 397 1272 l 1,12,-1
EndSplineSet
Validated: 1
EndChar

StartChar: quoteleft
Encoding: 8216 8216 181
Width: 455
Flags: W
LayerCount: 2
Fore
SplineSet
321 1220 m 1,0,-1
 321 1011 l 1,1,-1
 128 1011 l 1,2,-1
 128 1176 l 2,3,4
 128 1310 128 1310 160 1370 c 0,5,6
 202 1450 202 1450 293 1491 c 1,7,-1
 337 1421 l 1,8,9
 282 1398 282 1398 256 1352.5 c 128,-1,10
 230 1307 230 1307 227 1220 c 1,11,-1
 321 1220 l 1,0,-1
EndSplineSet
Validated: 1
EndChar

StartChar: quoteright
Encoding: 8217 8217 182
Width: 455
Flags: W
LayerCount: 2
Fore
SplineSet
124 1272 m 1,0,-1
 124 1481 l 1,1,-1
 317 1481 l 1,2,-1
 317 1316 l 2,3,4
 317 1182 317 1182 286 1123 c 0,5,6
 243 1042 243 1042 152 1001 c 1,7,-1
 108 1072 l 1,8,9
 162 1094 162 1094 188.5 1141.5 c 128,-1,10
 215 1189 215 1189 218 1272 c 1,11,-1
 124 1272 l 1,0,-1
EndSplineSet
Validated: 1
EndChar

StartChar: divide
Encoding: 247 247 183
Width: 1124
Flags: W
LayerCount: 2
Fore
SplineSet
459 922 m 1,0,-1
 459 1127 l 1,1,-1
 664 1127 l 1,2,-1
 664 922 l 1,3,-1
 459 922 l 1,0,-1
1046 639 m 1,4,-1
 78 639 l 1,5,-1
 78 807 l 1,6,-1
 1046 807 l 1,7,-1
 1046 639 l 1,4,-1
459 319 m 1,8,-1
 459 524 l 1,9,-1
 664 524 l 1,10,-1
 664 319 l 1,11,-1
 459 319 l 1,8,-1
EndSplineSet
Validated: 1
EndChar

StartChar: lozenge
Encoding: 9674 9674 184
Width: 1012
Flags: W
LayerCount: 2
Fore
SplineSet
549 1422 m 1,0,-1
 967 709 l 1,1,-1
 549 0 l 1,2,-1
 438 0 l 1,3,-1
 47 709 l 1,4,-1
 438 1422 l 1,5,-1
 549 1422 l 1,0,-1
495 1325 m 1,6,-1
 155 709 l 1,7,-1
 495 94 l 1,8,-1
 854 709 l 1,9,-1
 495 1325 l 1,6,-1
EndSplineSet
Validated: 1
EndChar

StartChar: fraction
Encoding: 8260 8260 187
AltUni2: 002215.ffffffff.0
Width: 342
Flags: W
LayerCount: 2
Fore
SplineSet
-455 -57 m 1,0,-1
 646 1491 l 1,1,-1
 803 1491 l 1,2,-1
 -298 -57 l 1,3,-1
 -455 -57 l 1,0,-1
EndSplineSet
Validated: 1
EndChar

StartChar: Euro
Encoding: 8364 8364 188
Width: 1139
Flags: W
LayerCount: 2
Fore
SplineSet
790 1325 m 0,0,1
 622 1325 622 1325 508 1244 c 0,2,3
 440 1196 440 1196 385 1108 c 0,4,5
 329 1017 329 1017 319 935 c 1,6,-1
 1001 935 l 1,7,-1
 974 801 l 1,8,-1
 303 801 l 1,9,10
 302 780 302 780 302 761 c 0,11,12
 302 684 302 684 303 669 c 1,13,-1
 947 669 l 1,14,-1
 919 535 l 1,15,-1
 324 535 l 1,16,17
 366 306 366 306 526 210 c 0,18,19
 641 141 641 141 775 141 c 0,20,21
 962 141 962 141 1067 239 c 1,22,-1
 1067 33 l 1,23,24
 942 -25 942 -25 791 -25 c 0,25,26
 339 -25 339 -25 180 351 c 0,27,28
 148 427 148 427 125 535 c 1,29,-1
 -28 535 l 1,30,-1
 0 669 l 1,31,-1
 105 669 l 1,32,33
 102 711 102 711 102 760 c 0,34,35
 102 780 102 780 103 801 c 1,36,-1
 -28 801 l 1,37,-1
 0 935 l 1,38,-1
 116 935 l 1,39,40
 178 1261 178 1261 439 1403 c 0,41,42
 600 1491 600 1491 794 1491 c 0,43,44
 980 1491 980 1491 1107 1410 c 1,45,-1
 1067 1224 l 1,46,47
 945 1325 945 1325 790 1325 c 0,0,1
EndSplineSet
Validated: 1
EndChar

StartChar: guilsinglleft
Encoding: 8249 8249 189
Width: 682
Flags: W
LayerCount: 2
Fore
SplineSet
291 527 m 1,0,-1
 556 72 l 1,1,-1
 407 72 l 1,2,-1
 92 527 l 1,3,-1
 407 984 l 1,4,-1
 556 984 l 1,5,-1
 291 527 l 1,0,-1
EndSplineSet
Validated: 1
EndChar

StartChar: guilsinglright
Encoding: 8250 8250 190
Width: 682
Flags: W
LayerCount: 2
Fore
SplineSet
357 530 m 1,0,-1
 92 984 l 1,1,-1
 241 984 l 1,2,-1
 545 536 l 1,3,-1
 241 72 l 1,4,-1
 92 72 l 1,5,-1
 357 530 l 1,0,-1
EndSplineSet
Validated: 1
EndChar

StartChar: fi
Encoding: 61441 61441 191
AltUni2: 00fb01.ffffffff.0
Width: 1024
Flags: W
LayerCount: 2
Fore
SplineSet
183 0 m 1,0,-1
 183 923 l 1,1,-1
 23 923 l 1,2,-1
 23 1062 l 1,3,-1
 183 1062 l 1,4,-1
 183 1165 l 2,5,6
 183 1323 183 1323 251 1407 c 128,-1,7
 319 1491 319 1491 466 1491 c 0,8,9
 565 1491 565 1491 649 1468 c 1,10,-1
 621 1316 l 1,11,12
 568 1325 568 1325 524 1325 c 0,13,14
 431 1325 431 1325 397 1288 c 128,-1,15
 363 1251 363 1251 363 1131 c 2,16,-1
 363 1062 l 1,17,-1
 569 1062 l 1,18,-1
 569 923 l 1,19,-1
 363 923 l 1,20,-1
 363 0 l 1,21,-1
 183 0 l 1,0,-1
705 1259 m 1,22,-1
 705 1466 l 1,23,-1
 885 1466 l 1,24,-1
 885 1259 l 1,25,-1
 705 1259 l 1,22,-1
705 0 m 1,26,-1
 705 1062 l 1,27,-1
 885 1062 l 1,28,-1
 885 0 l 1,29,-1
 705 0 l 1,26,-1
EndSplineSet
Validated: 1
EndChar

StartChar: fl
Encoding: 61442 61442 192
AltUni2: 00fb02.ffffffff.0
Width: 1024
Flags: W
LayerCount: 2
Fore
SplineSet
183 0 m 1,0,-1
 183 923 l 1,1,-1
 23 923 l 1,2,-1
 23 1062 l 1,3,-1
 183 1062 l 1,4,-1
 183 1165 l 2,5,6
 183 1323 183 1323 251 1407 c 128,-1,7
 319 1491 319 1491 466 1491 c 0,8,9
 565 1491 565 1491 649 1468 c 1,10,-1
 621 1316 l 1,11,12
 568 1325 568 1325 524 1325 c 0,13,14
 431 1325 431 1325 397 1288 c 128,-1,15
 363 1251 363 1251 363 1131 c 2,16,-1
 363 1062 l 1,17,-1
 569 1062 l 1,18,-1
 569 923 l 1,19,-1
 363 923 l 1,20,-1
 363 0 l 1,21,-1
 183 0 l 1,0,-1
703 0 m 1,22,-1
 703 1466 l 1,23,-1
 883 1466 l 1,24,-1
 883 0 l 1,25,-1
 703 0 l 1,22,-1
EndSplineSet
Validated: 1
EndChar

StartChar: daggerdbl
Encoding: 8225 8225 193
Width: 1139
Flags: W
LayerCount: 2
Fore
SplineSet
475 -346 m 1,0,-1
 475 24 l 1,1,-1
 73 24 l 1,2,-1
 73 185 l 1,3,-1
 475 185 l 1,4,-1
 475 910 l 1,5,-1
 73 910 l 1,6,-1
 73 1071 l 1,7,-1
 475 1071 l 1,8,-1
 475 1446 l 1,9,-1
 655 1446 l 1,10,-1
 655 1071 l 1,11,-1
 1058 1071 l 1,12,-1
 1058 910 l 1,13,-1
 655 910 l 1,14,-1
 655 185 l 1,15,-1
 1058 185 l 1,16,-1
 1058 24 l 1,17,-1
 655 24 l 1,18,-1
 655 -346 l 1,19,-1
 475 -346 l 1,0,-1
EndSplineSet
Validated: 1
EndChar

StartChar: periodcentered
Encoding: 183 183 194
AltUni2: 002219.ffffffff.0
Width: 569
Flags: W
LayerCount: 2
Fore
SplineSet
185 619 m 1,0,-1
 185 824 l 1,1,-1
 390 824 l 1,2,-1
 390 619 l 1,3,-1
 185 619 l 1,0,-1
EndSplineSet
Validated: 1
EndChar

StartChar: quotesinglbase
Encoding: 8218 8218 195
Width: 455
Flags: W
LayerCount: 2
Fore
SplineSet
124 0 m 1,0,-1
 124 209 l 1,1,-1
 317 209 l 1,2,-1
 317 44 l 2,3,4
 317 -90 317 -90 286 -149 c 0,5,6
 243 -230 243 -230 152 -271 c 1,7,-1
 108 -200 l 1,8,9
 162 -178 162 -178 188.5 -130.5 c 128,-1,10
 215 -83 215 -83 218 0 c 1,11,-1
 124 0 l 1,0,-1
EndSplineSet
Validated: 1
EndChar

StartChar: quotedblbase
Encoding: 8222 8222 196
Width: 682
Flags: W
LayerCount: 2
Fore
SplineSet
87 0 m 1,0,-1
 87 209 l 1,1,-1
 280 209 l 1,2,-1
 280 44 l 2,3,4
 280 -90 280 -90 249 -149 c 0,5,6
 206 -230 206 -230 115 -271 c 1,7,-1
 71 -200 l 1,8,9
 125 -178 125 -178 151.5 -130.5 c 128,-1,10
 178 -83 178 -83 181 0 c 1,11,-1
 87 0 l 1,0,-1
397 0 m 1,12,-1
 397 209 l 1,13,-1
 590 209 l 1,14,-1
 590 44 l 2,15,16
 590 -90 590 -90 559 -149 c 0,17,18
 516 -230 516 -230 425 -271 c 1,19,-1
 381 -200 l 1,20,21
 435 -178 435 -178 461.5 -130.5 c 128,-1,22
 488 -83 488 -83 491 0 c 1,23,-1
 397 0 l 1,12,-1
EndSplineSet
Validated: 1
EndChar

StartChar: perthousand
Encoding: 8240 8240 197
Width: 2048
Flags: W
LayerCount: 2
Fore
SplineSet
320 -54 m 1,0,-1
 921 1491 l 1,1,-1
 1052 1491 l 1,2,-1
 452 -54 l 1,3,-1
 320 -54 l 1,0,-1
37 1099 m 0,4,5
 37 1298 37 1298 115.5 1388.5 c 128,-1,6
 194 1479 194 1479 323 1479 c 0,7,8
 451 1479 451 1479 531 1388 c 128,-1,9
 611 1297 611 1297 611 1103 c 0,10,11
 611 907 611 907 541 807.5 c 128,-1,12
 471 708 471 708 325 708 c 0,13,14
 197 708 197 708 117 801 c 128,-1,15
 37 894 37 894 37 1099 c 0,4,5
185 1091 m 0,16,17
 185 939 185 939 224.5 886 c 128,-1,18
 264 833 264 833 329 833 c 0,19,20
 388 833 388 833 420 878 c 0,21,22
 463 938 463 938 463 1093 c 0,23,24
 463 1245 463 1245 419 1308 c 0,25,26
 385 1355 385 1355 325 1355 c 0,27,28
 263 1355 263 1355 230 1309 c 0,29,30
 185 1246 185 1246 185 1091 c 0,16,17
763 336 m 0,31,32
 763 535 763 535 841.5 625.5 c 128,-1,33
 920 716 920 716 1048 716 c 256,34,35
 1176 716 1176 716 1256.5 625 c 128,-1,36
 1337 534 1337 534 1337 340 c 0,37,38
 1337 144 1337 144 1267 45 c 128,-1,39
 1197 -54 1197 -54 1051 -54 c 0,40,41
 923 -54 923 -54 843 38.5 c 128,-1,42
 763 131 763 131 763 336 c 0,31,32
911 328 m 0,43,44
 911 177 911 177 950.5 123.5 c 128,-1,45
 990 70 990 70 1055 70 c 0,46,47
 1114 70 1114 70 1146 115 c 0,48,49
 1189 176 1189 176 1189 330 c 0,50,51
 1189 483 1189 483 1144 545 c 0,52,53
 1110 592 1110 592 1051 592 c 0,54,55
 989 592 989 592 956 546 c 0,56,57
 911 484 911 484 911 328 c 0,43,44
1437 336 m 0,58,59
 1437 535 1437 535 1515.5 625.5 c 128,-1,60
 1594 716 1594 716 1723 716 c 0,61,62
 1851 716 1851 716 1931 625 c 128,-1,63
 2011 534 2011 534 2011 340 c 0,64,65
 2011 144 2011 144 1941.5 45 c 128,-1,66
 1872 -54 1872 -54 1725 -54 c 0,67,68
 1597 -54 1597 -54 1517 38.5 c 128,-1,69
 1437 131 1437 131 1437 336 c 0,58,59
1585 328 m 0,70,71
 1585 177 1585 177 1624.5 123.5 c 128,-1,72
 1664 70 1664 70 1729 70 c 0,73,74
 1788 70 1788 70 1820 115 c 0,75,76
 1863 176 1863 176 1863 330 c 0,77,78
 1863 483 1863 483 1819 545 c 0,79,80
 1785 592 1785 592 1725 592 c 0,81,82
 1663 592 1663 592 1630 546 c 0,83,84
 1585 484 1585 484 1585 328 c 0,70,71
EndSplineSet
Validated: 1
EndChar

StartChar: dotlessi
Encoding: 305 305 213
Width: 569
Flags: W
LayerCount: 2
Fore
SplineSet
198 0 m 1,0,-1
 198 1062 l 1,1,-1
 378 1062 l 1,2,-1
 378 0 l 1,3,-1
 198 0 l 1,0,-1
EndSplineSet
Validated: 1
EndChar

StartChar: circumflex
Encoding: 710 710 214
Width: 682
Flags: W
LayerCount: 2
Fore
SplineSet
344 1364 m 1,0,-1
 231 1194 l 1,1,-1
 25 1194 l 1,2,-1
 241 1474 l 1,3,-1
 433 1474 l 1,4,-1
 658 1194 l 1,5,-1
 454 1194 l 1,6,-1
 344 1364 l 1,0,-1
EndSplineSet
Validated: 1
EndChar

StartChar: tilde
Encoding: 732 732 215
Width: 682
Flags: W
LayerCount: 2
Fore
SplineSet
7 1219 m 1,0,1
 6 1323 6 1323 64 1385 c 0,2,3
 121 1447 121 1447 210 1447 c 0,4,5
 272 1447 272 1447 379 1393 c 0,6,7
 438 1363 438 1363 473 1363 c 0,8,9
 505 1363 505 1363 522 1380.5 c 128,-1,10
 539 1398 539 1398 546 1450 c 1,11,-1
 676 1450 l 1,12,13
 673 1336 673 1336 618.5 1279 c 128,-1,14
 564 1222 564 1222 480 1222 c 0,15,16
 417 1222 417 1222 314 1278 c 0,17,18
 247 1314 247 1314 216 1314 c 0,19,20
 182 1314 182 1314 161 1290 c 0,21,22
 139 1266 139 1266 140 1219 c 1,23,-1
 7 1219 l 1,0,1
EndSplineSet
Validated: 33
EndChar

StartChar: macron
Encoding: 713 713 216
Width: 682
Flags: W
LayerCount: 2
Fore
SplineSet
29 1227 m 1,0,-1
 29 1375 l 1,1,-1
 653 1375 l 1,2,-1
 653 1227 l 1,3,-1
 29 1227 l 1,0,-1
EndSplineSet
Validated: 1
EndChar

StartChar: breve
Encoding: 728 728 217
Width: 682
Flags: W
LayerCount: 2
Fore
SplineSet
514 1464 m 1,0,-1
 637 1464 l 1,1,2
 622 1339 622 1339 545.5 1272 c 128,-1,3
 469 1205 469 1205 342 1205 c 0,4,5
 214 1205 214 1205 137.5 1271.5 c 128,-1,6
 61 1338 61 1338 46 1464 c 1,7,-1
 169 1464 l 1,8,9
 183 1396 183 1396 224.5 1362.5 c 128,-1,10
 266 1329 266 1329 336 1329 c 0,11,12
 417 1329 417 1329 458.5 1361.5 c 128,-1,13
 500 1394 500 1394 514 1464 c 1,0,-1
EndSplineSet
Validated: 1
EndChar

StartChar: dotaccent
Encoding: 729 729 218
Width: 682
Flags: W
LayerCount: 2
Fore
SplineSet
229 1194 m 1,0,-1
 229 1418 l 1,1,-1
 452 1418 l 1,2,-1
 452 1194 l 1,3,-1
 229 1194 l 1,0,-1
EndSplineSet
Validated: 1
EndChar

StartChar: ring
Encoding: 730 730 219
Width: 682
Flags: W
LayerCount: 2
Fore
SplineSet
162 1338 m 0,0,1
 162 1411 162 1411 215.5 1464 c 128,-1,2
 269 1517 269 1517 342 1517 c 0,3,4
 416 1517 416 1517 469 1463.5 c 128,-1,5
 522 1410 522 1410 522 1334 c 0,6,7
 522 1257 522 1257 469 1204 c 128,-1,8
 416 1151 416 1151 343 1151 c 0,9,10
 268 1151 268 1151 215 1204.5 c 128,-1,11
 162 1258 162 1258 162 1338 c 0,0,1
238 1337 m 0,12,13
 238 1290 238 1290 269.5 1258 c 128,-1,14
 301 1226 301 1226 344 1226 c 256,15,16
 387 1226 387 1226 418.5 1258 c 128,-1,17
 450 1290 450 1290 450 1335 c 256,18,19
 450 1380 450 1380 419 1412 c 128,-1,20
 388 1444 388 1444 344 1444 c 0,21,22
 301 1444 301 1444 269.5 1412.5 c 128,-1,23
 238 1381 238 1381 238 1337 c 0,12,13
EndSplineSet
Validated: 1
EndChar

StartChar: cedilla
Encoding: 184 184 220
Width: 682
Flags: W
LayerCount: 2
Fore
SplineSet
216 -154 m 1,0,-1
 268 23 l 1,1,-1
 402 23 l 1,2,-1
 369 -84 l 1,3,4
 454 -94 454 -94 497 -136.5 c 128,-1,5
 540 -179 540 -179 540 -231 c 0,6,7
 540 -306 540 -306 468 -363.5 c 128,-1,8
 396 -421 396 -421 251 -421 c 0,9,10
 169 -421 169 -421 107 -409 c 1,11,-1
 118 -292 l 1,12,13
 182 -296 182 -296 212 -296 c 0,14,15
 306 -296 306 -296 344 -270 c 0,16,17
 373 -250 373 -250 373 -221 c 0,18,19
 373 -203 373 -203 361.5 -189 c 128,-1,20
 350 -175 350 -175 319 -165 c 128,-1,21
 288 -155 288 -155 216 -154 c 1,0,-1
EndSplineSet
Validated: 1
EndChar

StartChar: hungarumlaut
Encoding: 733 733 221
Width: 682
Flags: W
LayerCount: 2
Fore
SplineSet
58 1194 m 1,0,-1
 179 1474 l 1,1,-1
 413 1474 l 1,2,-1
 202 1194 l 1,3,-1
 58 1194 l 1,0,-1
405 1194 m 1,4,-1
 532 1474 l 1,5,-1
 763 1474 l 1,6,-1
 556 1194 l 1,7,-1
 405 1194 l 1,4,-1
EndSplineSet
Validated: 1
EndChar

StartChar: ogonek
Encoding: 731 731 222
Width: 682
Flags: W
LayerCount: 2
Fore
SplineSet
224 24 m 1,0,-1
 348 24 l 1,1,2
 309 -65 309 -65 309 -140 c 0,3,4
 309 -208 309 -208 350 -250 c 128,-1,5
 391 -292 391 -292 453 -292 c 0,6,7
 530 -292 530 -292 621 -246 c 1,8,-1
 621 -365 l 1,9,10
 569 -392 569 -392 508 -409 c 128,-1,11
 447 -426 447 -426 402 -426 c 0,12,13
 303 -426 303 -426 243 -366 c 128,-1,14
 183 -306 183 -306 183 -205 c 0,15,16
 183 -119 183 -119 224 24 c 1,0,-1
EndSplineSet
Validated: 1
EndChar

StartChar: caron
Encoding: 711 711 223
Width: 682
Flags: W
LayerCount: 2
Fore
SplineSet
359 1304 m 1,0,-1
 469 1474 l 1,1,-1
 673 1474 l 1,2,-1
 448 1194 l 1,3,-1
 256 1194 l 1,4,-1
 40 1474 l 1,5,-1
 246 1474 l 1,6,-1
 359 1304 l 1,0,-1
EndSplineSet
Validated: 1
EndChar

StartChar: Lslash
Encoding: 321 321 224
Width: 1139
Flags: W
LayerCount: 2
Fore
SplineSet
145 565 m 1,0,-1
 0 442 l 1,1,-1
 0 609 l 1,2,-1
 145 733 l 1,3,-1
 145 1466 l 1,4,-1
 339 1466 l 1,5,-1
 339 898 l 1,6,-1
 671 1179 l 1,7,-1
 671 1012 l 1,8,-1
 339 731 l 1,9,-1
 339 173 l 1,10,-1
 1067 173 l 1,11,-1
 1067 0 l 1,12,-1
 145 0 l 1,13,-1
 145 565 l 1,0,-1
EndSplineSet
Validated: 1
EndChar

StartChar: lslash
Encoding: 322 322 225
Width: 455
Flags: W
LayerCount: 2
Fore
SplineSet
133 574 m 1,0,-1
 3 464 l 1,1,-1
 3 622 l 1,2,-1
 133 732 l 1,3,-1
 133 1466 l 1,4,-1
 312 1466 l 1,5,-1
 312 884 l 1,6,-1
 447 999 l 1,7,-1
 447 842 l 1,8,-1
 312 727 l 1,9,-1
 312 0 l 1,10,-1
 133 0 l 1,11,-1
 133 574 l 1,0,-1
EndSplineSet
Validated: 1
EndChar

StartChar: brokenbar
Encoding: 166 166 230
Width: 532
Flags: W
LayerCount: 2
Fore
SplineSet
345 1491 m 1,0,-1
 345 701 l 1,1,-1
 188 701 l 1,2,-1
 188 1491 l 1,3,-1
 345 1491 l 1,0,-1
345 360 m 1,4,-1
 345 -431 l 1,5,-1
 188 -431 l 1,6,-1
 188 360 l 1,7,-1
 345 360 l 1,4,-1
EndSplineSet
Validated: 1
EndChar

StartChar: Eth
Encoding: 208 208 231
Width: 1479
Flags: W
LayerCount: 2
Fore
SplineSet
158 0 m 1,0,-1
 158 667 l 1,1,-1
 -3 667 l 1,2,-1
 -3 799 l 1,3,-1
 158 799 l 1,4,-1
 158 1466 l 1,5,-1
 664 1466 l 2,6,7
 834 1466 834 1466 924 1445 c 0,8,9
 1050 1416 1050 1416 1139 1340 c 0,10,11
 1255 1242 1255 1242 1312.5 1089.5 c 128,-1,12
 1370 937 1370 937 1370 741 c 0,13,14
 1370 517 1370 517 1299 355.5 c 128,-1,15
 1228 194 1228 194 1129 121 c 128,-1,16
 1030 48 1030 48 901 17 c 0,17,18
 830 0 830 0 687 0 c 2,19,-1
 158 0 l 1,0,-1
352 173 m 1,20,-1
 665 173 l 2,21,22
 811 173 811 173 893 200 c 128,-1,23
 975 227 975 227 1023 275 c 0,24,25
 1092 344 1092 344 1131 460 c 128,-1,26
 1170 576 1170 576 1170 743 c 0,27,28
 1170 915 1170 915 1131.5 1018 c 128,-1,29
 1093 1121 1093 1121 1031 1183 c 128,-1,30
 969 1245 969 1245 893 1269 c 128,-1,31
 817 1293 817 1293 660 1293 c 2,32,-1
 352 1293 l 1,33,-1
 352 799 l 1,34,-1
 756 799 l 1,35,-1
 756 667 l 1,36,-1
 352 667 l 1,37,-1
 352 173 l 1,20,-1
EndSplineSet
Validated: 1
EndChar

StartChar: eth
Encoding: 240 240 232
Width: 1139
Flags: W
LayerCount: 2
Fore
SplineSet
308 1466 m 1,0,-1
 525 1466 l 1,1,2
 597 1412 597 1412 650 1364 c 1,3,-1
 864 1466 l 1,4,-1
 909 1364 l 1,5,-1
 737 1281 l 1,6,7
 1057 913 1057 913 1057 521 c 0,8,9
 1057 268 1057 268 918 121.5 c 128,-1,10
 779 -25 779 -25 564 -25 c 0,11,12
 309 -25 309 -25 166 169 c 0,13,14
 73 296 73 296 73 517 c 0,15,16
 73 778 73 778 202 920 c 128,-1,17
 331 1062 331 1062 525 1062 c 0,18,19
 583 1062 583 1062 627 1050 c 128,-1,20
 671 1038 671 1038 737 1003 c 1,21,22
 701 1076 701 1076 674 1116.5 c 128,-1,23
 647 1157 647 1157 595 1216 c 1,24,-1
 320 1089 l 1,25,-1
 276 1192 l 1,26,-1
 515 1301 l 1,27,28
 418 1391 418 1391 308 1466 c 1,0,-1
870 529 m 0,29,30
 870 721 870 721 779.5 822.5 c 128,-1,31
 689 924 689 924 557 924 c 0,32,33
 427 924 427 924 342 822.5 c 128,-1,34
 257 721 257 721 257 512 c 0,35,36
 257 318 257 318 344.5 220 c 128,-1,37
 432 122 432 122 563 122 c 0,38,39
 691 122 691 122 780.5 225.5 c 128,-1,40
 870 329 870 329 870 529 c 0,29,30
EndSplineSet
Validated: 1
EndChar

StartChar: Thorn
Encoding: 222 222 235
Width: 1366
Flags: W
LayerCount: 2
Fore
SplineSet
158 0 m 1,0,-1
 158 1466 l 1,1,-1
 352 1466 l 1,2,-1
 352 1168 l 1,3,-1
 711 1168 l 2,4,5
 857 1168 857 1168 935 1154 c 0,6,7
 1043 1135 1043 1135 1116 1084.5 c 128,-1,8
 1189 1034 1189 1034 1233 943 c 128,-1,9
 1277 852 1277 852 1277 743 c 0,10,11
 1277 557 1277 557 1158 427.5 c 128,-1,12
 1039 298 1039 298 728 298 c 2,13,-1
 352 298 l 1,14,-1
 352 0 l 1,15,-1
 158 0 l 1,0,-1
352 471 m 1,16,-1
 731 471 l 2,17,18
 919 471 919 471 998 541 c 128,-1,19
 1077 611 1077 611 1077 737 c 0,20,21
 1077 828 1077 828 1031 894 c 128,-1,22
 985 960 985 960 909 981 c 0,23,24
 860 995 860 995 727 995 c 2,25,-1
 352 995 l 1,26,-1
 352 471 l 1,16,-1
EndSplineSet
Validated: 1
EndChar

StartChar: thorn
Encoding: 254 254 236
Width: 1139
Flags: W
LayerCount: 2
Fore
SplineSet
135 -407 m 1,0,-1
 135 1466 l 1,1,-1
 315 1466 l 1,2,-1
 315 950 l 1,3,4
 388 1027 388 1027 443 1052 c 0,5,6
 515 1086 515 1086 607 1086 c 0,7,8
 743 1086 743 1086 847 1016 c 128,-1,9
 951 946 951 946 1004 818.5 c 128,-1,10
 1057 691 1057 691 1057 539 c 0,11,12
 1057 375 1057 375 998.5 245 c 128,-1,13
 940 115 940 115 828.5 45.5 c 128,-1,14
 717 -24 717 -24 595 -24 c 0,15,16
 512 -24 512 -24 441 9 c 0,17,18
 387 35 387 35 315 110 c 1,19,-1
 315 -407 l 1,20,-1
 135 -407 l 1,0,-1
298 525 m 256,21,22
 298 320 298 320 381 222 c 128,-1,23
 464 124 464 124 582 124 c 0,24,25
 702 124 702 124 787.5 225.5 c 128,-1,26
 873 327 873 327 873 540 c 0,27,28
 873 743 873 743 789.5 844 c 128,-1,29
 706 945 706 945 590 945 c 0,30,31
 475 945 475 945 386.5 837.5 c 128,-1,32
 298 730 298 730 298 525 c 256,21,22
EndSplineSet
Validated: 1
EndChar

StartChar: minus
Encoding: 8722 8722 237
Width: 1196
Flags: W
LayerCount: 2
Fore
SplineSet
1082 639 m 1,0,-1
 114 639 l 1,1,-1
 114 807 l 1,2,-1
 1082 807 l 1,3,-1
 1082 639 l 1,0,-1
EndSplineSet
Validated: 1
EndChar

StartChar: multiply
Encoding: 215 215 238
Width: 1196
Flags: W
LayerCount: 2
Fore
SplineSet
161 409 m 1,0,-1
 476 724 l 1,1,-1
 162 1038 l 1,2,-1
 284 1160 l 1,3,-1
 598 846 l 1,4,-1
 911 1159 l 1,5,-1
 1031 1038 l 1,6,-1
 719 725 l 1,7,-1
 1033 411 l 1,8,-1
 911 289 l 1,9,-1
 597 603 l 1,10,-1
 282 288 l 1,11,-1
 161 409 l 1,0,-1
EndSplineSet
Validated: 1
EndChar

StartChar: onesuperior
Encoding: 185 185 239
Width: 682
Flags: W
LayerCount: 2
Fore
SplineSet
331 733 m 1,0,-1
 331 1287 l 1,1,2
 229 1206 229 1206 107 1174 c 1,3,-1
 107 1297 l 1,4,5
 169 1317 169 1317 245 1370 c 128,-1,6
 321 1423 321 1423 368 1484 c 1,7,-1
 476 1484 l 1,8,-1
 476 733 l 1,9,-1
 331 733 l 1,0,-1
EndSplineSet
Validated: 1
EndChar

StartChar: twosuperior
Encoding: 178 178 240
Width: 682
Flags: W
LayerCount: 2
Fore
SplineSet
25 733 m 1,0,1
 31 790 31 790 72 847 c 0,2,3
 135 933 135 933 279 1037.5 c 128,-1,4
 423 1142 423 1142 450 1172 c 0,5,6
 487 1213 487 1213 487 1256 c 0,7,8
 487 1304 487 1304 452 1335 c 128,-1,9
 417 1366 417 1366 349 1366 c 0,10,11
 283 1366 283 1366 250.5 1342.5 c 128,-1,12
 218 1319 218 1319 197 1252 c 1,13,-1
 46 1268 l 1,14,15
 75 1379 75 1379 146.5 1431.5 c 128,-1,16
 218 1484 218 1484 352 1484 c 0,17,18
 503 1484 503 1484 573.5 1425 c 128,-1,19
 644 1366 644 1366 644 1281 c 0,20,21
 644 1197 644 1197 585 1122 c 0,22,23
 540 1066 540 1066 380 951 c 1,24,25
 297 890 297 890 262 854 c 1,26,-1
 648 854 l 1,27,-1
 648 733 l 1,28,-1
 25 733 l 1,0,1
EndSplineSet
Validated: 1
EndChar

StartChar: threesuperior
Encoding: 179 179 241
Width: 682
Flags: W
LayerCount: 2
Fore
SplineSet
33 929 m 1,0,-1
 179 944 l 1,1,2
 199 884 199 884 231 862 c 0,3,4
 274 832 274 832 333 832 c 0,5,6
 404 832 404 832 447 871 c 128,-1,7
 490 910 490 910 490 965 c 0,8,9
 490 1015 490 1015 454 1045 c 128,-1,10
 418 1075 418 1075 331 1075 c 0,11,12
 319 1075 319 1075 298 1073 c 0,13,14
 284 1072 284 1072 276 1072 c 1,15,-1
 298 1182 l 1,16,17
 379 1181 379 1181 416.5 1211 c 128,-1,18
 454 1241 454 1241 454 1284 c 0,19,20
 454 1321 454 1321 424 1347 c 128,-1,21
 394 1373 394 1373 335 1373 c 0,22,23
 279 1373 279 1373 247.5 1351 c 128,-1,24
 216 1329 216 1329 193 1271 c 1,25,-1
 50 1294 l 1,26,27
 91 1400 91 1400 153.5 1442 c 128,-1,28
 216 1484 216 1484 336 1484 c 0,29,30
 480 1484 480 1484 545.5 1430.5 c 128,-1,31
 611 1377 611 1377 611 1297 c 0,32,33
 611 1242 611 1242 575.5 1199 c 128,-1,34
 540 1156 540 1156 473 1137 c 1,35,36
 562 1115 562 1115 604 1064.5 c 128,-1,37
 646 1014 646 1014 646 946 c 0,38,39
 646 853 646 853 567 784 c 128,-1,40
 488 715 488 715 342 715 c 0,41,42
 202 715 202 715 128 770.5 c 128,-1,43
 54 826 54 826 33 929 c 1,0,-1
EndSplineSet
Validated: 33
EndChar

StartChar: onehalf
Encoding: 189 189 242
Width: 1708
Flags: W
LayerCount: 2
Fore
SplineSet
228 -57 m 1,0,-1
 1329 1491 l 1,1,-1
 1486 1491 l 1,2,-1
 385 -57 l 1,3,-1
 228 -57 l 1,0,-1
331 733 m 1,4,-1
 331 1287 l 1,5,6
 229 1206 229 1206 107 1174 c 1,7,-1
 107 1297 l 1,8,9
 169 1317 169 1317 245 1370 c 128,-1,10
 321 1423 321 1423 368 1484 c 1,11,-1
 476 1484 l 1,12,-1
 476 733 l 1,13,-1
 331 733 l 1,4,-1
1049 -31 m 1,14,15
 1055 25 1055 25 1097 82 c 1,16,17
 1159 169 1159 169 1303 273 c 128,-1,18
 1447 377 1447 377 1474 408 c 0,19,20
 1511 449 1511 449 1511 492 c 0,21,22
 1511 540 1511 540 1476.5 570.5 c 128,-1,23
 1442 601 1442 601 1373 601 c 0,24,25
 1307 601 1307 601 1274.5 577.5 c 128,-1,26
 1242 554 1242 554 1221 488 c 1,27,-1
 1070 503 l 1,28,29
 1099 615 1099 615 1171 667.5 c 128,-1,30
 1243 720 1243 720 1376 720 c 0,31,32
 1527 720 1527 720 1597.5 661 c 128,-1,33
 1668 602 1668 602 1668 517 c 0,34,35
 1668 433 1668 433 1609 358 c 0,36,37
 1564 302 1564 302 1405 186 c 0,38,39
 1321 125 1321 125 1286 90 c 1,40,-1
 1672 90 l 1,41,-1
 1672 -31 l 1,42,-1
 1049 -31 l 1,14,15
EndSplineSet
Validated: 1
EndChar

StartChar: onequarter
Encoding: 188 188 243
Width: 1708
Flags: W
LayerCount: 2
Fore
SplineSet
252 -57 m 1,0,-1
 1354 1491 l 1,1,-1
 1510 1491 l 1,2,-1
 409 -57 l 1,3,-1
 252 -57 l 1,0,-1
331 733 m 1,4,-1
 331 1287 l 1,5,6
 229 1206 229 1206 107 1174 c 1,7,-1
 107 1297 l 1,8,9
 169 1317 169 1317 245 1370 c 128,-1,10
 321 1423 321 1423 368 1484 c 1,11,-1
 476 1484 l 1,12,-1
 476 733 l 1,13,-1
 331 733 l 1,4,-1
1430 -31 m 1,14,-1
 1430 123 l 1,15,-1
 1047 123 l 1,16,-1
 1047 246 l 1,17,-1
 1452 720 l 1,18,-1
 1574 720 l 1,19,-1
 1574 231 l 1,20,-1
 1678 231 l 1,21,-1
 1678 123 l 1,22,-1
 1574 123 l 1,23,-1
 1574 -31 l 1,24,-1
 1430 -31 l 1,14,-1
1430 231 m 1,25,-1
 1430 494 l 1,26,-1
 1200 231 l 1,27,-1
 1430 231 l 1,25,-1
EndSplineSet
Validated: 1
EndChar

StartChar: threequarters
Encoding: 190 190 244
Width: 1708
Flags: W
LayerCount: 2
Fore
SplineSet
252 -57 m 1,0,-1
 1353 1491 l 1,1,-1
 1510 1491 l 1,2,-1
 409 -57 l 1,3,-1
 252 -57 l 1,0,-1
33 929 m 1,4,-1
 179 944 l 1,5,6
 199 884 199 884 231 862 c 0,7,8
 274 832 274 832 333 832 c 0,9,10
 404 832 404 832 447 871 c 128,-1,11
 490 910 490 910 490 965 c 0,12,13
 490 1015 490 1015 454 1045 c 128,-1,14
 418 1075 418 1075 334 1075 c 1,15,16
 284 1072 284 1072 276 1072 c 1,17,-1
 298 1182 l 1,18,19
 379 1181 379 1181 416.5 1211 c 128,-1,20
 454 1241 454 1241 454 1284 c 0,21,22
 454 1321 454 1321 424 1347 c 128,-1,23
 394 1373 394 1373 335 1373 c 0,24,25
 279 1373 279 1373 247.5 1351 c 128,-1,26
 216 1329 216 1329 193 1271 c 1,27,-1
 50 1294 l 1,28,29
 91 1400 91 1400 153.5 1442 c 128,-1,30
 216 1484 216 1484 336 1484 c 0,31,32
 480 1484 480 1484 545.5 1430.5 c 128,-1,33
 611 1377 611 1377 611 1297 c 0,34,35
 611 1242 611 1242 575.5 1199 c 128,-1,36
 540 1156 540 1156 473 1137 c 1,37,38
 562 1115 562 1115 604 1064.5 c 128,-1,39
 646 1014 646 1014 646 946 c 0,40,41
 646 853 646 853 567 784 c 128,-1,42
 488 715 488 715 342 715 c 0,43,44
 202 715 202 715 128 770.5 c 128,-1,45
 54 826 54 826 33 929 c 1,4,-1
1429 -31 m 1,46,-1
 1429 123 l 1,47,-1
 1047 123 l 1,48,-1
 1047 246 l 1,49,-1
 1451 720 l 1,50,-1
 1574 720 l 1,51,-1
 1574 231 l 1,52,-1
 1678 231 l 1,53,-1
 1678 123 l 1,54,-1
 1574 123 l 1,55,-1
 1574 -31 l 1,56,-1
 1429 -31 l 1,46,-1
1429 231 m 1,57,-1
 1429 494 l 1,58,-1
 1200 231 l 1,59,-1
 1429 231 l 1,57,-1
EndSplineSet
Validated: 33
EndChar

StartChar: franc
Encoding: 8355 8355 245
Width: 1139
Flags: W
LayerCount: 2
Fore
SplineSet
168 246 m 1,0,-1
 0 246 l 1,1,-1
 0 395 l 1,2,-1
 168 395 l 1,3,-1
 168 1466 l 1,4,-1
 1037 1466 l 1,5,-1
 1037 1293 l 1,6,-1
 362 1293 l 1,7,-1
 362 839 l 1,8,-1
 930 839 l 1,9,-1
 930 666 l 1,10,-1
 362 666 l 1,11,-1
 362 395 l 1,12,-1
 677 395 l 1,13,-1
 677 246 l 1,14,-1
 362 246 l 1,15,-1
 362 0 l 1,16,-1
 168 0 l 1,17,-1
 168 246 l 1,0,-1
EndSplineSet
Validated: 1
EndChar

StartChar: dmacron
Encoding: 273 273 255
Width: 1139
Flags: W
LayerCount: 2
Fore
SplineSet
812 1219 m 1,0,-1
 466 1219 l 1,1,-1
 466 1351 l 1,2,-1
 812 1351 l 1,3,-1
 812 1466 l 1,4,-1
 991 1466 l 1,5,-1
 991 1351 l 1,6,-1
 1136 1351 l 1,7,-1
 1136 1219 l 1,8,-1
 991 1219 l 1,9,-1
 991 0 l 1,10,-1
 824 0 l 1,11,-1
 824 134 l 1,12,13
 723 -24 723 -24 527 -24 c 0,14,15
 400 -24 400 -24 293.5 46 c 128,-1,16
 187 116 187 116 128.5 241.5 c 128,-1,17
 70 367 70 367 70 530 c 0,18,19
 70 689 70 689 123 818.5 c 128,-1,20
 176 948 176 948 282 1017 c 128,-1,21
 388 1086 388 1086 519 1086 c 0,22,23
 615 1086 615 1086 690 1045.5 c 128,-1,24
 765 1005 765 1005 812 940 c 1,25,-1
 812 1219 l 1,0,-1
255 530 m 0,26,27
 255 326 255 326 341 225 c 128,-1,28
 427 124 427 124 544 124 c 0,29,30
 662 124 662 124 744.5 220.5 c 128,-1,31
 827 317 827 317 827 515 c 0,32,33
 827 733 827 733 743 835 c 128,-1,34
 659 937 659 937 536 937 c 0,35,36
 416 937 416 937 335.5 839 c 128,-1,37
 255 741 255 741 255 530 c 0,26,27
EndSplineSet
Validated: 1
EndChar

StartChar: overscore
Encoding: 175 175 256
Width: 1131
Flags: W
LayerCount: 2
Fore
SplineSet
-31 1566 m 1,0,-1
 -31 1695 l 1,1,-1
 1162 1695 l 1,2,-1
 1162 1566 l 1,3,-1
 -31 1566 l 1,0,-1
EndSplineSet
Validated: 1
EndChar

StartChar: middot
Encoding: 65540 -1 257
Width: 682
Flags: W
LayerCount: 2
Fore
SplineSet
497 637 m 1,0,-1
 497 842 l 1,1,-1
 702 842 l 1,2,-1
 702 637 l 1,3,-1
 497 637 l 1,0,-1
EndSplineSet
Validated: 1
EndChar

StartChar: dcaron
Encoding: 271 271 263
Width: 1259
Flags: W
LayerCount: 2
Fore
SplineSet
1078 1281 m 1,0,-1
 1078 1466 l 1,1,-1
 1262 1466 l 1,2,-1
 1262 1281 l 2,3,4
 1262 1180 1262 1180 1226 1117.5 c 128,-1,5
 1190 1055 1190 1055 1112 1021 c 1,6,-1
 1067 1089 l 1,7,8
 1118 1112 1118 1112 1142.5 1155.5 c 128,-1,9
 1167 1199 1167 1199 1169 1281 c 1,10,-1
 1078 1281 l 1,0,-1
825 0 m 1,11,-1
 825 134 l 1,12,13
 724 -24 724 -24 528 -24 c 0,14,15
 401 -24 401 -24 294.5 46 c 128,-1,16
 188 116 188 116 129.5 241.5 c 128,-1,17
 71 367 71 367 71 530 c 0,18,19
 71 689 71 689 124 818.5 c 128,-1,20
 177 948 177 948 283 1017 c 128,-1,21
 389 1086 389 1086 520 1086 c 0,22,23
 616 1086 616 1086 691 1045.5 c 128,-1,24
 766 1005 766 1005 813 940 c 1,25,-1
 813 1466 l 1,26,-1
 992 1466 l 1,27,-1
 992 0 l 1,28,-1
 825 0 l 1,11,-1
256 530 m 0,29,30
 256 326 256 326 342 225 c 128,-1,31
 428 124 428 124 545 124 c 0,32,33
 663 124 663 124 745.5 220.5 c 128,-1,34
 828 317 828 317 828 515 c 0,35,36
 828 733 828 733 744 835 c 128,-1,37
 660 937 660 937 537 937 c 0,38,39
 417 937 417 937 336.5 839 c 128,-1,40
 256 741 256 741 256 530 c 0,29,30
EndSplineSet
Validated: 1
EndChar

StartChar: Dslash
Encoding: 272 272 264
Width: 1479
Flags: W
LayerCount: 2
Fore
SplineSet
158 0 m 1,0,-1
 158 667 l 1,1,-1
 -3 667 l 1,2,-1
 -3 799 l 1,3,-1
 158 799 l 1,4,-1
 158 1466 l 1,5,-1
 664 1466 l 2,6,7
 834 1466 834 1466 924 1445 c 0,8,9
 1050 1416 1050 1416 1139 1340 c 0,10,11
 1255 1242 1255 1242 1312.5 1089.5 c 128,-1,12
 1370 937 1370 937 1370 741 c 0,13,14
 1370 517 1370 517 1299 355.5 c 128,-1,15
 1228 194 1228 194 1129 121 c 128,-1,16
 1030 48 1030 48 901 17 c 0,17,18
 830 0 830 0 687 0 c 2,19,-1
 158 0 l 1,0,-1
352 173 m 1,20,-1
 665 173 l 2,21,22
 811 173 811 173 893 200 c 128,-1,23
 975 227 975 227 1023 275 c 0,24,25
 1092 344 1092 344 1131 460 c 128,-1,26
 1170 576 1170 576 1170 743 c 0,27,28
 1170 915 1170 915 1131.5 1018 c 128,-1,29
 1093 1121 1093 1121 1031 1183 c 128,-1,30
 969 1245 969 1245 893 1269 c 128,-1,31
 817 1293 817 1293 660 1293 c 2,32,-1
 352 1293 l 1,33,-1
 352 799 l 1,34,-1
 756 799 l 1,35,-1
 756 667 l 1,36,-1
 352 667 l 1,37,-1
 352 173 l 1,20,-1
EndSplineSet
Validated: 1
EndChar

StartChar: Lcaron
Encoding: 317 317 271
Width: 1139
Flags: W
LayerCount: 2
Fore
SplineSet
712 1261 m 1,0,-1
 712 1466 l 1,1,-1
 917 1466 l 1,2,-1
 917 1261 l 2,3,4
 917 1148 917 1148 877 1078.5 c 128,-1,5
 837 1009 837 1009 750 971 c 1,6,-1
 700 1048 l 1,7,8
 757 1073 757 1073 784.5 1121.5 c 128,-1,9
 812 1170 812 1170 814 1261 c 1,10,-1
 712 1261 l 1,0,-1
150 0 m 1,11,-1
 150 1466 l 1,12,-1
 344 1466 l 1,13,-1
 344 173 l 1,14,-1
 1066 173 l 1,15,-1
 1066 0 l 1,16,-1
 150 0 l 1,11,-1
EndSplineSet
Validated: 1
EndChar

StartChar: lcaron
Encoding: 318 318 272
Width: 597
Flags: W
LayerCount: 2
Fore
SplineSet
412 1281 m 1,0,-1
 412 1466 l 1,1,-1
 596 1466 l 1,2,-1
 596 1281 l 2,3,4
 596 1180 596 1180 560 1117.5 c 128,-1,5
 524 1055 524 1055 446 1021 c 1,6,-1
 401 1089 l 1,7,8
 452 1112 452 1112 476.5 1155.5 c 128,-1,9
 501 1199 501 1199 503 1281 c 1,10,-1
 412 1281 l 1,0,-1
136 0 m 1,11,-1
 136 1466 l 1,12,-1
 316 1466 l 1,13,-1
 316 0 l 1,14,-1
 136 0 l 1,11,-1
EndSplineSet
Validated: 1
EndChar

StartChar: Tcedilla
Encoding: 354 354 287
Width: 1251
Flags: W
LayerCount: 2
Fore
SplineSet
531 0 m 1,0,-1
 531 1293 l 1,1,-1
 48 1293 l 1,2,-1
 48 1466 l 1,3,-1
 1210 1466 l 1,4,-1
 1210 1293 l 1,5,-1
 725 1293 l 1,6,-1
 725 0 l 1,7,-1
 531 0 l 1,0,-1
523 -326 m 1,8,-1
 523 -121 l 1,9,-1
 728 -121 l 1,10,-1
 728 -326 l 2,11,12
 728 -506 728 -506 561 -579 c 1,13,-1
 511 -503 l 1,14,15
 571 -476 571 -476 601 -425 c 0,16,17
 621 -392 621 -392 625 -326 c 1,18,-1
 523 -326 l 1,8,-1
EndSplineSet
Validated: 1
EndChar

StartChar: tcedilla
Encoding: 355 355 288
Width: 569
Flags: W
LayerCount: 2
Fore
SplineSet
528 161 m 1,0,-1
 554 2 l 1,1,2
 478 -14 478 -14 418 -14 c 0,3,4
 320 -14 320 -14 266 17 c 128,-1,5
 212 48 212 48 190 98.5 c 128,-1,6
 168 149 168 149 168 311 c 2,7,-1
 168 922 l 1,8,-1
 36 922 l 1,9,-1
 36 1062 l 1,10,-1
 168 1062 l 1,11,-1
 168 1325 l 1,12,-1
 347 1433 l 1,13,-1
 347 1062 l 1,14,-1
 528 1062 l 1,15,-1
 528 922 l 1,16,-1
 347 922 l 1,17,-1
 347 301 l 2,18,19
 347 224 347 224 356.5 202 c 128,-1,20
 366 180 366 180 387.5 167 c 128,-1,21
 409 154 409 154 449 154 c 0,22,23
 479 154 479 154 528 161 c 1,0,-1
275 -305 m 1,24,-1
 275 -121 l 1,25,-1
 460 -121 l 1,26,-1
 460 -305 l 2,27,28
 460 -375 460 -375 423.5 -436.5 c 128,-1,29
 387 -498 387 -498 309 -532 c 1,30,-1
 265 -463 l 1,31,32
 360 -421 360 -421 367 -305 c 1,33,-1
 275 -305 l 1,24,-1
EndSplineSet
Validated: 1
EndChar

StartChar: tcaron
Encoding: 357 357 290
Width: 768
Flags: W
LayerCount: 2
Fore
SplineSet
581 1281 m 1,0,-1
 581 1466 l 1,1,-1
 765 1466 l 1,2,-1
 765 1281 l 2,3,4
 765 1180 765 1180 729 1117.5 c 128,-1,5
 693 1055 693 1055 615 1021 c 1,6,-1
 570 1089 l 1,7,8
 621 1112 621 1112 645.5 1155.5 c 128,-1,9
 670 1199 670 1199 672 1281 c 1,10,-1
 581 1281 l 1,0,-1
527 161 m 1,11,-1
 553 2 l 1,12,13
 477 -14 477 -14 417 -14 c 0,14,15
 319 -14 319 -14 265 17 c 128,-1,16
 211 48 211 48 189 98.5 c 128,-1,17
 167 149 167 149 167 311 c 2,18,-1
 167 922 l 1,19,-1
 35 922 l 1,20,-1
 35 1062 l 1,21,-1
 167 1062 l 1,22,-1
 167 1325 l 1,23,-1
 346 1433 l 1,24,-1
 346 1062 l 1,25,-1
 527 1062 l 1,26,-1
 527 922 l 1,27,-1
 346 922 l 1,28,-1
 346 301 l 2,29,30
 346 224 346 224 355.5 202 c 128,-1,31
 365 180 365 180 386.5 167 c 128,-1,32
 408 154 408 154 448 154 c 0,33,34
 478 154 478 154 527 161 c 1,11,-1
EndSplineSet
Validated: 1
EndChar

StartChar: Gamma
Encoding: 915 915 299
Width: 1128
Flags: W
LayerCount: 2
Fore
SplineSet
164 1466 m 1,0,-1
 1080 1466 l 1,1,-1
 1080 1293 l 1,2,-1
 358 1293 l 1,3,-1
 358 0 l 1,4,-1
 164 0 l 1,5,-1
 164 1466 l 1,0,-1
EndSplineSet
Validated: 1
EndChar

StartChar: Theta
Encoding: 920 920 300
Width: 1593
Flags: W
LayerCount: 2
Fore
SplineSet
96 714 m 0,0,1
 96 1080 96 1080 293 1286 c 128,-1,2
 490 1492 490 1492 798 1492 c 0,3,4
 1107 1492 1107 1492 1302.5 1282.5 c 128,-1,5
 1498 1073 1498 1073 1498 731 c 0,6,7
 1498 391 1498 391 1301 183 c 128,-1,8
 1104 -25 1104 -25 797 -25 c 0,9,10
 576 -25 576 -25 409.5 85.5 c 128,-1,11
 243 196 243 196 169.5 369.5 c 128,-1,12
 96 543 96 543 96 714 c 0,0,1
296 711 m 0,13,14
 296 460 296 460 432 300.5 c 128,-1,15
 568 141 568 141 796 141 c 0,16,17
 1020 141 1020 141 1159 298.5 c 128,-1,18
 1298 456 1298 456 1298 732 c 0,19,20
 1298 1012 1298 1012 1158 1168.5 c 128,-1,21
 1018 1325 1018 1325 799 1325 c 0,22,23
 584 1325 584 1325 440 1178 c 128,-1,24
 296 1031 296 1031 296 711 c 0,13,14
507 647 m 1,25,-1
 507 819 l 1,26,-1
 1087 819 l 1,27,-1
 1087 647 l 1,28,-1
 507 647 l 1,25,-1
EndSplineSet
Validated: 1
EndChar

StartChar: Phi
Encoding: 934 934 301
Width: 1634
Flags: W
LayerCount: 2
Fore
SplineSet
720 1510 m 1,0,-1
 914 1510 l 1,1,-1
 914 1329 l 1,2,3
 1222 1310 1222 1310 1385.5 1149 c 128,-1,4
 1549 988 1549 988 1549 749 c 0,5,6
 1549 481 1549 481 1372 326 c 128,-1,7
 1195 171 1195 171 914 161 c 1,8,-1
 914 -53 l 1,9,-1
 720 -53 l 1,10,-1
 720 161 l 1,11,12
 431 172 431 172 258 331.5 c 128,-1,13
 85 491 85 491 85 740 c 0,14,15
 85 903 85 903 160 1035 c 128,-1,16
 235 1167 235 1167 372 1243 c 128,-1,17
 509 1319 509 1319 720 1329 c 1,18,-1
 720 1510 l 1,0,-1
720 1161 m 1,19,20
 514 1155 514 1155 400.5 1048 c 128,-1,21
 287 941 287 941 287 741 c 0,22,23
 287 539 287 539 411 434 c 128,-1,24
 535 329 535 329 720 326 c 1,25,-1
 720 1161 l 1,19,20
914 326 m 1,26,27
 1119 332 1119 332 1235 441 c 128,-1,28
 1351 550 1351 550 1351 744 c 0,29,30
 1351 928 1351 928 1240 1044.5 c 128,-1,31
 1129 1161 1129 1161 914 1161 c 1,32,-1
 914 326 l 1,26,27
EndSplineSet
Validated: 1
EndChar

StartChar: alpha
Encoding: 945 945 302
Width: 1184
Flags: W
LayerCount: 2
Fore
SplineSet
923 1062 m 1,0,-1
 1107 1062 l 1,1,2
 1037 842 1037 842 978 531 c 1,3,4
 1048 145 1048 145 1107 0 c 1,5,-1
 928 0 l 1,6,7
 885 100 885 100 863 194 c 1,8,9
 780 -24 780 -24 516 -24 c 0,10,11
 316 -24 316 -24 194 126 c 128,-1,12
 72 276 72 276 72 533 c 0,13,14
 72 797 72 797 194.5 941.5 c 128,-1,15
 317 1086 317 1086 519 1086 c 0,16,17
 644 1086 644 1086 723 1035.5 c 128,-1,18
 802 985 802 985 870 882 c 1,19,20
 877 917 877 917 923 1062 c 1,0,-1
549 937 m 0,21,22
 420 937 420 937 345 833 c 128,-1,23
 270 729 270 729 270 533 c 0,24,25
 270 342 270 342 341 233 c 128,-1,26
 412 124 412 124 539 124 c 0,27,28
 663 124 663 124 746 231.5 c 128,-1,29
 829 339 829 339 829 541 c 0,30,31
 829 737 829 737 751.5 837 c 128,-1,32
 674 937 674 937 549 937 c 0,21,22
EndSplineSet
Validated: 1
EndChar

StartChar: delta
Encoding: 948 948 303
Width: 1140
Flags: W
LayerCount: 2
Fore
SplineSet
174 1466 m 1,0,-1
 975 1466 l 1,1,-1
 975 1320 l 1,2,-1
 415 1320 l 1,3,4
 515 1218 515 1218 728 1071 c 0,5,6
 918 939 918 939 993 826 c 128,-1,7
 1068 713 1068 713 1068 520 c 0,8,9
 1068 261 1068 261 928.5 118.5 c 128,-1,10
 789 -24 789 -24 565 -24 c 0,11,12
 320 -24 320 -24 196 136 c 128,-1,13
 72 296 72 296 72 516 c 0,14,15
 72 772 72 772 203 906.5 c 128,-1,16
 334 1041 334 1041 516 1048 c 1,17,18
 423 1113 423 1113 174 1336 c 1,19,-1
 174 1466 l 1,0,-1
256 514 m 0,20,21
 256 344 256 344 345.5 234 c 128,-1,22
 435 124 435 124 574 124 c 0,23,24
 696 124 696 124 789.5 218 c 128,-1,25
 883 312 883 312 883 515 c 0,26,27
 883 703 883 703 794 806 c 128,-1,28
 705 909 705 909 570 909 c 0,29,30
 421 909 421 909 338.5 793 c 128,-1,31
 256 677 256 677 256 514 c 0,20,21
EndSplineSet
Validated: 1
EndChar

StartChar: epsilon
Encoding: 949 949 304
Width: 913
Flags: W
LayerCount: 2
Fore
SplineSet
829 942 m 1,0,-1
 700 838 l 1,1,2
 577 931 577 931 470 931 c 0,3,4
 382 931 382 931 341.5 884 c 128,-1,5
 301 837 301 837 301 783 c 0,6,7
 301 713 301 713 361 666.5 c 128,-1,8
 421 620 421 620 537 620 c 0,9,10
 552 620 552 620 587 621 c 1,11,-1
 587 470 l 1,12,13
 555 471 555 471 539 471 c 0,14,15
 396 471 396 471 340.5 416 c 128,-1,16
 285 361 285 361 285 292 c 0,17,18
 285 221 285 221 341 172.5 c 128,-1,19
 397 124 397 124 474 124 c 0,20,21
 615 124 615 124 738 255 c 1,22,-1
 867 146 l 1,23,24
 707 -24 707 -24 469 -24 c 0,25,26
 282 -24 282 -24 190 71 c 128,-1,27
 98 166 98 166 98 292 c 0,28,29
 98 473 98 473 274 549 c 1,30,31
 127 632 127 632 127 778 c 0,32,33
 127 897 127 897 214 991.5 c 128,-1,34
 301 1086 301 1086 481 1086 c 0,35,36
 687 1086 687 1086 829 942 c 1,0,-1
EndSplineSet
Validated: 1
EndChar

StartChar: sigma
Encoding: 963 963 305
Width: 1264
Flags: W
LayerCount: 2
Fore
SplineSet
1219 1062 m 1,0,-1
 1219 916 l 1,1,-1
 930 916 l 1,2,3
 1063 792 1063 792 1063 530 c 0,4,5
 1063 245 1063 245 917.5 110.5 c 128,-1,6
 772 -24 772 -24 564 -24 c 0,7,8
 348 -24 348 -24 208 116 c 128,-1,9
 68 256 68 256 68 531 c 0,10,11
 68 814 68 814 213.5 950 c 128,-1,12
 359 1086 359 1086 564 1086 c 0,13,14
 639 1086 639 1086 734 1062 c 1,15,-1
 1219 1062 l 1,0,-1
561 937 m 0,16,17
 430 937 430 937 341.5 835 c 128,-1,18
 253 733 253 733 253 530 c 0,19,20
 253 328 253 328 339.5 226 c 128,-1,21
 426 124 426 124 564 124 c 0,22,23
 709 124 709 124 794.5 230.5 c 128,-1,24
 880 337 880 337 880 531 c 0,25,26
 880 708 880 708 801.5 822.5 c 128,-1,27
 723 937 723 937 561 937 c 0,16,17
EndSplineSet
Validated: 1
EndChar

StartChar: tau
Encoding: 964 964 306
Width: 809
Flags: W
LayerCount: 2
Fore
SplineSet
506 916 m 1,0,-1
 506 0 l 1,1,-1
 326 0 l 1,2,-1
 326 916 l 1,3,-1
 46 916 l 1,4,-1
 46 1062 l 1,5,-1
 762 1062 l 1,6,-1
 762 916 l 1,7,-1
 506 916 l 1,0,-1
EndSplineSet
Validated: 1
EndChar

StartChar: phi
Encoding: 966 966 307
Width: 1328
Flags: W
LayerCount: 2
Fore
SplineSet
499 1083 m 1,0,-1
 464 927 l 1,1,2
 257 858 257 858 257 565 c 0,3,4
 257 410 257 410 338.5 288.5 c 128,-1,5
 420 167 420 167 582 132 c 1,6,-1
 582 792 l 2,7,8
 582 898 582 898 597 955.5 c 128,-1,9
 612 1013 612 1013 665.5 1049.5 c 128,-1,10
 719 1086 719 1086 811 1086 c 0,11,12
 954 1086 954 1086 1043.5 1028 c 128,-1,13
 1133 970 1133 970 1195 845 c 128,-1,14
 1257 720 1257 720 1257 576 c 0,15,16
 1257 456 1257 456 1208 335.5 c 128,-1,17
 1159 215 1159 215 1049 114 c 128,-1,18
 939 13 939 13 760 -25 c 1,19,-1
 760 -407 l 1,20,-1
 582 -407 l 1,21,-1
 582 -25 l 1,22,23
 396 -25 396 -25 234 138 c 128,-1,24
 72 301 72 301 72 557 c 0,25,26
 72 794 72 794 201.5 940.5 c 128,-1,27
 331 1087 331 1087 499 1083 c 1,0,-1
760 140 m 1,28,29
 887 163 887 163 977.5 282 c 128,-1,30
 1068 401 1068 401 1068 594 c 0,31,32
 1068 773 1068 773 1002 855 c 128,-1,33
 936 937 936 937 862 937 c 0,34,35
 809 937 809 937 784.5 900.5 c 128,-1,36
 760 864 760 864 760 740 c 2,37,-1
 760 140 l 1,28,29
EndSplineSet
Validated: 33
EndChar

StartChar: underscoredbl
Encoding: 8215 8215 308
Width: 1131
Flags: W
LayerCount: 2
Fore
SplineSet
-31 -407 m 1,0,-1
 -31 -277 l 1,1,-1
 1162 -277 l 1,2,-1
 1162 -407 l 1,3,-1
 -31 -407 l 1,0,-1
-31 -665 m 1,4,-1
 -31 -536 l 1,5,-1
 1162 -536 l 1,6,-1
 1162 -665 l 1,7,-1
 -31 -665 l 1,4,-1
EndSplineSet
Validated: 1
EndChar

StartChar: nsuperior
Encoding: 8319 8319 310
Width: 747
Flags: W
LayerCount: 2
Fore
SplineSet
82 519 m 1,0,-1
 82 1184 l 1,1,-1
 212 1184 l 1,2,-1
 212 1115 l 1,3,4
 253 1156 253 1156 304.5 1177 c 128,-1,5
 356 1198 356 1198 420 1198 c 0,6,7
 503 1198 503 1198 560 1166.5 c 128,-1,8
 617 1135 617 1135 642 1084.5 c 128,-1,9
 667 1034 667 1034 667 925 c 2,10,-1
 667 519 l 1,11,-1
 526 519 l 1,12,-1
 526 920 l 2,13,14
 526 1008 526 1008 493.5 1042.5 c 128,-1,15
 461 1077 461 1077 393 1077 c 0,16,17
 312 1077 312 1077 267.5 1031 c 128,-1,18
 223 985 223 985 223 881 c 2,19,-1
 223 519 l 1,20,-1
 82 519 l 1,0,-1
EndSplineSet
Validated: 1
EndChar

StartChar: peseta
Encoding: 8359 8359 311
Width: 2240
Flags: W
LayerCount: 2
Fore
SplineSet
51 1466 m 1,0,-1
 513 1466 l 2,1,2
 747 1466 747 1466 870 1337 c 0,3,4
 964 1238 964 1238 977 1064 c 1,5,-1
 1069 1064 l 1,6,-1
 1069 1374 l 1,7,-1
 1251 1373 l 1,8,-1
 1251 1064 l 1,9,-1
 1571 1064 l 1,10,11
 1656 1092 1656 1092 1748 1092 c 0,12,13
 1937 1092 1937 1092 2055 990 c 0,14,15
 2150 908 2150 908 2154 763 c 1,16,-1
 1967 764 l 1,17,18
 1961 847 1961 847 1909 890.5 c 128,-1,19
 1857 934 1857 934 1755 934 c 256,20,21
 1653 934 1653 934 1602.5 894 c 128,-1,22
 1552 854 1552 854 1552 808 c 0,23,24
 1552 753 1552 753 1609 717 c 0,25,26
 1665 681 1665 681 1823.5 643 c 128,-1,27
 1982 605 1982 605 2051.5 564.5 c 128,-1,28
 2121 524 2121 524 2158 456 c 128,-1,29
 2195 388 2195 388 2195 313 c 0,30,31
 2195 180 2195 180 2077.5 77 c 128,-1,32
 1960 -26 1960 -26 1764 -26 c 0,33,34
 1639 -26 1639 -26 1560 11 c 128,-1,35
 1481 48 1481 48 1412 131 c 1,36,-1
 1411 0 l 1,37,38
 1383 -8 1383 -8 1359.5 -12 c 128,-1,39
 1336 -16 1336 -16 1318 -16 c 0,40,41
 1171 -16 1171 -16 1106 62 c 0,42,43
 1069 106 1069 106 1069 208 c 2,44,-1
 1069 919 l 1,45,-1
 967 919 l 1,46,47
 936 803 936 803 864 728 c 128,-1,48
 792 653 792 653 678 620 c 0,49,50
 599 598 599 598 404 598 c 2,51,-1
 245 598 l 1,52,-1
 245 0 l 1,53,-1
 51 0 l 1,54,-1
 51 1466 l 1,0,-1
245 1295 m 1,55,-1
 245 767 l 1,56,-1
 377 767 l 2,57,58
 537 767 537 767 614 792 c 128,-1,59
 691 817 691 817 735 878 c 128,-1,60
 779 939 779 939 779 1031 c 0,61,62
 779 1114 779 1114 743 1174.5 c 128,-1,63
 707 1235 707 1235 644.5 1265 c 128,-1,64
 582 1295 582 1295 450 1295 c 2,65,-1
 245 1295 l 1,55,-1
1251 919 m 1,66,-1
 1251 264 l 1,67,-1
 1250 233 l 1,68,69
 1250 195 1250 195 1273 173 c 128,-1,70
 1296 151 1296 151 1340 151 c 0,71,72
 1352 151 1352 151 1365 153.5 c 128,-1,73
 1378 156 1378 156 1392 161 c 1,74,75
 1369 208 1369 208 1360 246 c 128,-1,76
 1351 284 1351 284 1350 338 c 1,77,-1
 1532 337 l 1,78,79
 1540 238 1540 238 1604.5 182.5 c 128,-1,80
 1669 127 1669 127 1777 127 c 0,81,82
 1882 127 1882 127 1958 188 c 0,83,84
 2015 234 2015 234 2015 294 c 0,85,86
 2015 340 2015 340 1980 372 c 0,87,88
 1934 414 1934 414 1765.5 459.5 c 128,-1,89
 1597 505 1597 505 1541 534 c 0,90,91
 1455 580 1455 580 1414.5 640 c 128,-1,92
 1374 700 1374 700 1374 778 c 0,93,94
 1374 855 1374 855 1406 918 c 1,95,-1
 1251 919 l 1,66,-1
EndSplineSet
Validated: 1
EndChar

StartChar: arrowleft
Encoding: 8592 8592 312
Width: 2048
Flags: W
LayerCount: 2
Fore
SplineSet
492 876 m 1,0,-1
 568 876 l 1,1,2
 509 758 509 758 479.5 710.5 c 128,-1,3
 450 663 450 663 373 567 c 1,4,-1
 1968 567 l 1,5,-1
 1968 466 l 1,6,-1
 373 466 l 1,7,8
 477 358 477 358 571 157 c 1,9,-1
 493 157 l 1,10,11
 364 301 364 301 271 375.5 c 128,-1,12
 178 450 178 450 79 498 c 1,13,-1
 79 543 l 1,14,15
 166 580 166 580 263 656 c 128,-1,16
 360 732 360 732 492 876 c 1,0,-1
EndSplineSet
Validated: 1
EndChar

StartChar: arrowup
Encoding: 8593 8593 313
Width: 1024
Flags: W
LayerCount: 2
Fore
SplineSet
153 926 m 1,0,1
 298 1059 298 1059 373.5 1156 c 128,-1,2
 449 1253 449 1253 486 1339 c 1,3,-1
 532 1339 l 1,4,5
 579 1240 579 1240 653.5 1147 c 128,-1,6
 728 1054 728 1054 872 925 c 1,7,-1
 872 848 l 1,8,9
 671 942 671 942 563 1045 c 1,10,-1
 563 -429 l 1,11,-1
 462 -429 l 1,12,-1
 462 1045 l 1,13,14
 366 969 366 969 318.5 939 c 128,-1,15
 271 909 271 909 153 850 c 1,16,-1
 153 926 l 1,0,1
EndSplineSet
Validated: 1
EndChar

StartChar: arrowright
Encoding: 8594 8594 314
Width: 2048
Flags: W
LayerCount: 2
Fore
SplineSet
1555 876 m 1,0,1
 1688 731 1688 731 1785 655.5 c 128,-1,2
 1882 580 1882 580 1968 543 c 1,3,-1
 1968 498 l 1,4,5
 1869 450 1869 450 1776 375.5 c 128,-1,6
 1683 301 1683 301 1554 157 c 1,7,-1
 1477 157 l 1,8,9
 1571 358 1571 358 1674 466 c 1,10,-1
 79 466 l 1,11,-1
 79 567 l 1,12,-1
 1674 567 l 1,13,14
 1598 664 1598 664 1568 711 c 128,-1,15
 1538 758 1538 758 1479 876 c 1,16,-1
 1555 876 l 1,0,1
EndSplineSet
Validated: 1
EndChar

StartChar: arrowdown
Encoding: 8595 8595 315
Width: 1024
Flags: W
LayerCount: 2
Fore
SplineSet
153 -16 m 1,0,-1
 153 60 l 1,1,2
 272 1 272 1 319 -29 c 128,-1,3
 366 -59 366 -59 462 -135 c 1,4,-1
 462 1339 l 1,5,-1
 563 1339 l 1,6,-1
 563 -135 l 1,7,8
 671 -32 671 -32 872 62 c 1,9,-1
 872 -15 l 1,10,11
 728 -144 728 -144 653.5 -237 c 128,-1,12
 579 -330 579 -330 532 -429 c 1,13,-1
 486 -429 l 1,14,15
 449 -343 449 -343 373.5 -246 c 128,-1,16
 298 -149 298 -149 153 -16 c 1,0,-1
EndSplineSet
Validated: 1
EndChar

StartChar: arrowboth
Encoding: 8596 8596 316
Width: 2048
Flags: W
LayerCount: 2
Fore
SplineSet
1968 540 m 1,0,-1
 1968 495 l 1,1,2
 1874 452 1874 452 1783 379 c 128,-1,3
 1692 306 1692 306 1562 158 c 1,4,-1
 1482 158 l 1,5,6
 1551 330 1551 330 1676 469 c 1,7,-1
 371 469 l 1,8,9
 496 330 496 330 565 158 c 1,10,-1
 485 158 l 1,11,12
 355 306 355 306 264 379 c 128,-1,13
 173 452 173 452 79 495 c 1,14,-1
 79 540 l 1,15,16
 173 584 173 584 264 656.5 c 128,-1,17
 355 729 355 729 485 878 c 1,18,-1
 565 878 l 1,19,20
 496 706 496 706 371 567 c 1,21,-1
 1676 567 l 1,22,23
 1551 706 1551 706 1482 878 c 1,24,-1
 1562 878 l 1,25,26
 1692 729 1692 729 1783 656.5 c 128,-1,27
 1874 584 1874 584 1968 540 c 1,0,-1
EndSplineSet
Validated: 1
EndChar

StartChar: arrowupdn
Encoding: 8597 8597 317
Width: 1024
Flags: W
LayerCount: 2
Fore
SplineSet
489 1463 m 1,0,-1
 534 1463 l 1,1,2
 578 1369 578 1369 650.5 1277.5 c 128,-1,3
 723 1186 723 1186 871 1056 c 1,4,-1
 871 976 l 1,5,6
 700 1045 700 1045 560 1171 c 1,7,-1
 560 -135 l 1,8,9
 700 -9 700 -9 871 59 c 1,10,-1
 871 -20 l 1,11,12
 723 -150 723 -150 650.5 -241.5 c 128,-1,13
 578 -333 578 -333 534 -427 c 1,14,-1
 489 -427 l 1,15,16
 446 -333 446 -333 373 -241.5 c 128,-1,17
 300 -150 300 -150 152 -20 c 1,18,-1
 152 59 l 1,19,20
 323 -9 323 -9 463 -135 c 1,21,-1
 463 1171 l 1,22,23
 323 1045 323 1045 152 976 c 1,24,-1
 152 1056 l 1,25,26
 300 1186 300 1186 373 1277.5 c 128,-1,27
 446 1369 446 1369 489 1463 c 1,0,-1
EndSplineSet
Validated: 1
EndChar

StartChar: arrowupdnbse
Encoding: 8616 8616 318
Width: 1024
Flags: W
LayerCount: 2
Fore
SplineSet
489 1463 m 1,0,-1
 534 1463 l 1,1,2
 578 1369 578 1369 650.5 1277.5 c 128,-1,3
 723 1186 723 1186 871 1056 c 1,4,-1
 871 976 l 1,5,6
 700 1045 700 1045 560 1171 c 1,7,-1
 560 -135 l 1,8,9
 700 -9 700 -9 871 59 c 1,10,-1
 871 -20 l 1,11,12
 723 -150 723 -150 650.5 -241.5 c 128,-1,13
 578 -333 578 -333 534 -427 c 1,14,-1
 489 -427 l 1,15,16
 446 -333 446 -333 373 -241.5 c 128,-1,17
 300 -150 300 -150 152 -20 c 1,18,-1
 152 59 l 1,19,20
 323 -9 323 -9 463 -135 c 1,21,-1
 463 1171 l 1,22,23
 323 1045 323 1045 152 976 c 1,24,-1
 152 1056 l 1,25,26
 300 1186 300 1186 373 1277.5 c 128,-1,27
 446 1369 446 1369 489 1463 c 1,0,-1
154 -522 m 1,28,-1
 871 -522 l 1,29,-1
 871 -620 l 1,30,-1
 154 -620 l 1,31,-1
 154 -522 l 1,28,-1
EndSplineSet
Validated: 1
EndChar

StartChar: orthogonal
Encoding: 8735 8735 319
Width: 2005
Flags: W
LayerCount: 2
Fore
SplineSet
362 1279 m 1,0,-1
 462 1279 l 1,1,-1
 462 100 l 1,2,-1
 1643 100 l 1,3,-1
 1643 0 l 1,4,-1
 362 0 l 1,5,-1
 362 1279 l 1,0,-1
EndSplineSet
Validated: 1
EndChar

StartChar: intersection
Encoding: 8745 8745 320
Width: 1472
Flags: W
LayerCount: 2
Fore
SplineSet
293 0 m 1,0,-1
 158 0 l 1,1,-1
 158 621 l 2,2,3
 158 882 158 882 165 951 c 0,4,5
 177 1076 177 1076 211 1157 c 128,-1,6
 245 1238 245 1238 319.5 1316 c 128,-1,7
 394 1394 394 1394 503.5 1443 c 128,-1,8
 613 1492 613 1492 737 1492 c 0,9,10
 856 1492 856 1492 963.5 1445.5 c 128,-1,11
 1071 1399 1071 1399 1151 1319 c 128,-1,12
 1231 1239 1231 1239 1265.5 1149 c 128,-1,13
 1300 1059 1300 1059 1311 924 c 0,14,15
 1315 872 1315 872 1315 621 c 2,16,-1
 1315 0 l 1,17,-1
 1181 0 l 1,18,-1
 1181 628 l 2,19,20
 1181 855 1181 855 1175 918 c 0,21,22
 1165 1032 1165 1032 1138.5 1099.5 c 128,-1,23
 1112 1167 1112 1167 1056.5 1226 c 128,-1,24
 1001 1285 1001 1285 914.5 1323 c 128,-1,25
 828 1361 828 1361 736 1361 c 256,26,27
 644 1361 644 1361 554 1321 c 128,-1,28
 464 1281 464 1281 406.5 1215.5 c 128,-1,29
 349 1150 349 1150 326 1072 c 128,-1,30
 303 994 303 994 296 890 c 0,31,32
 293 836 293 836 293 628 c 2,33,-1
 293 0 l 1,0,-1
EndSplineSet
Validated: 1
EndChar

StartChar: equivalence
Encoding: 8801 8801 321
Width: 1195
Flags: W
LayerCount: 2
Fore
SplineSet
1082 1085 m 1,0,-1
 114 1085 l 1,1,-1
 114 1252 l 1,2,-1
 1082 1252 l 1,3,-1
 1082 1085 l 1,0,-1
1082 639 m 1,4,-1
 114 639 l 1,5,-1
 114 807 l 1,6,-1
 1082 807 l 1,7,-1
 1082 639 l 1,4,-1
1082 194 m 1,8,-1
 114 194 l 1,9,-1
 114 362 l 1,10,-1
 1082 362 l 1,11,-1
 1082 194 l 1,8,-1
EndSplineSet
Validated: 1
EndChar

StartChar: house
Encoding: 8962 8962 322
Width: 1237
Flags: W
LayerCount: 2
Fore
SplineSet
157 0 m 1,0,-1
 157 634 l 1,1,-1
 618 1153 l 1,2,-1
 1080 634 l 1,3,-1
 1080 0 l 1,4,-1
 157 0 l 1,0,-1
238 81 m 1,5,-1
 999 81 l 1,6,-1
 999 600 l 1,7,-1
 618 1027 l 1,8,-1
 238 600 l 1,9,-1
 238 81 l 1,5,-1
EndSplineSet
Validated: 1
EndChar

StartChar: revlogicalnot
Encoding: 8976 8976 323
Width: 1196
Flags: W
LayerCount: 2
Fore
SplineSet
113 424 m 1,0,-1
 113 1030 l 1,1,-1
 1081 1030 l 1,2,-1
 1081 862 l 1,3,-1
 283 862 l 1,4,-1
 283 424 l 1,5,-1
 113 424 l 1,0,-1
EndSplineSet
Validated: 1
EndChar

StartChar: integraltp
Encoding: 8992 8992 324
Width: 1237
Flags: W
LayerCount: 2
Fore
SplineSet
691 -515 m 1,0,-1
 546 -515 l 1,1,-1
 546 1296 l 2,2,3
 546 1515 546 1515 635.5 1626 c 128,-1,4
 725 1737 725 1737 838 1737 c 0,5,6
 905 1737 905 1737 940.5 1704.5 c 128,-1,7
 976 1672 976 1672 976 1628 c 0,8,9
 976 1588 976 1588 950.5 1562 c 128,-1,10
 925 1536 925 1536 888 1536 c 0,11,12
 858 1536 858 1536 831 1551 c 0,13,14
 813 1561 813 1561 789.5 1597.5 c 128,-1,15
 766 1634 766 1634 743 1634 c 0,16,17
 726 1634 726 1634 712 1622 c 0,18,19
 702 1614 702 1614 698 1595 c 0,20,21
 691 1562 691 1562 691 1456 c 2,22,-1
 691 -515 l 1,0,-1
EndSplineSet
Validated: 1
EndChar

StartChar: integralbt
Encoding: 8993 8993 325
Width: 1237
Flags: W
LayerCount: 2
Fore
SplineSet
546 1737 m 1,0,-1
 691 1737 l 1,1,-1
 691 -74 l 2,2,3
 691 -293 691 -293 601.5 -404 c 128,-1,4
 512 -515 512 -515 399 -515 c 0,5,6
 332 -515 332 -515 296.5 -482.5 c 128,-1,7
 261 -450 261 -450 261 -406 c 0,8,9
 261 -366 261 -366 286.5 -340 c 128,-1,10
 312 -314 312 -314 348 -314 c 0,11,12
 379 -314 379 -314 407 -330 c 0,13,14
 425 -340 425 -340 448 -376 c 128,-1,15
 471 -412 471 -412 494 -412 c 0,16,17
 511 -412 511 -412 525 -400 c 1,18,19
 535 -393 535 -393 539 -372 c 0,20,21
 546 -340 546 -340 546 -234 c 2,22,-1
 546 1737 l 1,0,-1
EndSplineSet
Validated: 1
EndChar

StartChar: SF100000
Encoding: 9472 9472 326
Width: 1451
Flags: W
LayerCount: 2
Fore
SplineSet
1473 534 m 1,0,-1
 -23 534 l 1,1,-1
 -23 709 l 1,2,-1
 1473 709 l 1,3,-1
 1473 534 l 1,0,-1
EndSplineSet
Validated: 1
EndChar

StartChar: SF110000
Encoding: 9474 9474 327
Width: 1280
Flags: W
LayerCount: 2
Fore
SplineSet
457 -621 m 1,0,-1
 457 1864 l 1,1,-1
 632 1864 l 1,2,-1
 632 -621 l 1,3,-1
 457 -621 l 1,0,-1
EndSplineSet
Validated: 1
EndChar

StartChar: SF010000
Encoding: 9484 9484 328
Width: 1451
Flags: W
LayerCount: 2
Fore
SplineSet
1474 709 m 1,0,-1
 1474 534 l 1,1,-1
 813 534 l 1,2,-1
 813 -621 l 1,3,-1
 638 -621 l 1,4,-1
 638 709 l 1,5,-1
 1474 709 l 1,0,-1
EndSplineSet
Validated: 1
EndChar

StartChar: SF030000
Encoding: 9488 9488 329
Width: 1451
Flags: W
LayerCount: 2
Fore
SplineSet
637 534 m 1,0,-1
 -23 534 l 1,1,-1
 -23 709 l 1,2,-1
 812 709 l 1,3,-1
 812 -621 l 1,4,-1
 637 -621 l 1,5,-1
 637 534 l 1,0,-1
EndSplineSet
Validated: 1
EndChar

StartChar: SF020000
Encoding: 9492 9492 330
Width: 1451
Flags: W
LayerCount: 2
Fore
SplineSet
638 534 m 1,0,-1
 638 1864 l 1,1,-1
 813 1864 l 1,2,-1
 813 709 l 1,3,-1
 1474 709 l 1,4,-1
 1474 534 l 1,5,-1
 638 534 l 1,0,-1
EndSplineSet
Validated: 1
EndChar

StartChar: SF040000
Encoding: 9496 9496 331
Width: 1451
Flags: W
LayerCount: 2
Fore
SplineSet
812 534 m 1,0,-1
 -23 534 l 1,1,-1
 -23 709 l 1,2,-1
 637 709 l 1,3,-1
 637 1864 l 1,4,-1
 812 1864 l 1,5,-1
 812 534 l 1,0,-1
EndSplineSet
Validated: 1
EndChar

StartChar: SF080000
Encoding: 9500 9500 332
Width: 1451
Flags: W
LayerCount: 2
Fore
SplineSet
638 -621 m 1,0,-1
 638 1864 l 1,1,-1
 813 1864 l 1,2,-1
 813 709 l 1,3,-1
 1474 709 l 1,4,-1
 1474 534 l 1,5,-1
 813 534 l 1,6,-1
 813 -621 l 1,7,-1
 638 -621 l 1,0,-1
EndSplineSet
Validated: 1
EndChar

StartChar: SF090000
Encoding: 9508 9508 333
Width: 1451
Flags: W
LayerCount: 2
Fore
SplineSet
637 -621 m 1,0,-1
 637 534 l 1,1,-1
 -23 534 l 1,2,-1
 -23 709 l 1,3,-1
 637 709 l 1,4,-1
 637 1864 l 1,5,-1
 812 1864 l 1,6,-1
 812 -621 l 1,7,-1
 637 -621 l 1,0,-1
EndSplineSet
Validated: 1
EndChar

StartChar: SF060000
Encoding: 9516 9516 334
Width: 1451
Flags: W
LayerCount: 2
Fore
SplineSet
637 534 m 1,0,-1
 -23 534 l 1,1,-1
 -23 709 l 1,2,-1
 1473 709 l 1,3,-1
 1473 534 l 1,4,-1
 812 534 l 1,5,-1
 812 -621 l 1,6,-1
 637 -621 l 1,7,-1
 637 534 l 1,0,-1
EndSplineSet
Validated: 1
EndChar

StartChar: SF070000
Encoding: 9524 9524 335
Width: 1451
Flags: W
LayerCount: 2
Fore
SplineSet
1473 534 m 1,0,-1
 -23 534 l 1,1,-1
 -23 709 l 1,2,-1
 637 709 l 1,3,-1
 637 1864 l 1,4,-1
 812 1864 l 1,5,-1
 812 709 l 1,6,-1
 1473 709 l 1,7,-1
 1473 534 l 1,0,-1
EndSplineSet
Validated: 1
EndChar

StartChar: SF050000
Encoding: 9532 9532 336
Width: 1451
Flags: W
LayerCount: 2
Fore
SplineSet
637 534 m 1,0,-1
 -23 534 l 1,1,-1
 -23 709 l 1,2,-1
 637 709 l 1,3,-1
 637 1864 l 1,4,-1
 812 1864 l 1,5,-1
 812 709 l 1,6,-1
 1473 709 l 1,7,-1
 1473 534 l 1,8,-1
 812 534 l 1,9,-1
 812 -621 l 1,10,-1
 637 -621 l 1,11,-1
 637 534 l 1,0,-1
EndSplineSet
Validated: 1
EndChar

StartChar: SF430000
Encoding: 9552 9552 337
Width: 1451
Flags: W
LayerCount: 2
Fore
SplineSet
1473 724 m 1,0,-1
 -23 724 l 1,1,-1
 -23 899 l 1,2,-1
 1473 899 l 1,3,-1
 1473 724 l 1,0,-1
1473 344 m 1,4,-1
 -23 344 l 1,5,-1
 -23 519 l 1,6,-1
 1473 519 l 1,7,-1
 1473 344 l 1,4,-1
EndSplineSet
Validated: 1
EndChar

StartChar: SF240000
Encoding: 9553 9553 338
Width: 1451
Flags: W
LayerCount: 2
Fore
SplineSet
828 -621 m 1,0,-1
 828 1864 l 1,1,-1
 1003 1864 l 1,2,-1
 1003 -621 l 1,3,-1
 828 -621 l 1,0,-1
448 -621 m 1,4,-1
 448 1864 l 1,5,-1
 623 1864 l 1,6,-1
 623 -621 l 1,7,-1
 448 -621 l 1,4,-1
EndSplineSet
Validated: 1
EndChar

StartChar: SF510000
Encoding: 9554 9554 339
Width: 1451
Flags: W
LayerCount: 2
Fore
SplineSet
638 -621 m 1,0,-1
 638 899 l 1,1,-1
 1474 899 l 1,2,-1
 1474 724 l 1,3,-1
 813 724 l 1,4,-1
 813 519 l 1,5,-1
 1474 519 l 1,6,-1
 1474 344 l 1,7,-1
 813 344 l 1,8,-1
 813 -621 l 1,9,-1
 638 -621 l 1,0,-1
EndSplineSet
Validated: 1
EndChar

StartChar: SF520000
Encoding: 9555 9555 340
Width: 1451
Flags: W
LayerCount: 2
Fore
SplineSet
448 -621 m 1,0,-1
 448 709 l 1,1,-1
 1474 709 l 1,2,-1
 1474 534 l 1,3,-1
 1003 534 l 1,4,-1
 1003 -621 l 1,5,-1
 828 -621 l 1,6,-1
 828 519 l 1,7,-1
 623 519 l 1,8,-1
 623 -621 l 1,9,-1
 448 -621 l 1,0,-1
EndSplineSet
Validated: 1
EndChar

StartChar: SF390000
Encoding: 9556 9556 341
Width: 1451
Flags: W
LayerCount: 2
Fore
SplineSet
623 -621 m 1,0,-1
 448 -621 l 1,1,-1
 448 899 l 1,2,-1
 1473 899 l 1,3,-1
 1473 724 l 1,4,-1
 623 724 l 1,5,-1
 623 -621 l 1,0,-1
1003 344 m 1,6,-1
 1003 -621 l 1,7,-1
 828 -621 l 1,8,-1
 828 519 l 1,9,-1
 1473 519 l 1,10,-1
 1473 344 l 1,11,-1
 1003 344 l 1,6,-1
EndSplineSet
Validated: 1
EndChar

StartChar: SF220000
Encoding: 9557 9557 342
Width: 1451
Flags: W
LayerCount: 2
Fore
SplineSet
637 344 m 1,0,-1
 -23 344 l 1,1,-1
 -23 519 l 1,2,-1
 637 519 l 1,3,-1
 637 724 l 1,4,-1
 -23 724 l 1,5,-1
 -23 899 l 1,6,-1
 812 899 l 1,7,-1
 812 -621 l 1,8,-1
 637 -621 l 1,9,-1
 637 344 l 1,0,-1
EndSplineSet
Validated: 1
EndChar

StartChar: SF210000
Encoding: 9558 9558 343
Width: 1451
Flags: W
LayerCount: 2
Fore
SplineSet
447 -621 m 1,0,-1
 448 534 l 1,1,-1
 -23 534 l 1,2,-1
 -23 709 l 1,3,-1
 1002 709 l 1,4,-1
 1002 -621 l 1,5,-1
 827 -621 l 1,6,-1
 827 534 l 1,7,-1
 622 534 l 1,8,-1
 622 -621 l 1,9,-1
 447 -621 l 1,0,-1
EndSplineSet
Validated: 1
EndChar

StartChar: SF250000
Encoding: 9559 9559 344
Width: 1451
Flags: W
LayerCount: 2
Fore
SplineSet
827 -621 m 1,0,-1
 827 724 l 1,1,-1
 -23 724 l 1,2,-1
 -23 899 l 1,3,-1
 1002 899 l 1,4,-1
 1002 -621 l 1,5,-1
 827 -621 l 1,0,-1
447 344 m 1,6,-1
 -23 344 l 1,7,-1
 -23 519 l 1,8,-1
 622 519 l 1,9,-1
 622 -621 l 1,10,-1
 447 -621 l 1,11,-1
 447 344 l 1,6,-1
EndSplineSet
Validated: 1
EndChar

StartChar: SF500000
Encoding: 9560 9560 345
Width: 1451
Flags: W
LayerCount: 2
Fore
SplineSet
638 344 m 1,0,-1
 638 1864 l 1,1,-1
 813 1864 l 1,2,-1
 813 899 l 1,3,-1
 1474 899 l 1,4,-1
 1474 724 l 1,5,-1
 813 724 l 1,6,-1
 813 519 l 1,7,-1
 1474 519 l 1,8,-1
 1474 344 l 1,9,-1
 638 344 l 1,0,-1
EndSplineSet
Validated: 1
EndChar

StartChar: SF490000
Encoding: 9561 9561 346
Width: 1451
Flags: W
LayerCount: 2
Fore
SplineSet
1474 534 m 1,0,-1
 448 534 l 1,1,-1
 448 1864 l 1,2,-1
 623 1864 l 1,3,-1
 623 709 l 1,4,-1
 828 709 l 1,5,-1
 828 1864 l 1,6,-1
 1003 1864 l 1,7,-1
 1003 709 l 1,8,-1
 1474 709 l 1,9,-1
 1474 534 l 1,0,-1
EndSplineSet
Validated: 1
EndChar

StartChar: SF380000
Encoding: 9562 9562 347
Width: 1451
Flags: W
LayerCount: 2
Fore
SplineSet
623 1864 m 1,0,-1
 623 519 l 1,1,-1
 1473 519 l 1,2,-1
 1473 344 l 1,3,-1
 448 344 l 1,4,-1
 448 1864 l 1,5,-1
 623 1864 l 1,0,-1
1003 899 m 1,6,-1
 1473 899 l 1,7,-1
 1473 724 l 1,8,-1
 828 724 l 1,9,-1
 828 1864 l 1,10,-1
 1003 1864 l 1,11,-1
 1003 899 l 1,6,-1
EndSplineSet
Validated: 1
EndChar

StartChar: SF280000
Encoding: 9563 9563 348
Width: 1451
Flags: W
LayerCount: 2
Fore
SplineSet
812 344 m 1,0,-1
 -23 344 l 1,1,-1
 -23 519 l 1,2,-1
 637 519 l 1,3,-1
 637 724 l 1,4,-1
 -23 724 l 1,5,-1
 -23 899 l 1,6,-1
 637 899 l 1,7,-1
 637 1864 l 1,8,-1
 812 1864 l 1,9,-1
 812 344 l 1,0,-1
EndSplineSet
Validated: 1
EndChar

StartChar: SF270000
Encoding: 9564 9564 349
Width: 1451
Flags: W
LayerCount: 2
Fore
SplineSet
1002 534 m 1,0,-1
 -23 534 l 1,1,-1
 -23 709 l 1,2,-1
 447 709 l 1,3,-1
 447 1864 l 1,4,-1
 622 1864 l 1,5,-1
 622 709 l 1,6,-1
 827 709 l 1,7,-1
 827 1864 l 1,8,-1
 1002 1864 l 1,9,-1
 1002 534 l 1,0,-1
EndSplineSet
Validated: 1
EndChar

StartChar: SF260000
Encoding: 9565 9565 350
Width: 1451
Flags: W
LayerCount: 2
Fore
SplineSet
827 1864 m 1,0,-1
 1002 1864 l 1,1,-1
 1002 344 l 1,2,-1
 -23 344 l 1,3,-1
 -23 519 l 1,4,-1
 827 519 l 1,5,-1
 827 1864 l 1,0,-1
447 899 m 1,6,-1
 447 1864 l 1,7,-1
 622 1864 l 1,8,-1
 622 724 l 1,9,-1
 -23 724 l 1,10,-1
 -23 899 l 1,11,-1
 447 899 l 1,6,-1
EndSplineSet
Validated: 1
EndChar

StartChar: SF360000
Encoding: 9566 9566 351
Width: 1451
Flags: W
LayerCount: 2
Fore
SplineSet
638 -621 m 1,0,-1
 638 1864 l 1,1,-1
 813 1864 l 1,2,-1
 813 899 l 1,3,-1
 1474 899 l 1,4,-1
 1474 724 l 1,5,-1
 813 724 l 1,6,-1
 813 519 l 1,7,-1
 1474 519 l 1,8,-1
 1474 344 l 1,9,-1
 813 344 l 1,10,-1
 813 -621 l 1,11,-1
 638 -621 l 1,0,-1
EndSplineSet
Validated: 1
EndChar

StartChar: SF370000
Encoding: 9567 9567 352
Width: 1451
Flags: W
LayerCount: 2
Fore
SplineSet
828 -621 m 1,0,-1
 828 1864 l 1,1,-1
 1003 1864 l 1,2,-1
 1003 709 l 1,3,-1
 1474 709 l 1,4,-1
 1474 534 l 1,5,-1
 1003 534 l 1,6,-1
 1003 -621 l 1,7,-1
 828 -621 l 1,0,-1
448 -621 m 1,8,-1
 448 1864 l 1,9,-1
 623 1864 l 1,10,-1
 623 -621 l 1,11,-1
 448 -621 l 1,8,-1
EndSplineSet
Validated: 1
EndChar

StartChar: SF420000
Encoding: 9568 9568 353
Width: 1451
Flags: W
LayerCount: 2
Fore
SplineSet
448 -621 m 1,0,-1
 448 1864 l 1,1,-1
 623 1864 l 1,2,-1
 623 -621 l 1,3,-1
 448 -621 l 1,0,-1
828 724 m 1,4,-1
 828 1864 l 1,5,-1
 1003 1864 l 1,6,-1
 1003 899 l 1,7,-1
 1474 899 l 1,8,-1
 1474 724 l 1,9,-1
 828 724 l 1,4,-1
828 -621 m 1,10,-1
 828 519 l 1,11,-1
 1474 519 l 1,12,-1
 1474 344 l 1,13,-1
 1003 344 l 1,14,-1
 1003 -621 l 1,15,-1
 828 -621 l 1,10,-1
EndSplineSet
Validated: 1
EndChar

StartChar: SF190000
Encoding: 9569 9569 354
Width: 1451
Flags: W
LayerCount: 2
Fore
SplineSet
637 344 m 1,0,-1
 -23 344 l 1,1,-1
 -23 519 l 1,2,-1
 638 519 l 1,3,-1
 637 724 l 1,4,-1
 -23 724 l 1,5,-1
 -23 899 l 1,6,-1
 637 899 l 1,7,-1
 637 1864 l 1,8,-1
 812 1864 l 1,9,-1
 812 -621 l 1,10,-1
 637 -621 l 1,11,-1
 637 344 l 1,0,-1
EndSplineSet
Validated: 1
EndChar

StartChar: SF200000
Encoding: 9570 9570 355
Width: 1451
Flags: W
LayerCount: 2
Fore
SplineSet
447 -621 m 1,0,-1
 448 534 l 1,1,-1
 -23 534 l 1,2,-1
 -23 709 l 1,3,-1
 447 709 l 1,4,-1
 447 1864 l 1,5,-1
 622 1864 l 1,6,-1
 622 -621 l 1,7,-1
 447 -621 l 1,0,-1
827 -621 m 1,8,-1
 827 1864 l 1,9,-1
 1002 1864 l 1,10,-1
 1002 -621 l 1,11,-1
 827 -621 l 1,8,-1
EndSplineSet
Validated: 1
EndChar

StartChar: SF230000
Encoding: 9571 9571 356
Width: 1451
Flags: W
LayerCount: 2
Fore
SplineSet
827 -621 m 1,0,-1
 827 1864 l 1,1,-1
 1002 1864 l 1,2,-1
 1002 -621 l 1,3,-1
 827 -621 l 1,0,-1
622 1864 m 1,4,-1
 622 724 l 1,5,-1
 -23 724 l 1,6,-1
 -23 899 l 1,7,-1
 447 899 l 1,8,-1
 447 1864 l 1,9,-1
 622 1864 l 1,4,-1
447 344 m 1,10,-1
 -23 344 l 1,11,-1
 -23 519 l 1,12,-1
 622 519 l 1,13,-1
 622 -621 l 1,14,-1
 447 -621 l 1,15,-1
 447 344 l 1,10,-1
EndSplineSet
Validated: 1
EndChar

StartChar: SF470000
Encoding: 9572 9572 357
Width: 1451
Flags: W
LayerCount: 2
Fore
SplineSet
1473 724 m 1,0,-1
 -23 724 l 1,1,-1
 -23 899 l 1,2,-1
 1473 899 l 1,3,-1
 1473 724 l 1,0,-1
637 344 m 1,4,-1
 -23 344 l 1,5,-1
 -23 519 l 1,6,-1
 1473 519 l 1,7,-1
 1473 344 l 1,8,-1
 812 344 l 1,9,-1
 812 -621 l 1,10,-1
 637 -621 l 1,11,-1
 637 344 l 1,4,-1
EndSplineSet
Validated: 1
EndChar

StartChar: SF480000
Encoding: 9573 9573 358
Width: 1451
Flags: W
LayerCount: 2
Fore
SplineSet
447 -621 m 1,0,-1
 448 534 l 1,1,-1
 -23 534 l 1,2,-1
 -23 709 l 1,3,-1
 1473 709 l 1,4,-1
 1473 534 l 1,5,-1
 1002 534 l 1,6,-1
 1002 -621 l 1,7,-1
 827 -621 l 1,8,-1
 827 519 l 1,9,-1
 622 519 l 1,10,-1
 622 -621 l 1,11,-1
 447 -621 l 1,0,-1
EndSplineSet
Validated: 1
EndChar

StartChar: SF410000
Encoding: 9574 9574 359
Width: 1451
Flags: W
LayerCount: 2
Fore
SplineSet
1473 724 m 1,0,-1
 -23 724 l 1,1,-1
 -23 899 l 1,2,-1
 1473 899 l 1,3,-1
 1473 724 l 1,0,-1
447 344 m 1,4,-1
 -23 344 l 1,5,-1
 -23 519 l 1,6,-1
 622 519 l 1,7,-1
 622 -621 l 1,8,-1
 447 -621 l 1,9,-1
 447 344 l 1,4,-1
827 -621 m 1,10,-1
 827 519 l 1,11,-1
 1473 519 l 1,12,-1
 1473 344 l 1,13,-1
 1002 344 l 1,14,-1
 1002 -621 l 1,15,-1
 827 -621 l 1,10,-1
EndSplineSet
Validated: 1
EndChar

StartChar: SF450000
Encoding: 9575 9575 360
Width: 1451
Flags: W
LayerCount: 2
Fore
SplineSet
1473 724 m 1,0,-1
 -23 724 l 1,1,-1
 -23 899 l 1,2,-1
 637 899 l 1,3,-1
 637 1864 l 1,4,-1
 812 1864 l 1,5,-1
 812 899 l 1,6,-1
 1473 899 l 1,7,-1
 1473 724 l 1,0,-1
1473 344 m 1,8,-1
 -23 344 l 1,9,-1
 -23 519 l 1,10,-1
 1473 519 l 1,11,-1
 1473 344 l 1,8,-1
EndSplineSet
Validated: 1
EndChar

StartChar: SF460000
Encoding: 9576 9576 361
Width: 1451
Flags: W
LayerCount: 2
Fore
SplineSet
1473 534 m 1,0,-1
 -23 534 l 1,1,-1
 -23 709 l 1,2,-1
 447 709 l 1,3,-1
 447 1864 l 1,4,-1
 622 1864 l 1,5,-1
 622 709 l 1,6,-1
 827 709 l 1,7,-1
 827 1864 l 1,8,-1
 1002 1864 l 1,9,-1
 1002 709 l 1,10,-1
 1473 709 l 1,11,-1
 1473 534 l 1,0,-1
EndSplineSet
Validated: 1
EndChar

StartChar: SF400000
Encoding: 9577 9577 362
Width: 1451
Flags: W
LayerCount: 2
Fore
SplineSet
622 724 m 1,0,-1
 -23 724 l 1,1,-1
 -23 899 l 1,2,-1
 447 899 l 1,3,-1
 447 1864 l 1,4,-1
 622 1864 l 1,5,-1
 622 724 l 1,0,-1
1473 724 m 1,6,-1
 827 724 l 1,7,-1
 827 1864 l 1,8,-1
 1002 1864 l 1,9,-1
 1002 899 l 1,10,-1
 1473 899 l 1,11,-1
 1473 724 l 1,6,-1
1473 344 m 1,12,-1
 -23 344 l 1,13,-1
 -23 519 l 1,14,-1
 1473 519 l 1,15,-1
 1473 344 l 1,12,-1
EndSplineSet
Validated: 1
EndChar

StartChar: SF540000
Encoding: 9578 9578 363
Width: 1451
Flags: W
LayerCount: 2
Fore
SplineSet
637 344 m 1,0,-1
 -23 344 l 1,1,-1
 -23 519 l 1,2,-1
 637 519 l 1,3,-1
 637 724 l 1,4,-1
 -23 724 l 1,5,-1
 -23 899 l 1,6,-1
 637 899 l 1,7,-1
 637 1864 l 1,8,-1
 812 1864 l 1,9,-1
 812 899 l 1,10,-1
 1473 899 l 1,11,-1
 1473 724 l 1,12,-1
 812 724 l 1,13,-1
 812 519 l 1,14,-1
 1473 519 l 1,15,-1
 1473 344 l 1,16,-1
 812 344 l 1,17,-1
 812 -621 l 1,18,-1
 637 -621 l 1,19,-1
 637 344 l 1,0,-1
EndSplineSet
Validated: 1
EndChar

StartChar: SF530000
Encoding: 9579 9579 364
Width: 1451
Flags: W
LayerCount: 2
Fore
SplineSet
447 -621 m 1,0,-1
 448 534 l 1,1,-1
 -23 534 l 1,2,-1
 -23 709 l 1,3,-1
 447 709 l 1,4,-1
 447 1864 l 1,5,-1
 622 1864 l 1,6,-1
 622 709 l 1,7,-1
 827 709 l 1,8,-1
 827 1864 l 1,9,-1
 1002 1864 l 1,10,-1
 1002 709 l 1,11,-1
 1473 709 l 1,12,-1
 1473 534 l 1,13,-1
 1002 534 l 1,14,-1
 1002 -621 l 1,15,-1
 827 -621 l 1,16,-1
 827 534 l 1,17,-1
 622 534 l 1,18,-1
 622 -621 l 1,19,-1
 447 -621 l 1,0,-1
EndSplineSet
Validated: 1
EndChar

StartChar: SF440000
Encoding: 9580 9580 365
Width: 1451
Flags: W
LayerCount: 2
Fore
SplineSet
1003 899 m 1,0,-1
 1473 899 l 1,1,-1
 1473 724 l 1,2,-1
 828 724 l 1,3,-1
 828 1864 l 1,4,-1
 1003 1864 l 1,5,-1
 1003 899 l 1,0,-1
447 899 m 1,6,-1
 447 1864 l 1,7,-1
 622 1864 l 1,8,-1
 622 724 l 1,9,-1
 -23 724 l 1,10,-1
 -23 899 l 1,11,-1
 447 899 l 1,6,-1
447 344 m 1,12,-1
 -23 344 l 1,13,-1
 -23 519 l 1,14,-1
 622 519 l 1,15,-1
 622 -621 l 1,16,-1
 447 -621 l 1,17,-1
 447 344 l 1,12,-1
1003 344 m 1,18,-1
 1003 -621 l 1,19,-1
 828 -621 l 1,20,-1
 828 519 l 1,21,-1
 1473 519 l 1,22,-1
 1473 344 l 1,23,-1
 1003 344 l 1,18,-1
EndSplineSet
Validated: 1
EndChar

StartChar: upblock
Encoding: 9600 9600 366
Width: 1451
Flags: W
LayerCount: 2
Fore
SplineSet
1473 621 m 1,0,-1
 -23 621 l 1,1,-1
 -23 1864 l 1,2,-1
 1473 1864 l 1,3,-1
 1473 621 l 1,0,-1
EndSplineSet
Validated: 1
EndChar

StartChar: dnblock
Encoding: 9604 9604 367
Width: 1451
Flags: W
LayerCount: 2
Fore
SplineSet
1473 -621 m 1,0,-1
 -23 -621 l 1,1,-1
 -23 621 l 1,2,-1
 1473 621 l 1,3,-1
 1473 -621 l 1,0,-1
EndSplineSet
Validated: 1
EndChar

StartChar: block
Encoding: 9608 9608 368
Width: 1451
Flags: W
LayerCount: 2
Fore
SplineSet
-23 -621 m 1,0,-1
 -23 1864 l 1,1,-1
 1473 1864 l 1,2,-1
 1473 -621 l 1,3,-1
 -23 -621 l 1,0,-1
EndSplineSet
Validated: 1
EndChar

StartChar: lfblock
Encoding: 9612 9612 369
Width: 1451
Flags: W
LayerCount: 2
Fore
SplineSet
-23 -621 m 1,0,-1
 -23 1864 l 1,1,-1
 725 1864 l 1,2,-1
 725 -621 l 1,3,-1
 -23 -621 l 1,0,-1
EndSplineSet
Validated: 1
EndChar

StartChar: rtblock
Encoding: 9616 9616 370
Width: 1451
Flags: W
LayerCount: 2
Fore
SplineSet
726 -621 m 1,0,-1
 726 1864 l 1,1,-1
 1474 1864 l 1,2,-1
 1474 -621 l 1,3,-1
 726 -621 l 1,0,-1
EndSplineSet
Validated: 1
EndChar

StartChar: ltshade
Encoding: 9617 9617 371
Width: 1451
Flags: W
LayerCount: 2
Fore
SplineSet
102 1864 m 1,0,-1
 227 1864 l 1,1,-1
 227 1739 l 1,2,-1
 102 1739 l 1,3,-1
 102 1864 l 1,0,-1
600 1864 m 1,4,-1
 725 1864 l 1,5,-1
 725 1739 l 1,6,-1
 600 1739 l 1,7,-1
 600 1864 l 1,4,-1
1099 1864 m 1,8,-1
 1224 1864 l 1,9,-1
 1224 1739 l 1,10,-1
 1099 1739 l 1,11,-1
 1099 1864 l 1,8,-1
351 1615 m 1,12,-1
 476 1615 l 1,13,-1
 476 1490 l 1,14,-1
 351 1490 l 1,15,-1
 351 1615 l 1,12,-1
850 1615 m 1,16,-1
 974 1615 l 1,17,-1
 974 1490 l 1,18,-1
 850 1490 l 1,19,-1
 850 1615 l 1,16,-1
1348 1615 m 1,20,-1
 1473 1615 l 1,21,-1
 1473 1490 l 1,22,-1
 1348 1490 l 1,23,-1
 1348 1615 l 1,20,-1
1099 1366 m 1,24,-1
 1224 1366 l 1,25,-1
 1224 1241 l 1,26,-1
 1099 1241 l 1,27,-1
 1099 1366 l 1,24,-1
600 1366 m 1,28,-1
 725 1366 l 1,29,-1
 725 1241 l 1,30,-1
 600 1241 l 1,31,-1
 600 1366 l 1,28,-1
102 1366 m 1,32,-1
 227 1366 l 1,33,-1
 227 1241 l 1,34,-1
 102 1241 l 1,35,-1
 102 1366 l 1,32,-1
1348 1116 m 1,36,-1
 1473 1116 l 1,37,-1
 1473 992 l 1,38,-1
 1348 992 l 1,39,-1
 1348 1116 l 1,36,-1
850 1116 m 1,40,-1
 974 1116 l 1,41,-1
 974 992 l 1,42,-1
 850 992 l 1,43,-1
 850 1116 l 1,40,-1
351 1116 m 1,44,-1
 476 1116 l 1,45,-1
 476 992 l 1,46,-1
 351 992 l 1,47,-1
 351 1116 l 1,44,-1
102 867 m 1,48,-1
 227 867 l 1,49,-1
 227 742 l 1,50,-1
 102 742 l 1,51,-1
 102 867 l 1,48,-1
600 867 m 1,52,-1
 725 867 l 1,53,-1
 725 742 l 1,54,-1
 600 742 l 1,55,-1
 600 867 l 1,52,-1
1099 867 m 1,56,-1
 1224 867 l 1,57,-1
 1224 742 l 1,58,-1
 1099 742 l 1,59,-1
 1099 867 l 1,56,-1
1348 618 m 1,60,-1
 1473 618 l 1,61,-1
 1473 493 l 1,62,-1
 1348 493 l 1,63,-1
 1348 618 l 1,60,-1
850 618 m 1,64,-1
 974 618 l 1,65,-1
 974 493 l 1,66,-1
 850 493 l 1,67,-1
 850 618 l 1,64,-1
351 618 m 1,68,-1
 476 618 l 1,69,-1
 476 493 l 1,70,-1
 351 493 l 1,71,-1
 351 618 l 1,68,-1
102 369 m 1,72,-1
 227 369 l 1,73,-1
 227 244 l 1,74,-1
 102 244 l 1,75,-1
 102 369 l 1,72,-1
600 369 m 1,76,-1
 725 369 l 1,77,-1
 725 244 l 1,78,-1
 600 244 l 1,79,-1
 600 369 l 1,76,-1
1099 369 m 1,80,-1
 1224 369 l 1,81,-1
 1224 244 l 1,82,-1
 1099 244 l 1,83,-1
 1099 369 l 1,80,-1
351 119 m 1,84,-1
 476 119 l 1,85,-1
 476 -5 l 1,86,-1
 351 -5 l 1,87,-1
 351 119 l 1,84,-1
850 119 m 1,88,-1
 974 119 l 1,89,-1
 974 -5 l 1,90,-1
 850 -5 l 1,91,-1
 850 119 l 1,88,-1
1348 119 m 1,92,-1
 1473 119 l 1,93,-1
 1473 -5 l 1,94,-1
 1348 -5 l 1,95,-1
 1348 119 l 1,92,-1
1099 -130 m 1,96,-1
 1224 -130 l 1,97,-1
 1224 -255 l 1,98,-1
 1099 -255 l 1,99,-1
 1099 -130 l 1,96,-1
600 -130 m 1,100,-1
 725 -130 l 1,101,-1
 725 -255 l 1,102,-1
 600 -255 l 1,103,-1
 600 -130 l 1,100,-1
102 -130 m 1,104,-1
 227 -130 l 1,105,-1
 227 -255 l 1,106,-1
 102 -255 l 1,107,-1
 102 -130 l 1,104,-1
351 -379 m 1,108,-1
 476 -379 l 1,109,-1
 476 -504 l 1,110,-1
 351 -504 l 1,111,-1
 351 -379 l 1,108,-1
850 -379 m 1,112,-1
 974 -379 l 1,113,-1
 974 -504 l 1,114,-1
 850 -504 l 1,115,-1
 850 -379 l 1,112,-1
1348 -379 m 1,116,-1
 1473 -379 l 1,117,-1
 1473 -504 l 1,118,-1
 1348 -504 l 1,119,-1
 1348 -379 l 1,116,-1
EndSplineSet
Validated: 1
EndChar

StartChar: shade
Encoding: 9618 9618 372
Width: 1451
Flags: W
LayerCount: 2
Fore
SplineSet
103 1864 m 1,0,-1
 227 1864 l 1,1,-1
 227 1739 l 1,2,-1
 103 1739 l 1,3,-1
 103 1864 l 1,0,-1
352 1864 m 1,4,-1
 476 1864 l 1,5,-1
 476 1739 l 1,6,-1
 352 1739 l 1,7,-1
 352 1864 l 1,4,-1
601 1864 m 1,8,-1
 726 1864 l 1,9,-1
 726 1739 l 1,10,-1
 601 1739 l 1,11,-1
 601 1864 l 1,8,-1
850 1864 m 1,12,-1
 975 1864 l 1,13,-1
 975 1739 l 1,14,-1
 850 1739 l 1,15,-1
 850 1864 l 1,12,-1
1100 1864 m 1,16,-1
 1224 1864 l 1,17,-1
 1224 1739 l 1,18,-1
 1100 1739 l 1,19,-1
 1100 1864 l 1,16,-1
1349 1864 m 1,20,-1
 1473 1864 l 1,21,-1
 1473 1739 l 1,22,-1
 1349 1739 l 1,23,-1
 1349 1864 l 1,20,-1
-22 1615 m 1,24,-1
 103 1615 l 1,25,-1
 103 1490 l 1,26,-1
 -22 1490 l 1,27,-1
 -22 1615 l 1,24,-1
227 1615 m 1,28,-1
 352 1615 l 1,29,-1
 352 1490 l 1,30,-1
 227 1490 l 1,31,-1
 227 1615 l 1,28,-1
476 1615 m 1,32,-1
 601 1615 l 1,33,-1
 601 1490 l 1,34,-1
 476 1490 l 1,35,-1
 476 1615 l 1,32,-1
726 1615 m 1,36,-1
 850 1615 l 1,37,-1
 850 1490 l 1,38,-1
 726 1490 l 1,39,-1
 726 1615 l 1,36,-1
975 1615 m 1,40,-1
 1100 1615 l 1,41,-1
 1100 1490 l 1,42,-1
 975 1490 l 1,43,-1
 975 1615 l 1,40,-1
1224 1615 m 1,44,-1
 1349 1615 l 1,45,-1
 1349 1490 l 1,46,-1
 1224 1490 l 1,47,-1
 1224 1615 l 1,44,-1
1224 1615 m 1,48,-1
 1349 1615 l 1,49,-1
 1349 1490 l 1,50,-1
 1224 1490 l 1,51,-1
 1224 1615 l 1,48,-1
1224 1615 m 1,52,-1
 1349 1615 l 1,53,-1
 1349 1490 l 1,54,-1
 1224 1490 l 1,55,-1
 1224 1615 l 1,52,-1
103 1366 m 1,56,-1
 227 1366 l 1,57,-1
 227 1241 l 1,58,-1
 103 1241 l 1,59,-1
 103 1366 l 1,56,-1
352 1366 m 1,60,-1
 476 1366 l 1,61,-1
 476 1241 l 1,62,-1
 352 1241 l 1,63,-1
 352 1366 l 1,60,-1
601 1366 m 1,64,-1
 726 1366 l 1,65,-1
 726 1241 l 1,66,-1
 601 1241 l 1,67,-1
 601 1366 l 1,64,-1
850 1366 m 1,68,-1
 975 1366 l 1,69,-1
 975 1241 l 1,70,-1
 850 1241 l 1,71,-1
 850 1366 l 1,68,-1
1100 1366 m 1,72,-1
 1224 1366 l 1,73,-1
 1224 1241 l 1,74,-1
 1100 1241 l 1,75,-1
 1100 1366 l 1,72,-1
1349 1366 m 1,76,-1
 1473 1366 l 1,77,-1
 1473 1241 l 1,78,-1
 1349 1241 l 1,79,-1
 1349 1366 l 1,76,-1
-22 1116 m 1,80,-1
 103 1116 l 1,81,-1
 103 992 l 1,82,-1
 -22 992 l 1,83,-1
 -22 1116 l 1,80,-1
227 1116 m 1,84,-1
 352 1116 l 1,85,-1
 352 992 l 1,86,-1
 227 992 l 1,87,-1
 227 1116 l 1,84,-1
476 1116 m 1,88,-1
 601 1116 l 1,89,-1
 601 992 l 1,90,-1
 476 992 l 1,91,-1
 476 1116 l 1,88,-1
726 1116 m 1,92,-1
 850 1116 l 1,93,-1
 850 992 l 1,94,-1
 726 992 l 1,95,-1
 726 1116 l 1,92,-1
975 1116 m 1,96,-1
 1100 1116 l 1,97,-1
 1100 992 l 1,98,-1
 975 992 l 1,99,-1
 975 1116 l 1,96,-1
1224 1116 m 1,100,-1
 1349 1116 l 1,101,-1
 1349 992 l 1,102,-1
 1224 992 l 1,103,-1
 1224 1116 l 1,104,-1
 1349 1116 l 1,105,-1
 1349 992 l 1,106,-1
 1224 992 l 1,107,-1
 1224 1116 l 1,100,-1
1224 1116 m 1,108,-1
 1349 1116 l 1,109,-1
 1349 992 l 1,110,-1
 1224 992 l 1,111,-1
 1224 1116 l 1,108,-1
103 867 m 1,112,-1
 227 867 l 1,113,-1
 227 742 l 1,114,-1
 103 742 l 1,115,-1
 103 867 l 1,112,-1
352 867 m 1,116,-1
 476 867 l 1,117,-1
 476 742 l 1,118,-1
 352 742 l 1,119,-1
 352 867 l 1,116,-1
601 867 m 1,120,-1
 726 867 l 1,121,-1
 726 742 l 1,122,-1
 601 742 l 1,123,-1
 601 867 l 1,120,-1
850 867 m 1,124,-1
 975 867 l 1,125,-1
 975 742 l 1,126,-1
 850 742 l 1,127,-1
 850 867 l 1,124,-1
1100 867 m 1,128,-1
 1224 867 l 1,129,-1
 1224 742 l 1,130,-1
 1100 742 l 1,131,-1
 1100 867 l 1,128,-1
1349 867 m 1,132,-1
 1473 867 l 1,133,-1
 1473 742 l 1,134,-1
 1349 742 l 1,135,-1
 1349 867 l 1,132,-1
-22 618 m 1,136,-1
 103 618 l 1,137,-1
 103 493 l 1,138,-1
 -22 493 l 1,139,-1
 -22 618 l 1,136,-1
476 618 m 1,140,-1
 601 618 l 1,141,-1
 601 493 l 1,142,-1
 476 493 l 1,143,-1
 476 618 l 1,140,-1
726 618 m 1,144,-1
 850 618 l 1,145,-1
 850 493 l 1,146,-1
 726 493 l 1,147,-1
 726 618 l 1,144,-1
975 618 m 1,148,-1
 1100 618 l 1,149,-1
 1100 493 l 1,150,-1
 975 493 l 1,151,-1
 975 618 l 1,148,-1
1224 618 m 1,152,-1
 1349 618 l 1,153,-1
 1349 493 l 1,154,-1
 1224 493 l 1,155,-1
 1224 618 l 1,152,-1
227 618 m 1,156,-1
 352 618 l 1,157,-1
 352 493 l 1,158,-1
 227 493 l 1,159,-1
 227 618 l 1,156,-1
1349 369 m 1,160,-1
 1473 369 l 1,161,-1
 1473 244 l 1,162,-1
 1349 244 l 1,163,-1
 1349 369 l 1,160,-1
1100 369 m 1,164,-1
 1224 369 l 1,165,-1
 1224 244 l 1,166,-1
 1100 244 l 1,167,-1
 1100 369 l 1,164,-1
850 369 m 1,168,-1
 975 369 l 1,169,-1
 975 244 l 1,170,-1
 850 244 l 1,171,-1
 850 369 l 1,168,-1
601 369 m 1,172,-1
 726 369 l 1,173,-1
 726 244 l 1,174,-1
 601 244 l 1,175,-1
 601 369 l 1,172,-1
352 369 m 1,176,-1
 476 369 l 1,177,-1
 476 244 l 1,178,-1
 352 244 l 1,179,-1
 352 369 l 1,176,-1
103 369 m 1,180,-1
 227 369 l 1,181,-1
 227 244 l 1,182,-1
 103 244 l 1,183,-1
 103 369 l 1,180,-1
-22 119 m 1,184,-1
 103 119 l 1,185,-1
 103 -5 l 1,186,-1
 -22 -5 l 1,187,-1
 -22 119 l 1,184,-1
227 119 m 1,188,-1
 352 119 l 1,189,-1
 352 -5 l 1,190,-1
 227 -5 l 1,191,-1
 227 119 l 1,188,-1
476 119 m 1,192,-1
 601 119 l 1,193,-1
 601 -5 l 1,194,-1
 476 -5 l 1,195,-1
 476 119 l 1,192,-1
726 119 m 1,196,-1
 850 119 l 1,197,-1
 850 -5 l 1,198,-1
 726 -5 l 1,199,-1
 726 119 l 1,196,-1
975 119 m 1,200,-1
 1100 119 l 1,201,-1
 1100 -5 l 1,202,-1
 975 -5 l 1,203,-1
 975 119 l 1,200,-1
1224 119 m 1,204,-1
 1349 119 l 1,205,-1
 1349 -5 l 1,206,-1
 1224 -5 l 1,207,-1
 1224 119 l 1,204,-1
1349 -130 m 1,208,-1
 1473 -130 l 1,209,-1
 1473 -255 l 1,210,-1
 1349 -255 l 1,211,-1
 1349 -130 l 1,208,-1
1100 -130 m 1,212,-1
 1224 -130 l 1,213,-1
 1224 -255 l 1,214,-1
 1100 -255 l 1,215,-1
 1100 -130 l 1,212,-1
850 -130 m 1,216,-1
 975 -130 l 1,217,-1
 975 -255 l 1,218,-1
 850 -255 l 1,219,-1
 850 -130 l 1,216,-1
601 -130 m 1,220,-1
 726 -130 l 1,221,-1
 726 -255 l 1,222,-1
 601 -255 l 1,223,-1
 601 -130 l 1,220,-1
352 -130 m 1,224,-1
 476 -130 l 1,225,-1
 476 -255 l 1,226,-1
 352 -255 l 1,227,-1
 352 -130 l 1,224,-1
103 -130 m 1,228,-1
 227 -130 l 1,229,-1
 227 -255 l 1,230,-1
 103 -255 l 1,231,-1
 103 -130 l 1,228,-1
-22 -379 m 1,232,-1
 103 -379 l 1,233,-1
 103 -504 l 1,234,-1
 -22 -504 l 1,235,-1
 -22 -379 l 1,232,-1
227 -379 m 1,236,-1
 352 -379 l 1,237,-1
 352 -504 l 1,238,-1
 227 -504 l 1,239,-1
 227 -379 l 1,236,-1
476 -379 m 1,240,-1
 601 -379 l 1,241,-1
 601 -504 l 1,242,-1
 476 -504 l 1,243,-1
 476 -379 l 1,240,-1
726 -379 m 1,244,-1
 850 -379 l 1,245,-1
 850 -504 l 1,246,-1
 726 -504 l 1,247,-1
 726 -379 l 1,244,-1
975 -379 m 1,248,-1
 1100 -379 l 1,249,-1
 1100 -504 l 1,250,-1
 975 -504 l 1,251,-1
 975 -379 l 1,248,-1
1224 -379 m 1,252,-1
 1349 -379 l 1,253,-1
 1349 -504 l 1,254,-1
 1224 -504 l 1,255,-1
 1224 -379 l 1,252,-1
EndSplineSet
Validated: 5
EndChar

StartChar: dkshade
Encoding: 9619 9619 373
Width: 1493
Flags: W
LayerCount: 2
Fore
SplineSet
1494 1490 m 1,0,-1
 1494 1116 l 1,1,-1
 1370 1116 l 1,2,-1
 1370 992 l 1,3,-1
 1494 992 l 1,4,-1
 1494 618 l 1,5,-1
 1370 618 l 1,6,-1
 1370 493 l 1,7,-1
 1494 493 l 1,8,-1
 1494 119 l 1,9,-1
 1370 119 l 1,10,-1
 1370 -5 l 1,11,-1
 1494 -5 l 1,12,-1
 1494 -379 l 1,13,-1
 1370 -379 l 1,14,-1
 1370 -504 l 1,15,-1
 1494 -504 l 1,16,-1
 1494 -628 l 1,17,-1
 -1 -628 l 1,18,-1
 -1 -255 l 1,19,-1
 124 -255 l 1,20,-1
 124 -130 l 1,21,-1
 -1 -130 l 1,22,-1
 -1 244 l 1,23,-1
 124 244 l 1,24,-1
 124 369 l 1,25,-1
 -1 369 l 1,26,-1
 -1 742 l 1,27,-1
 124 742 l 1,28,-1
 124 867 l 1,29,-1
 -1 867 l 1,30,-1
 -1 1241 l 1,31,-1
 124 1241 l 1,32,-1
 124 1366 l 1,33,-1
 -1 1366 l 1,34,-1
 -1 1739 l 1,35,-1
 124 1739 l 1,36,-1
 124 1864 l 1,37,-1
 248 1864 l 1,38,-1
 248 1739 l 1,39,-1
 373 1739 l 1,40,-1
 373 1864 l 1,41,-1
 497 1864 l 1,42,-1
 497 1739 l 1,43,-1
 622 1739 l 1,44,-1
 622 1864 l 1,45,-1
 747 1864 l 1,46,-1
 747 1739 l 1,47,-1
 871 1739 l 1,48,-1
 871 1864 l 1,49,-1
 996 1864 l 1,50,-1
 996 1739 l 1,51,-1
 1121 1739 l 1,52,-1
 1121 1864 l 1,53,-1
 1245 1864 l 1,54,-1
 1245 1739 l 1,55,-1
 1370 1739 l 1,56,-1
 1370 1864 l 1,57,-1
 1494 1864 l 1,58,-1
 1494 1615 l 1,59,-1
 1370 1615 l 1,60,-1
 1370 1490 l 1,61,-1
 1494 1490 l 1,0,-1
124 1615 m 1,62,-1
 124 1490 l 1,63,-1
 248 1490 l 1,64,-1
 248 1615 l 1,65,-1
 124 1615 l 1,62,-1
373 1615 m 1,66,-1
 373 1490 l 1,67,-1
 497 1490 l 1,68,-1
 497 1615 l 1,69,-1
 373 1615 l 1,66,-1
622 1615 m 1,70,-1
 622 1490 l 1,71,-1
 747 1490 l 1,72,-1
 747 1615 l 1,73,-1
 622 1615 l 1,70,-1
871 1615 m 1,74,-1
 871 1490 l 1,75,-1
 996 1490 l 1,76,-1
 996 1615 l 1,77,-1
 871 1615 l 1,74,-1
1121 1615 m 1,78,-1
 1121 1490 l 1,79,-1
 1245 1490 l 1,80,-1
 1245 1615 l 1,81,-1
 1121 1615 l 1,78,-1
1370 1366 m 1,82,-1
 1245 1366 l 1,83,-1
 1245 1241 l 1,84,-1
 1370 1241 l 1,85,-1
 1370 1366 l 1,82,-1
1121 1366 m 1,86,-1
 996 1366 l 1,87,-1
 996 1241 l 1,88,-1
 1121 1241 l 1,89,-1
 1121 1366 l 1,86,-1
871 1366 m 1,90,-1
 747 1366 l 1,91,-1
 747 1241 l 1,92,-1
 871 1241 l 1,93,-1
 871 1366 l 1,90,-1
622 1366 m 1,94,-1
 497 1366 l 1,95,-1
 497 1241 l 1,96,-1
 622 1241 l 1,97,-1
 622 1366 l 1,94,-1
373 1366 m 1,98,-1
 248 1366 l 1,99,-1
 248 1241 l 1,100,-1
 373 1241 l 1,101,-1
 373 1366 l 1,98,-1
124 1116 m 1,102,-1
 124 992 l 1,103,-1
 248 992 l 1,104,-1
 248 1116 l 1,105,-1
 124 1116 l 1,102,-1
373 1116 m 1,106,-1
 373 992 l 1,107,-1
 497 992 l 1,108,-1
 497 1116 l 1,109,-1
 373 1116 l 1,106,-1
622 1116 m 1,110,-1
 622 992 l 1,111,-1
 747 992 l 1,112,-1
 747 1116 l 1,113,-1
 622 1116 l 1,110,-1
871 1116 m 1,114,-1
 871 992 l 1,115,-1
 996 992 l 1,116,-1
 996 1116 l 1,117,-1
 871 1116 l 1,114,-1
1121 1116 m 1,118,-1
 1121 992 l 1,119,-1
 1245 992 l 1,120,-1
 1245 1116 l 1,121,-1
 1121 1116 l 1,118,-1
373 867 m 1,122,-1
 248 867 l 1,123,-1
 248 742 l 1,124,-1
 373 742 l 1,125,-1
 373 867 l 1,122,-1
497 867 m 1,126,-1
 497 742 l 1,127,-1
 622 742 l 1,128,-1
 622 867 l 1,129,-1
 497 867 l 1,126,-1
747 867 m 1,130,-1
 747 742 l 1,131,-1
 871 742 l 1,132,-1
 871 867 l 1,133,-1
 747 867 l 1,130,-1
996 867 m 1,134,-1
 996 742 l 1,135,-1
 1121 742 l 1,136,-1
 1121 867 l 1,137,-1
 996 867 l 1,134,-1
1245 867 m 1,138,-1
 1245 742 l 1,139,-1
 1370 742 l 1,140,-1
 1370 867 l 1,141,-1
 1245 867 l 1,138,-1
124 618 m 1,142,-1
 124 493 l 1,143,-1
 248 493 l 1,144,-1
 248 618 l 1,145,-1
 124 618 l 1,142,-1
622 618 m 1,146,-1
 622 493 l 1,147,-1
 747 493 l 1,148,-1
 747 618 l 1,149,-1
 622 618 l 1,146,-1
497 493 m 1,150,-1
 497 618 l 1,151,-1
 373 618 l 1,152,-1
 373 493 l 1,153,-1
 497 493 l 1,150,-1
871 618 m 1,154,-1
 871 493 l 1,155,-1
 996 493 l 1,156,-1
 996 618 l 1,157,-1
 871 618 l 1,154,-1
1121 618 m 1,158,-1
 1121 493 l 1,159,-1
 1245 493 l 1,160,-1
 1245 618 l 1,161,-1
 1121 618 l 1,158,-1
1370 244 m 1,162,-1
 1370 369 l 1,163,-1
 1245 369 l 1,164,-1
 1245 244 l 1,165,-1
 1370 244 l 1,162,-1
1121 244 m 1,166,-1
 1121 369 l 1,167,-1
 996 369 l 1,168,-1
 996 244 l 1,169,-1
 1121 244 l 1,166,-1
871 244 m 1,170,-1
 871 369 l 1,171,-1
 747 369 l 1,172,-1
 747 244 l 1,173,-1
 871 244 l 1,170,-1
622 244 m 1,174,-1
 622 369 l 1,175,-1
 497 369 l 1,176,-1
 497 244 l 1,177,-1
 622 244 l 1,174,-1
373 244 m 1,178,-1
 373 369 l 1,179,-1
 248 369 l 1,180,-1
 248 244 l 1,181,-1
 373 244 l 1,178,-1
124 119 m 1,182,-1
 124 -5 l 1,183,-1
 248 -5 l 1,184,-1
 248 119 l 1,185,-1
 124 119 l 1,182,-1
373 119 m 1,186,-1
 373 -5 l 1,187,-1
 497 -5 l 1,188,-1
 497 119 l 1,189,-1
 373 119 l 1,186,-1
622 119 m 1,190,-1
 622 -5 l 1,191,-1
 747 -5 l 1,192,-1
 747 119 l 1,193,-1
 622 119 l 1,190,-1
871 119 m 1,194,-1
 871 -5 l 1,195,-1
 996 -5 l 1,196,-1
 996 119 l 1,197,-1
 871 119 l 1,194,-1
1121 119 m 1,198,-1
 1121 -5 l 1,199,-1
 1245 -5 l 1,200,-1
 1245 119 l 1,201,-1
 1121 119 l 1,198,-1
1370 -255 m 1,202,-1
 1370 -130 l 1,203,-1
 1245 -130 l 1,204,-1
 1245 -255 l 1,205,-1
 1370 -255 l 1,202,-1
1121 -255 m 1,206,-1
 1121 -130 l 1,207,-1
 996 -130 l 1,208,-1
 996 -255 l 1,209,-1
 1121 -255 l 1,206,-1
871 -255 m 1,210,-1
 871 -130 l 1,211,-1
 747 -130 l 1,212,-1
 747 -255 l 1,213,-1
 871 -255 l 1,210,-1
622 -255 m 1,214,-1
 622 -130 l 1,215,-1
 497 -130 l 1,216,-1
 497 -255 l 1,217,-1
 622 -255 l 1,214,-1
373 -255 m 1,218,-1
 373 -130 l 1,219,-1
 248 -130 l 1,220,-1
 248 -255 l 1,221,-1
 373 -255 l 1,218,-1
124 -379 m 1,222,-1
 124 -504 l 1,223,-1
 248 -504 l 1,224,-1
 248 -379 l 1,225,-1
 124 -379 l 1,222,-1
373 -379 m 1,226,-1
 373 -504 l 1,227,-1
 497 -504 l 1,228,-1
 497 -379 l 1,229,-1
 373 -379 l 1,226,-1
622 -379 m 1,230,-1
 622 -504 l 1,231,-1
 747 -504 l 1,232,-1
 747 -379 l 1,233,-1
 622 -379 l 1,230,-1
871 -379 m 1,234,-1
 871 -504 l 1,235,-1
 996 -504 l 1,236,-1
 996 -379 l 1,237,-1
 871 -379 l 1,234,-1
1121 -379 m 1,238,-1
 1121 -504 l 1,239,-1
 1245 -504 l 1,240,-1
 1245 -379 l 1,241,-1
 1121 -379 l 1,238,-1
EndSplineSet
Validated: 1
EndChar

StartChar: filledbox
Encoding: 9632 9632 374
Width: 1237
Flags: W
LayerCount: 2
Fore
SplineSet
146 944 m 1,0,-1
 1090 944 l 1,1,-1
 1090 0 l 1,2,-1
 146 0 l 1,3,-1
 146 944 l 1,0,-1
EndSplineSet
Validated: 1
EndChar

StartChar: filledrect
Encoding: 9644 9644 375
Width: 2048
Flags: W
LayerCount: 2
Fore
SplineSet
0 703 m 1,0,-1
 2047 703 l 1,1,-1
 2047 317 l 1,2,-1
 0 317 l 1,3,-1
 0 703 l 1,0,-1
EndSplineSet
Validated: 1
EndChar

StartChar: triagup
Encoding: 9650 9650 376
Width: 2027
Flags: W
LayerCount: 2
Fore
SplineSet
304 0 m 1,0,-1
 1014 1419 l 1,1,-1
 1724 0 l 1,2,-1
 304 0 l 1,0,-1
EndSplineSet
Validated: 1
EndChar

StartChar: triagrt
Encoding: 9658 9658 377
Width: 2027
Flags: W
LayerCount: 2
Fore
SplineSet
288 1417 m 1,0,-1
 1739 693 l 1,1,-1
 288 -31 l 1,2,-1
 288 1417 l 1,0,-1
EndSplineSet
Validated: 1
EndChar

StartChar: triagdn
Encoding: 9660 9660 378
Width: 2027
Flags: W
LayerCount: 2
Fore
SplineSet
1724 1388 m 1,0,-1
 1014 -31 l 1,1,-1
 304 1388 l 1,2,-1
 1724 1388 l 1,0,-1
EndSplineSet
Validated: 1
EndChar

StartChar: triaglf
Encoding: 9668 9668 379
Width: 2027
Flags: W
LayerCount: 2
Fore
SplineSet
1739 1417 m 1,0,-1
 1739 -31 l 1,1,-1
 288 693 l 1,2,-1
 1739 1417 l 1,0,-1
EndSplineSet
Validated: 1
EndChar

StartChar: circle
Encoding: 9675 9675 380
Width: 1237
Flags: W
LayerCount: 2
Fore
SplineSet
618 1018 m 0,0,1
 729 1018 729 1018 835 961 c 128,-1,2
 941 904 941 904 1000 798 c 128,-1,3
 1059 692 1059 692 1059 578 c 0,4,5
 1059 395 1059 395 930 266 c 128,-1,6
 801 137 801 137 619 137 c 0,7,8
 436 137 436 137 307 266 c 128,-1,9
 178 395 178 395 178 578 c 0,10,11
 178 693 178 693 237 798.5 c 128,-1,12
 296 904 296 904 402 961 c 128,-1,13
 508 1018 508 1018 618 1018 c 0,0,1
619 942 m 0,14,15
 526 942 526 942 439 895 c 128,-1,16
 352 848 352 848 303 760 c 128,-1,17
 254 672 254 672 254 578 c 0,18,19
 254 427 254 427 361 320 c 128,-1,20
 468 213 468 213 619 213 c 256,21,22
 770 213 770 213 876.5 320 c 128,-1,23
 983 427 983 427 983 578 c 0,24,25
 983 672 983 672 934 760 c 128,-1,26
 885 848 885 848 798 895 c 128,-1,27
 711 942 711 942 619 942 c 0,14,15
EndSplineSet
Validated: 1
EndChar

StartChar: invbullet
Encoding: 9688 9688 381
Width: 1237
Flags: W
LayerCount: 2
Fore
SplineSet
128 0 m 1,0,-1
 128 980 l 1,1,-1
 1108 980 l 1,2,-1
 1108 0 l 1,3,-1
 128 0 l 1,0,-1
618 692 m 256,4,5
 534 692 534 692 475 633 c 128,-1,6
 416 574 416 574 416 490 c 0,7,8
 416 407 416 407 475.5 347.5 c 128,-1,9
 535 288 535 288 618 288 c 0,10,11
 702 288 702 288 761 347.5 c 128,-1,12
 820 407 820 407 820 490 c 0,13,14
 820 574 820 574 761 633 c 128,-1,15
 702 692 702 692 618 692 c 256,4,5
EndSplineSet
Validated: 1
EndChar

StartChar: invcircle
Encoding: 9689 9689 382
Width: 1237
Flags: W
LayerCount: 2
Fore
SplineSet
42 0 m 1,0,-1
 42 1155 l 1,1,-1
 1197 1155 l 1,2,-1
 1197 0 l 1,3,-1
 42 0 l 1,0,-1
620 1018 m 0,4,5
 508 1018 508 1018 402.5 961 c 128,-1,6
 297 904 297 904 238 798 c 128,-1,7
 179 692 179 692 179 577 c 0,8,9
 179 395 179 395 308 266 c 128,-1,10
 437 137 437 137 620 137 c 0,11,12
 802 137 802 137 931 266 c 128,-1,13
 1060 395 1060 395 1060 577 c 0,14,15
 1060 692 1060 692 1001 798 c 128,-1,16
 942 904 942 904 836.5 961 c 128,-1,17
 731 1018 731 1018 620 1018 c 0,4,5
620 942 m 0,18,19
 711 942 711 942 798.5 895 c 128,-1,20
 886 848 886 848 935 760.5 c 128,-1,21
 984 673 984 673 984 577 c 0,22,23
 984 426 984 426 877.5 319.5 c 128,-1,24
 771 213 771 213 620 213 c 0,25,26
 468 213 468 213 361.5 319.5 c 128,-1,27
 255 426 255 426 255 577 c 0,28,29
 255 673 255 673 304 760.5 c 128,-1,30
 353 848 353 848 440.5 895 c 128,-1,31
 528 942 528 942 620 942 c 0,18,19
EndSplineSet
Validated: 1
EndChar

StartChar: smileface
Encoding: 9786 9786 383
Width: 2091
Flags: W
LayerCount: 2
Fore
SplineSet
1683 518 m 0,0,1
 1683 254 1683 254 1496.5 67.5 c 128,-1,2
 1310 -119 1310 -119 1046 -119 c 256,3,4
 782 -119 782 -119 595 67.5 c 128,-1,5
 408 254 408 254 408 518 c 0,6,7
 408 783 408 783 595 969.5 c 128,-1,8
 782 1156 782 1156 1046 1156 c 256,9,10
 1310 1156 1310 1156 1496.5 969.5 c 128,-1,11
 1683 783 1683 783 1683 518 c 0,0,1
1591 518 m 0,12,13
 1591 744 1591 744 1431.5 903.5 c 128,-1,14
 1272 1063 1272 1063 1046 1063 c 256,15,16
 820 1063 820 1063 660.5 903.5 c 128,-1,17
 501 744 501 744 501 518 c 0,18,19
 501 293 501 293 660.5 133.5 c 128,-1,20
 820 -26 820 -26 1046 -26 c 256,21,22
 1272 -26 1272 -26 1431.5 133.5 c 128,-1,23
 1591 293 1591 293 1591 518 c 0,12,13
882 650 m 0,24,25
 882 617 882 617 858.5 593 c 128,-1,26
 835 569 835 569 801 569 c 0,27,28
 768 569 768 569 744 593 c 128,-1,29
 720 617 720 617 720 650 c 0,30,31
 720 684 720 684 744 707.5 c 128,-1,32
 768 731 768 731 801 731 c 0,33,34
 835 731 835 731 858.5 707.5 c 128,-1,35
 882 684 882 684 882 650 c 0,24,25
1371 650 m 0,36,37
 1371 617 1371 617 1347.5 593 c 128,-1,38
 1324 569 1324 569 1290 569 c 0,39,40
 1257 569 1257 569 1233 593 c 128,-1,41
 1209 617 1209 617 1209 650 c 0,42,43
 1209 684 1209 684 1233 707.5 c 128,-1,44
 1257 731 1257 731 1290 731 c 0,45,46
 1324 731 1324 731 1347.5 707.5 c 128,-1,47
 1371 684 1371 684 1371 650 c 0,36,37
752 313 m 1,48,-1
 814 349 l 1,49,50
 893 205 893 205 1046 205 c 256,51,52
 1199 205 1199 205 1277 349 c 1,53,-1
 1340 313 l 1,54,55
 1290 218 1290 218 1216.5 168 c 128,-1,56
 1143 118 1143 118 1046 118 c 0,57,58
 948 118 948 118 875 168 c 128,-1,59
 802 218 802 218 752 313 c 1,48,-1
EndSplineSet
Validated: 1
EndChar

StartChar: invsmileface
Encoding: 9787 9787 384
Width: 2155
Flags: W
LayerCount: 2
Fore
SplineSet
1715 518 m 0,0,1
 1715 254 1715 254 1528.5 67.5 c 128,-1,2
 1342 -119 1342 -119 1078 -119 c 256,3,4
 814 -119 814 -119 627 67.5 c 128,-1,5
 440 254 440 254 440 518 c 0,6,7
 440 783 440 783 627 969.5 c 128,-1,8
 814 1156 814 1156 1078 1156 c 256,9,10
 1342 1156 1342 1156 1528.5 969.5 c 128,-1,11
 1715 783 1715 783 1715 518 c 0,0,1
914 650 m 0,12,13
 914 684 914 684 890.5 707.5 c 128,-1,14
 867 731 867 731 833 731 c 0,15,16
 800 731 800 731 776 707.5 c 128,-1,17
 752 684 752 684 752 650 c 0,18,19
 752 617 752 617 776 593 c 128,-1,20
 800 569 800 569 833 569 c 0,21,22
 867 569 867 569 890.5 593 c 128,-1,23
 914 617 914 617 914 650 c 0,12,13
1403 650 m 0,24,25
 1403 684 1403 684 1379.5 707.5 c 128,-1,26
 1356 731 1356 731 1322 731 c 0,27,28
 1289 731 1289 731 1265 707.5 c 128,-1,29
 1241 684 1241 684 1241 650 c 0,30,31
 1241 617 1241 617 1265 593 c 128,-1,32
 1289 569 1289 569 1322 569 c 0,33,34
 1356 569 1356 569 1379.5 593 c 128,-1,35
 1403 617 1403 617 1403 650 c 0,24,25
784 313 m 1,36,37
 834 218 834 218 907 168 c 128,-1,38
 980 118 980 118 1078 118 c 0,39,40
 1175 118 1175 118 1248.5 168 c 128,-1,41
 1322 218 1322 218 1372 313 c 1,42,-1
 1309 349 l 1,43,44
 1231 205 1231 205 1078 205 c 256,45,46
 925 205 925 205 846 349 c 1,47,-1
 784 313 l 1,36,37
EndSplineSet
Validated: 1
EndChar

StartChar: sun
Encoding: 9788 9788 385
Width: 1877
Flags: W
LayerCount: 2
Fore
SplineSet
902 1621 m 1,0,-1
 978 1621 l 1,1,-1
 978 1284 l 1,2,3
 1080 1277 1080 1277 1159.5 1245.5 c 128,-1,4
 1239 1214 1239 1214 1327 1143 c 1,5,-1
 1617 1427 l 1,6,-1
 1669 1374 l 1,7,-1
 1383 1088 l 1,8,9
 1456 993 1456 993 1486 919 c 0,10,11
 1524 823 1524 823 1526 730 c 1,12,-1
 1862 730 l 1,13,-1
 1862 661 l 1,14,-1
 1527 661 l 1,15,16
 1508 472 1508 472 1384 314 c 1,17,-1
 1669 23 l 1,18,-1
 1612 -27 l 1,19,-1
 1329 255 l 1,20,21
 1231 183 1231 183 1158 154.5 c 128,-1,22
 1085 126 1085 126 978 114 c 1,23,-1
 978 -223 l 1,24,-1
 902 -223 l 1,25,-1
 902 114 l 1,26,27
 790 129 790 129 713.5 160 c 128,-1,28
 637 191 637 191 557 252 c 1,29,-1
 263 -26 l 1,30,-1
 212 25 l 1,31,-1
 497 311 l 1,32,33
 431 395 431 395 397 477 c 128,-1,34
 363 559 363 559 352 665 c 1,35,-1
 16 665 l 1,36,-1
 16 734 l 1,37,-1
 352 734 l 1,38,39
 361 840 361 840 394 919.5 c 128,-1,40
 427 999 427 999 496 1083 c 1,41,-1
 212 1370 l 1,42,-1
 260 1427 l 1,43,-1
 552 1145 l 1,44,45
 653 1215 653 1215 731.5 1245.5 c 128,-1,46
 810 1276 810 1276 902 1284 c 1,47,-1
 902 1621 l 1,0,-1
1450 699 m 256,48,49
 1450 911 1450 911 1299.5 1061 c 128,-1,50
 1149 1211 1149 1211 937 1211 c 256,51,52
 725 1211 725 1211 575 1061 c 128,-1,53
 425 911 425 911 425 699 c 256,54,55
 425 487 425 487 575 336.5 c 128,-1,56
 725 186 725 186 937 186 c 256,57,58
 1149 186 1149 186 1299.5 336.5 c 128,-1,59
 1450 487 1450 487 1450 699 c 256,48,49
EndSplineSet
Validated: 1
EndChar

StartChar: female
Encoding: 9792 9792 386
Width: 1536
Flags: W
LayerCount: 2
Fore
SplineSet
796 461 m 1,0,-1
 796 59 l 1,1,-1
 1255 59 l 1,2,-1
 1255 0 l 1,3,-1
 796 0 l 1,4,-1
 796 -439 l 1,5,-1
 737 -439 l 1,6,-1
 737 0 l 1,7,-1
 277 0 l 1,8,-1
 277 59 l 1,9,-1
 737 59 l 1,10,-1
 737 461 l 1,11,12
 634 461 634 461 511.5 526.5 c 128,-1,13
 389 592 389 592 316.5 717.5 c 128,-1,14
 244 843 244 843 244 983 c 0,15,16
 244 1119 244 1119 313.5 1244 c 128,-1,17
 383 1369 383 1369 507 1438 c 128,-1,18
 631 1507 631 1507 768 1507 c 0,19,20
 904 1507 904 1507 1028.5 1437.5 c 128,-1,21
 1153 1368 1153 1368 1222 1243.5 c 128,-1,22
 1291 1119 1291 1119 1291 983 c 0,23,24
 1291 774 1291 774 1147.5 622.5 c 128,-1,25
 1004 471 1004 471 796 461 c 1,0,-1
767 1451 m 0,26,27
 649 1451 649 1451 536.5 1390.5 c 128,-1,28
 424 1330 424 1330 361 1217 c 128,-1,29
 298 1104 298 1104 298 982 c 0,30,31
 298 787 298 787 435.5 649.5 c 128,-1,32
 573 512 573 512 767 512 c 0,33,34
 962 512 962 512 1099.5 649.5 c 128,-1,35
 1237 787 1237 787 1237 982 c 0,36,37
 1237 1104 1237 1104 1174 1217 c 128,-1,38
 1111 1330 1111 1330 998.5 1390.5 c 128,-1,39
 886 1451 886 1451 767 1451 c 0,26,27
EndSplineSet
Validated: 1
EndChar

StartChar: male
Encoding: 9794 9794 387
Width: 1536
Flags: W
LayerCount: 2
Fore
SplineSet
1216 1620 m 1,0,-1
 1252 1604 l 1,1,-1
 1415 938 l 1,2,-1
 1358 923 l 1,3,-1
 1216 1504 l 1,4,-1
 858 736 l 1,5,6
 1006 661 1006 661 1082 534 c 128,-1,7
 1158 407 1158 407 1158 262 c 0,8,9
 1158 126 1158 126 1089 1.5 c 128,-1,10
 1020 -123 1020 -123 895.5 -192.5 c 128,-1,11
 771 -262 771 -262 634 -262 c 0,12,13
 498 -262 498 -262 373.5 -192.5 c 128,-1,14
 249 -123 249 -123 180 1.5 c 128,-1,15
 111 126 111 126 111 262 c 0,16,17
 111 479 111 479 264.5 632 c 128,-1,18
 418 785 418 785 637 785 c 0,19,20
 715 785 715 785 803 758 c 1,21,-1
 1163 1529 l 1,22,-1
 626 1264 l 1,23,-1
 602 1317 l 1,24,-1
 1216 1620 l 1,0,-1
634 731 m 0,25,26
 516 731 516 731 403.5 670.5 c 128,-1,27
 291 610 291 610 228 497 c 128,-1,28
 165 384 165 384 165 262 c 0,29,30
 165 67 165 67 302.5 -70.5 c 128,-1,31
 440 -208 440 -208 634 -208 c 0,32,33
 829 -208 829 -208 966.5 -70.5 c 128,-1,34
 1104 67 1104 67 1104 262 c 0,35,36
 1104 384 1104 384 1041 497 c 128,-1,37
 978 610 978 610 865.5 670.5 c 128,-1,38
 753 731 753 731 634 731 c 0,25,26
EndSplineSet
Validated: 1
EndChar

StartChar: spade
Encoding: 9824 9824 388
Width: 1088
Flags: W
LayerCount: 2
Fore
SplineSet
545 1231 m 1,0,1
 571 1123 571 1123 625 1038 c 128,-1,2
 679 953 679 953 817.5 827.5 c 128,-1,3
 956 702 956 702 993 635 c 128,-1,4
 1030 568 1030 568 1030 499 c 0,5,6
 1030 403 1030 403 966 339 c 128,-1,7
 902 275 902 275 810 275 c 0,8,9
 732 275 732 275 668.5 323.5 c 128,-1,10
 605 372 605 372 556 465 c 1,11,12
 557 318 557 318 594.5 231.5 c 128,-1,13
 632 145 632 145 714.5 95.5 c 128,-1,14
 797 46 797 46 934 37 c 1,15,-1
 941 0 l 1,16,-1
 148 0 l 1,17,-1
 156 37 l 1,18,19
 340 37 340 37 441.5 144.5 c 128,-1,20
 543 252 543 252 539 465 c 1,21,22
 494 370 494 370 427.5 322.5 c 128,-1,23
 361 275 361 275 277 275 c 0,24,25
 187 275 187 275 122.5 340 c 128,-1,26
 58 405 58 405 58 496 c 0,27,28
 58 569 58 569 91 628 c 0,29,30
 136 710 136 710 237 793 c 128,-1,31
 338 876 338 876 386 930 c 0,32,33
 459 1013 459 1013 492.5 1078 c 128,-1,34
 526 1143 526 1143 545 1231 c 1,0,1
EndSplineSet
Validated: 33
EndChar

StartChar: club
Encoding: 9827 9827 389
Width: 1344
Flags: W
LayerCount: 2
Fore
SplineSet
1098 0 m 1,0,-1
 250 0 l 1,1,-1
 258 34 l 1,2,3
 423 69 423 69 477 103 c 0,4,5
 558 154 558 154 609.5 254 c 128,-1,6
 661 354 661 354 661 465 c 0,7,8
 661 481 661 481 660 511 c 1,9,10
 599 387 599 387 511.5 330 c 128,-1,11
 424 273 424 273 333 273 c 0,12,13
 217 273 217 273 136 354 c 128,-1,14
 55 435 55 435 55 553 c 0,15,16
 55 669 55 669 129 748.5 c 128,-1,17
 203 828 203 828 297 828 c 0,18,19
 357 828 357 828 460 777 c 1,20,21
 418 847 418 847 405.5 882.5 c 128,-1,22
 393 918 393 918 393 959 c 0,23,24
 393 1073 393 1073 472 1152 c 128,-1,25
 551 1231 551 1231 669 1231 c 256,26,27
 787 1231 787 1231 867.5 1152 c 128,-1,28
 948 1073 948 1073 948 964 c 0,29,30
 948 875 948 875 879 777 c 1,31,32
 963 817 963 817 980 822 c 0,33,34
 1007 830 1007 830 1041 830 c 0,35,36
 1141 830 1141 830 1214.5 751.5 c 128,-1,37
 1288 673 1288 673 1288 557 c 0,38,39
 1288 437 1288 437 1207.5 355.5 c 128,-1,40
 1127 274 1127 274 1014 274 c 0,41,42
 951 274 951 274 884.5 304.5 c 128,-1,43
 818 335 818 335 769 386 c 0,44,45
 734 423 734 423 682 511 c 1,46,47
 686 352 686 352 730.5 259.5 c 128,-1,48
 775 167 775 167 867 106 c 0,49,50
 929 65 929 65 1090 34 c 1,51,-1
 1098 0 l 1,0,-1
EndSplineSet
Validated: 1
EndChar

StartChar: heart
Encoding: 9829 9829 390
Width: 1216
Flags: W
LayerCount: 2
Fore
SplineSet
610 -24 m 1,0,1
 579 94 579 94 521.5 197.5 c 128,-1,2
 464 301 464 301 299 519 c 0,3,4
 178 679 178 679 150 722 c 0,5,6
 104 792 104 792 83.5 850.5 c 128,-1,7
 63 909 63 909 63 969 c 0,8,9
 63 1080 63 1080 137 1155 c 128,-1,10
 211 1230 211 1230 320 1230 c 0,11,12
 430 1230 430 1230 511 1152 c 0,13,14
 572 1094 572 1094 610 979 c 1,15,16
 643 1092 643 1092 703 1151 c 0,17,18
 786 1231 786 1231 895 1231 c 0,19,20
 1003 1231 1003 1231 1078 1156.5 c 128,-1,21
 1153 1082 1153 1082 1153 979 c 0,22,23
 1153 889 1153 889 1109 791.5 c 128,-1,24
 1065 694 1065 694 939 536 c 0,25,26
 775 329 775 329 700 196 c 0,27,28
 641 91 641 91 610 -24 c 1,0,1
EndSplineSet
Validated: 1
EndChar

StartChar: diamond
Encoding: 9830 9830 391
Width: 1045
Flags: W
LayerCount: 2
Fore
SplineSet
521 1231 m 1,0,1
 610 1080 610 1080 740 907 c 0,2,3
 890 707 890 707 982 604 c 1,4,5
 908 526 908 526 740 302 c 0,6,7
 604 120 604 120 522 -24 c 1,8,9
 495 28 495 28 448 97 c 0,10,11
 367 217 367 217 247 376 c 0,12,13
 221 411 221 411 64 604 c 1,14,15
 165 719 165 719 324 932 c 0,16,17
 442 1090 442 1090 521 1231 c 1,0,1
EndSplineSet
Validated: 1
EndChar

StartChar: musicalnote
Encoding: 9834 9834 392
Width: 1024
Flags: W
LayerCount: 2
Fore
SplineSet
486 1363 m 1,0,-1
 524 1363 l 2,1,2
 696 1363 696 1363 751 1349 c 0,3,4
 830 1329 830 1329 890 1272 c 0,5,6
 935 1230 935 1230 961 1153.5 c 128,-1,7
 987 1077 987 1077 987 975 c 2,8,-1
 987 872 l 1,9,-1
 888 872 l 1,10,-1
 888 915 l 2,11,12
 888 983 888 983 859.5 1030.5 c 128,-1,13
 831 1078 831 1078 775 1103 c 0,14,15
 702 1135 702 1135 613 1135 c 2,16,-1
 585 1135 l 1,17,-1
 585 300 l 2,18,19
 585 179 585 179 553 111.5 c 128,-1,20
 521 44 521 44 443 3.5 c 128,-1,21
 365 -37 365 -37 273 -37 c 0,22,23
 164 -37 164 -37 100.5 24.5 c 128,-1,24
 37 86 37 86 37 186 c 0,25,26
 37 291 37 291 113 362.5 c 128,-1,27
 189 434 189 434 312 434 c 0,28,29
 390 434 390 434 486 388 c 1,30,-1
 486 1363 l 1,0,-1
EndSplineSet
Validated: 1
EndChar

